<?xml version="1.0" standalone="no"?><!DOCTYPE svg PUBLIC "-//W3C//DTD SVG 1.1//EN" "http://www.w3.org/Graphics/SVG/1.1/DTD/svg11.dtd"><svg class="icon" width="200px" height="200.00px" viewBox="0 0 1024 1024" version="1.1" xmlns="http://www.w3.org/2000/svg"><path d="M884.224 522.24H504.32V141.824c0-16.896-13.824-30.72-30.72-30.72-120.32 0-233.472 47.616-317.952 134.144S26.112 445.952 29.184 566.784c2.56 114.688 49.152 222.72 131.072 304.128 81.92 81.408 189.952 128 304.64 130.56h10.24c117.76 0 227.84-45.568 312.32-128.512 86.528-85.504 133.632-199.68 132.608-321.024-0.512-2.048-1.536-29.696-35.84-29.696z m-140.288 307.712c-74.752 73.728-173.056 112.64-277.504 110.592-205.824-4.608-370.688-169.472-375.296-374.784-3.072-104.448 35.84-202.752 108.544-277.504 65.536-67.072 151.552-107.52 243.712-114.688v378.88c0 16.896 13.824 30.72 30.72 30.72 129.024 0 311.296 0 382.976 0.512-6.144 93.184-46.08 179.712-113.152 246.272z" fill="#333333" /><path d="M603.136 11.264c-8.192-0.512-15.872 3.072-22.016 8.704-5.632 5.632-9.216 13.824-9.216 22.016v378.88c0 16.896 13.824 30.72 30.72 30.72h378.88c16.896 0 30.72-13.824 30.72-30.72 0-223.744-183.808-407.552-409.088-409.6z m30.208 378.88V74.24c167.424 16.384 301.056 150.016 315.904 315.904h-315.904z" fill="#333333" /></svg>