<?xml version="1.0" standalone="no"?><!DOCTYPE svg PUBLIC "-//W3C//DTD SVG 1.1//EN" "http://www.w3.org/Graphics/SVG/1.1/DTD/svg11.dtd"><svg class="icon" width="200px" height="200.00px" viewBox="0 0 1024 1024" version="1.1" xmlns="http://www.w3.org/2000/svg"><path d="M811.705761 1024H212.294239c-93.1199 0-174.823046-87.570975-174.823046-187.387854V162.322018C37.471193 69.776145 112.604921 0 212.294239 0H596.190595l7.015883 5.93161c111.74388 95.479788 185.857116 170.741078 279.614824 266.093304 29.65805 30.040735 61.165743 62.122454 96.436499 97.393211l7.271006 7.334787v459.859234c-0.063781 99.816879-81.703145 187.387854-174.823046 187.387854zM212.294239 49.94033c-72.391155 0-124.882716 47.261538-124.882716 112.381688v674.290128c0 71.94469 59.507443 137.383743 124.882716 137.383743h599.411522c65.311492 0 124.882716-65.439053 124.882716-137.383743V397.417876c-32.528184-32.464404-61.73977-62.250016-89.356836-90.377328-90.951355-92.418312-163.278729-165.957521-269.601245-257.163999H212.294239z" fill="#4D4D4D" /><path d="M936.588477 449.526752h-212.326129c-99.753099 0-187.324073-81.703145-187.324073-174.823046V49.94033a25.002055 25.002055 0 0 1 49.94033 0v224.763376c0 65.311492 65.502834 124.882716 137.383743 124.882716h212.326129a25.002055 25.002055 0 1 1 0 49.94033z" fill="#4D4D4D" /></svg>