<?xml version="1.0" standalone="no"?><!DOCTYPE svg PUBLIC "-//W3C//DTD SVG 1.1//EN" "http://www.w3.org/Graphics/SVG/1.1/DTD/svg11.dtd"><svg class="icon" width="200px" height="200.00px" viewBox="0 0 1024 1024" version="1.1" xmlns="http://www.w3.org/2000/svg"><path fill="#f4ea2a" d="M927.701333 375.978667l-279.637333-279.637334A37.546667 37.546667 0 0 0 621.397333 85.333333a37.546667 37.546667 0 0 0-26.666666 11.008L411.904 279.296a366.506667 366.506667 0 0 0-41.770667-2.304 374.016 374.016 0 0 0-234.325333 82.048 37.717333 37.717333 0 0 0-3.072 56.064l206.208 206.208-244.48 244.224a17.92 17.92 0 0 0-5.205333 11.093333l-3.84 42.24a18.090667 18.090667 0 0 0 18.048 19.754667c0.554667 0 1.109333 0 1.706666-0.128l42.24-3.84a17.92 17.92 0 0 0 11.093334-5.248l244.437333-244.437333 206.208 206.208a37.546667 37.546667 0 0 0 26.666667 11.008 37.546667 37.546667 0 0 0 29.397333-14.08 374.826667 374.826667 0 0 0 79.658667-276.224l182.826666-182.826667a37.589333 37.589333 0 0 0 0-53.077333z m-240.725333 178.346666l-27.776 27.818667 4.266667 39.04a294.997333 294.997333 0 0 1-34.474667 174.677333L228.309333 394.922667a293.546667 293.546667 0 0 1 174.634667-34.517334l39.04 4.309334 27.818667-27.776 151.722666-151.722667 217.301334 217.301333-151.850667 151.850667z"  /></svg>