<?xml version="1.0" standalone="no"?><!DOCTYPE svg PUBLIC "-//W3C//DTD SVG 1.1//EN" "http://www.w3.org/Graphics/SVG/1.1/DTD/svg11.dtd"><svg height="1024" node-id="1" sillyvg="true" template-height="1024" template-width="1024" version="1.1" viewBox="0 0 1024 1024" width="1024" xmlns="http://www.w3.org/2000/svg" xmlns:xlink="http://www.w3.org/1999/xlink"><defs node-id="216"></defs><g node-id="798"><g node-id="851"><g node-id="904"><path d="M 535.03 246.20 L 535.13 246.10 L 380.00 246.10 L 380.00 488.39 L 581.30 488.39 L 581.30 292.37 L 535.03 246.20 Z" fill="#d4f7fd" fill-rule="nonzero" group-id="1,54,107" node-id="224" stroke="none" target-height="242.29001" target-width="201.29999" target-x="380" target-y="246.1"></path></g></g></g><g node-id="799"><g node-id="852"><g node-id="905"><path d="M 603.47 277.37 L 557.20 231.10 L 402.17 231.10 L 402.17 473.39 L 603.47 473.39 L 603.47 277.37 Z" fill="#25d6f2" fill-rule="nonzero" group-id="2,55,108" node-id="235" stroke="none" target-height="242.29001" target-width="201.29996" target-x="402.17" target-y="231.1"></path></g></g></g><g node-id="800"><g node-id="853"><g node-id="906"><path d="M 611.33 233.30 L 611.43 233.20 L 456.30 233.20 L 456.30 475.59 L 657.60 475.59 L 657.60 279.47 L 611.33 233.30 Z" fill="#ffdae0" fill-rule="nonzero" group-id="3,56,109" node-id="246" stroke="none" target-height="242.39" target-width="201.29999" target-x="456.3" target-y="233.2"></path></g></g></g><g node-id="801"><g node-id="854"><g node-id="907"><path d="M 595.41 246.17 L 595.50 246.07 L 440.37 246.07 L 440.37 488.37 L 641.68 488.37 L 641.68 292.34 L 595.41 246.17 Z" fill="#ff4363" fill-rule="nonzero" group-id="4,57,110" node-id="257" stroke="none" target-height="242.29999" target-width="201.31" target-x="440.37" target-y="246.07"></path></g></g></g><g node-id="802"><g node-id="855"><g node-id="908"><path d="M 621.61 284.09 L 575.34 237.82 L 420.31 237.82 L 420.31 480.11 L 621.61 480.11 L 621.61 284.09 Z" fill="#ffffff" fill-rule="nonzero" group-id="5,58,111" node-id="268" stroke="none" target-height="242.28998" target-width="201.29999" target-x="420.31" target-y="237.82"></path></g></g></g><g node-id="803"><g node-id="856"><g node-id="909"><path d="M 492.69 396.12 L 488.29 401.22 L 484.93 406.63 L 482.54 412.39 L 481.09 418.58 L 480.60 425.30 L 480.91 426.90 L 481.84 428.27 L 483.22 429.21 L 484.82 429.52 L 486.49 429.20 L 487.80 428.27 L 488.73 426.90 L 489.04 425.30 L 489.44 419.94 L 490.61 415.01 L 492.52 410.42 L 495.21 406.12 L 498.74 402.07 L 502.79 398.57 L 507.08 395.91 L 511.65 394.01 L 516.56 392.86 L 521.87 392.47 L 527.23 392.86 L 532.17 394.02 L 536.76 395.91 L 541.06 398.58 L 545.11 402.07 L 548.64 406.12 L 551.33 410.42 L 553.24 415.01 L 554.40 419.94 L 554.80 425.30 L 555.11 426.90 L 556.05 428.27 L 557.36 429.20 L 559.02 429.52 L 560.63 429.21 L 562.00 428.27 L 562.94 426.90 L 563.25 425.30 L 562.75 418.58 L 561.30 412.39 L 558.91 406.63 L 555.56 401.22 L 551.15 396.12 L 546.01 391.71 L 540.57 388.35 L 534.79 385.96 L 528.59 384.51 L 521.87 384.02 L 515.16 384.52 L 508.97 385.97 L 503.20 388.36 L 497.80 391.71 L 492.69 396.12 Z" fill="#252c3e" fill-rule="nonzero" group-id="6,59,112" node-id="279" stroke="none" target-height="45.5" target-width="82.649994" target-x="480.6" target-y="384.02"></path></g></g></g><g node-id="804"><g node-id="857"><g node-id="910"><path d="M 485.49 328.05 L 502.77 310.78 L 493.75 301.75 L 476.47 319.13 L 459.19 301.75 L 450.17 310.78 L 467.45 328.05 L 450.17 345.43 L 459.19 354.36 L 476.47 337.08 L 493.75 354.45 L 502.77 345.43 L 485.49 328.05 Z" fill="#252c3e" fill-rule="nonzero" group-id="7,60,113" node-id="290" stroke="none" target-height="52.700012" target-width="52.599976" target-x="450.17" target-y="301.75"></path></g></g></g><g node-id="805"><g node-id="858"><g node-id="911"><path d="M 567.38 337.08 L 584.66 354.45 L 593.68 345.43 L 576.40 328.05 L 593.68 310.78 L 584.66 301.75 L 567.38 319.13 L 550.00 301.75 L 541.07 310.78 L 558.35 328.05 L 541.07 345.43 L 550.00 354.36 L 567.38 337.08 Z" fill="#252c3e" fill-rule="nonzero" group-id="8,61,114" node-id="301" stroke="none" target-height="52.700012" target-width="52.609985" target-x="541.07" target-y="301.75"></path></g></g></g><g node-id="806"><g node-id="859"><g node-id="912"><path d="M 356.57 258.36 L 356.57 271.90 L 496.44 271.90 L 496.44 258.36 L 356.57 258.36 Z" fill="#ffffff" fill-rule="nonzero" group-id="9,62,115" node-id="312" stroke="none" target-height="13.540009" target-width="139.87" target-x="356.57" target-y="258.36"></path></g></g></g><g node-id="807"><g node-id="860"><g node-id="913"><path d="M 443.35 311.16 L 443.35 297.62 L 335.93 297.62 L 335.93 311.16 L 443.35 311.16 Z" fill="#ffffff" fill-rule="nonzero" group-id="10,63,116" node-id="323" stroke="none" target-height="13.540009" target-width="107.42001" target-x="335.93" target-y="297.62"></path></g></g></g><g node-id="808"><g node-id="861"><g node-id="914"><path d="M 687.85 384.02 L 687.85 370.48 L 606.83 370.48 L 606.83 384.02 L 687.85 384.02 Z" fill="#ffffff" fill-rule="nonzero" group-id="11,64,117" node-id="334" stroke="none" target-height="13.539978" target-width="81.01996" target-x="606.83" target-y="370.48"></path></g></g></g><g node-id="809"><g node-id="862"><g node-id="915"><path d="M 369.24 442.29 L 369.24 455.82 L 450.17 455.82 L 450.17 442.29 L 369.24 442.29 Z" fill="#ffffff" fill-rule="nonzero" group-id="12,65,118" node-id="345" stroke="none" target-height="13.529999" target-width="80.93002" target-x="369.24" target-y="442.29"></path></g></g></g><g node-id="810"><g node-id="863"><g node-id="916"><path d="M 663.28 341.59 L 663.28 328.05 L 606.83 328.05 L 606.83 341.59 L 663.28 341.59 Z" fill="#ff4363" fill-rule="nonzero" group-id="13,66,119" node-id="356" stroke="none" target-height="13.540009" target-width="56.450012" target-x="606.83" target-y="328.05"></path></g></g></g><g node-id="811"><g node-id="864"><g node-id="917"><path d="M 670.09 436.24 L 670.09 422.80 L 590.90 422.80 L 590.90 436.24 L 670.09 436.24 Z" fill="#ff4363" fill-rule="nonzero" group-id="14,67,120" node-id="367" stroke="none" target-height="13.440002" target-width="79.19" target-x="590.9" target-y="422.8"></path></g></g></g><g node-id="812"><g node-id="865"><g node-id="918"><path d="M 453.33 390.74 L 453.33 377.30 L 374.23 377.30 L 374.23 390.74 L 453.33 390.74 Z" fill="#25d6f2" fill-rule="nonzero" group-id="15,68,121" node-id="378" stroke="none" target-height="13.440002" target-width="79.099976" target-x="374.23" target-y="377.3"></path></g></g></g><g node-id="813"><g node-id="866"><g node-id="919"><path d="M 388.54 234.94 L 388.54 248.47 L 486.64 248.47 L 486.64 234.94 L 388.54 234.94 Z" fill="#25d6f2" fill-rule="nonzero" group-id="16,69,122" node-id="389" stroke="none" target-height="13.529999" target-width="98.100006" target-x="388.54" target-y="234.94"></path></g></g></g><g node-id="814"><g node-id="867"><g node-id="920"><path d="M 549.33 455.82 L 549.33 469.26 L 647.34 469.26 L 647.34 455.82 L 549.33 455.82 Z" fill="#25d6f2" fill-rule="nonzero" group-id="17,70,123" node-id="400" stroke="none" target-height="13.440002" target-width="98.01001" target-x="549.33" target-y="455.82"></path></g></g></g><g node-id="815"><g node-id="868"><g node-id="921"><path d="M 462.36 511.12 L 462.36 497.68 L 402.36 497.68 L 402.36 511.12 L 462.36 511.12 Z" fill="#25d6f2" fill-rule="nonzero" group-id="18,71,124" node-id="411" stroke="none" target-height="13.440002" target-width="60" target-x="402.36" target-y="497.68"></path></g></g></g><g node-id="816"><g node-id="869"><g node-id="922"><path d="M 543.47 206.04 L 543.47 219.58 L 603.47 219.58 L 603.47 206.04 L 543.47 206.04 Z" fill="#ffffff" fill-rule="nonzero" group-id="19,72,125" node-id="422" stroke="none" target-height="13.540009" target-width="60" target-x="543.47" target-y="206.04"></path></g></g></g><g node-id="817"><g node-id="870"><g node-id="923"><path d="M 388.54 354.45 L 388.54 340.92 L 353.50 340.92 L 353.50 354.45 L 388.54 354.45 Z" fill="#ffffff" fill-rule="nonzero" group-id="20,73,126" node-id="433" stroke="none" target-height="13.529999" target-width="35.04001" target-x="353.5" target-y="340.92"></path></g></g></g><g node-id="818"><g node-id="871"><g node-id="924"><path d="M 670.19 269.11 L 670.19 255.67 L 635.05 255.67 L 635.05 269.11 L 670.19 269.11 Z" fill="#ffffff" fill-rule="nonzero" group-id="21,74,127" node-id="444" stroke="none" target-height="13.439987" target-width="35.140015" target-x="635.05" target-y="255.67"></path></g></g></g><g node-id="819"><g node-id="872"><g node-id="925"><path d="M 705.42 308.57 L 705.42 295.03 L 670.28 295.03 L 670.28 308.57 L 705.42 308.57 Z" fill="#ff4363" fill-rule="nonzero" group-id="22,75,128" node-id="455" stroke="none" target-height="13.540009" target-width="35.139954" target-x="670.28" target-y="295.03"></path></g></g></g><g node-id="820"><g node-id="873"><g node-id="926"><path d="M 371.07 420.31 L 371.07 406.77 L 335.93 406.77 L 335.93 420.31 L 371.07 420.31 Z" fill="#ff4363" fill-rule="nonzero" group-id="23,76,129" node-id="466" stroke="none" target-height="13.540009" target-width="35.140015" target-x="335.93" target-y="406.77"></path></g></g></g><g node-id="821"><g node-id="874"><g node-id="927"><path d="M 709.35 413.49 L 709.35 400.05 L 674.22 400.05 L 674.22 413.49 L 709.35 413.49 Z" fill="#25d6f2" fill-rule="nonzero" group-id="24,77,130" node-id="477" stroke="none" target-height="13.440002" target-width="35.130005" target-x="674.22" target-y="400.05"></path></g></g></g><g node-id="822"><g node-id="875"><g node-id="928"><path d="M 526.55 719.70 L 526.55 586.45 L 390.35 586.45 L 390.35 719.70 L 526.55 719.70 M 436.30 603.95 L 480.00 603.95 L 480.00 701.75 L 436.30 701.75 L 436.30 603.95 M 302.50 696.20 L 302.50 719.70 L 345.95 719.70 L 345.95 696.20 L 359.45 696.20 L 371.85 678.95 L 345.95 678.95 L 345.95 586.45 L 307.35 586.45 L 223.05 678.95 L 223.05 696.20 L 302.50 696.20 M 249.70 678.95 L 302.50 621.05 L 302.50 678.95 L 249.70 678.95 M 693.90 678.95 L 668.00 678.95 L 668.00 586.45 L 629.40 586.45 L 545.10 678.95 L 545.10 696.20 L 624.55 696.20 L 624.55 719.70 L 668.00 719.70 L 668.00 696.20 L 681.50 696.20 L 693.90 678.95 M 571.75 678.95 L 624.55 621.05 L 624.55 678.95 L 571.75 678.95 Z" fill="#d4f7fd" fill-rule="nonzero" group-id="25,78,131" node-id="488" stroke="none" target-height="133.25" target-width="470.85004" target-x="223.05" target-y="586.45"></path></g></g></g><g node-id="823"><g node-id="876"><g node-id="929"><path d="M 614.45 696.40 L 614.45 563.15 L 478.25 563.15 L 478.25 696.40 L 614.45 696.40 M 524.20 580.65 L 567.90 580.65 L 567.90 678.45 L 524.20 678.45 L 524.20 580.65 M 310.95 655.65 L 310.95 672.90 L 390.40 672.90 L 390.40 696.40 L 433.85 696.40 L 433.85 672.90 L 447.35 672.90 L 459.75 655.65 L 433.85 655.65 L 433.85 563.15 L 395.25 563.15 L 310.95 655.65 M 337.60 655.65 L 390.40 597.75 L 390.40 655.65 L 337.60 655.65 M 755.90 563.15 L 717.30 563.15 L 633.00 655.65 L 633.00 672.90 L 712.45 672.90 L 712.45 696.40 L 755.90 696.40 L 755.90 672.90 L 769.40 672.90 L 781.80 655.65 L 755.90 655.65 L 755.90 563.15 M 659.65 655.65 L 712.45 597.75 L 712.45 655.65 L 659.65 655.65 Z" fill="#ffdae0" fill-rule="nonzero" group-id="26,79,132" node-id="499" stroke="none" target-height="133.25" target-width="470.84998" target-x="310.95" target-y="563.15"></path></g></g></g><g node-id="824"><g node-id="877"><g node-id="930"><path d="M 553.65 714.20 L 553.65 580.95 L 417.45 580.95 L 417.45 714.20 L 553.65 714.20 M 463.40 696.25 L 463.40 598.45 L 507.10 598.45 L 507.10 696.25 L 463.40 696.25 M 250.15 673.45 L 250.15 690.70 L 329.60 690.70 L 329.60 714.20 L 373.05 714.20 L 373.05 690.70 L 386.55 690.70 L 398.95 673.45 L 373.05 673.45 L 373.05 580.95 L 334.45 580.95 L 250.15 673.45 M 329.60 615.55 L 329.60 673.45 L 276.80 673.45 L 329.60 615.55 M 695.10 580.95 L 656.50 580.95 L 572.20 673.45 L 572.20 690.70 L 651.65 690.70 L 651.65 714.20 L 695.10 714.20 L 695.10 690.70 L 708.60 690.70 L 721.00 673.45 L 695.10 673.45 L 695.10 580.95 M 651.65 615.55 L 651.65 673.45 L 598.85 673.45 L 651.65 615.55 Z" fill="#25d6f2" fill-rule="nonzero" group-id="27,80,133" node-id="510" stroke="none" target-height="133.25" target-width="470.85" target-x="250.15" target-y="580.95"></path></g></g></g><g node-id="825"><g node-id="878"><g node-id="931"><path d="M 598.30 714.20 L 598.30 580.95 L 462.10 580.95 L 462.10 714.20 L 598.30 714.20 M 508.05 598.45 L 551.75 598.45 L 551.75 696.25 L 508.05 696.25 L 508.05 598.45 M 294.80 673.45 L 294.80 690.70 L 374.25 690.70 L 374.25 714.20 L 417.70 714.20 L 417.70 690.70 L 431.20 690.70 L 443.60 673.45 L 417.70 673.45 L 417.70 580.95 L 379.10 580.95 L 294.80 673.45 M 374.25 615.55 L 374.25 673.45 L 321.45 673.45 L 374.25 615.55 M 739.75 580.95 L 701.15 580.95 L 616.85 673.45 L 616.85 690.70 L 696.30 690.70 L 696.30 714.20 L 739.75 714.20 L 739.75 690.70 L 753.25 690.70 L 765.65 673.45 L 739.75 673.45 L 739.75 580.95 M 696.30 615.55 L 696.30 673.45 L 643.50 673.45 L 696.30 615.55 Z" fill="#ff4363" fill-rule="nonzero" group-id="28,81,134" node-id="521" stroke="none" target-height="133.25" target-width="470.85004" target-x="294.8" target-y="580.95"></path></g></g></g><g node-id="826"><g node-id="879"><g node-id="932"><path d="M 647.20 764.25 L 642.85 764.25 L 642.85 785.45 C 642.85 787.52 642.63 789.32 642.20 790.85 C 641.77 792.25 641.15 793.40 640.35 794.30 C 639.62 795.13 638.72 795.75 637.65 796.15 C 636.68 796.55 635.57 796.75 634.30 796.75 C 633.10 796.75 632.02 796.55 631.05 796.15 C 630.02 795.75 629.13 795.13 628.40 794.30 C 627.63 793.40 627.05 792.25 626.65 790.85 C 626.22 789.32 626.00 787.52 626.00 785.45 L 626.00 764.25 L 621.50 764.25 L 621.75 789.25 C 621.92 790.45 622.15 791.55 622.45 792.55 C 622.78 793.52 623.18 794.40 623.65 795.20 C 624.08 796.00 624.60 796.70 625.20 797.30 C 625.93 798.10 627.28 798.97 629.25 799.90 C 630.72 800.43 632.40 800.70 634.30 800.70 C 636.20 800.70 637.90 800.43 639.40 799.90 L 641.60 798.85 C 642.30 798.42 642.93 797.90 643.50 797.30 C 644.07 796.70 644.58 796.00 645.05 795.20 C 645.52 794.40 645.90 793.52 646.20 792.55 C 646.53 791.55 646.77 790.45 646.90 789.25 L 647.20 785.25 L 647.20 764.25 M 604.90 764.90 C 603.97 764.47 603.00 764.15 602.00 763.95 C 600.93 763.72 599.85 763.60 598.75 763.60 C 597.62 763.60 596.53 763.72 595.50 763.95 C 594.47 764.15 593.50 764.47 592.60 764.90 C 591.63 765.30 590.75 765.82 589.95 766.45 C 589.15 767.05 588.42 767.75 587.75 768.55 C 587.05 769.35 586.45 770.23 585.95 771.20 C 585.42 772.17 584.97 773.22 584.60 774.35 C 584.23 775.48 583.95 776.70 583.75 778.00 C 583.58 779.30 583.50 780.65 583.50 782.05 C 583.50 783.48 583.58 784.85 583.75 786.15 C 583.95 787.42 584.23 788.63 584.60 789.80 C 584.97 790.93 585.42 792.00 585.95 793.00 C 586.45 793.97 587.05 794.85 587.75 795.65 C 588.42 796.48 589.15 797.20 589.95 797.80 C 590.75 798.43 591.63 798.97 592.60 799.40 C 593.50 799.83 594.47 800.15 595.50 800.35 C 596.57 800.58 597.65 800.70 598.75 800.70 C 599.85 800.70 600.93 800.58 602.00 800.35 C 603.00 800.15 603.97 799.83 604.90 799.40 C 605.83 798.97 606.70 798.43 607.50 797.80 C 608.30 797.20 609.05 796.48 609.75 795.65 C 610.42 794.85 611.02 793.97 611.55 793.00 C 612.08 792.00 612.53 790.93 612.90 789.80 C 613.27 788.63 613.53 787.42 613.70 786.15 C 613.90 784.85 614.00 783.48 614.00 782.05 C 614.00 780.65 613.90 779.30 613.70 778.00 C 613.53 776.70 613.27 775.48 612.90 774.35 C 612.53 773.22 612.08 772.17 611.55 771.20 C 611.02 770.23 610.42 769.35 609.75 768.55 C 609.05 767.75 608.30 767.05 607.50 766.45 C 606.70 765.82 605.83 765.30 604.90 764.90 M 603.10 768.55 C 604.40 769.22 605.52 770.18 606.45 771.45 C 607.38 772.72 608.10 774.23 608.60 776.00 C 609.10 777.83 609.35 779.85 609.35 782.05 C 609.35 784.25 609.10 786.27 608.60 788.10 C 608.10 789.90 607.38 791.45 606.45 792.75 C 605.52 794.02 604.40 795.00 603.10 795.70 C 601.77 796.40 600.32 796.75 598.75 796.75 C 597.15 796.75 595.68 796.40 594.35 795.70 C 593.05 795.00 591.93 794.02 591.00 792.75 C 590.07 791.45 589.35 789.90 588.85 788.10 C 588.35 786.27 588.10 784.25 588.10 782.05 C 588.10 779.85 588.35 777.83 588.85 776.00 C 589.35 774.23 590.07 772.72 591.00 771.45 C 591.93 770.18 593.05 769.22 594.35 768.55 C 595.68 767.88 597.15 767.55 598.75 767.55 C 600.35 767.55 601.80 767.88 603.10 768.55 M 563.20 780.20 L 563.20 768.10 L 579.30 768.10 L 579.30 764.25 L 558.70 764.25 L 558.70 800.05 L 563.20 800.05 L 563.20 784.00 L 576.85 784.00 L 576.85 780.20 L 563.20 780.20 M 515.25 768.10 L 526.10 768.10 L 526.10 800.05 L 530.65 800.05 L 530.65 768.10 L 541.45 768.10 L 541.45 764.25 L 515.25 764.25 L 515.25 768.10 M 480.50 782.05 C 480.50 783.48 480.58 784.85 480.75 786.15 C 480.95 787.42 481.23 788.63 481.60 789.80 C 481.97 790.93 482.42 792.00 482.95 793.00 C 483.45 793.97 484.05 794.85 484.75 795.65 C 485.42 796.48 486.15 797.20 486.95 797.80 C 487.75 798.43 488.63 798.97 489.60 799.40 C 490.50 799.83 491.47 800.15 492.50 800.35 C 493.57 800.58 494.65 800.70 495.75 800.70 C 496.85 800.70 497.93 800.58 499.00 800.35 C 500.00 800.15 500.97 799.83 501.90 799.40 C 502.83 798.97 503.70 798.43 504.50 797.80 C 505.30 797.20 506.05 796.48 506.75 795.65 C 507.42 794.85 508.02 793.97 508.55 793.00 C 509.08 792.00 509.53 790.93 509.90 789.80 C 510.27 788.63 510.53 787.42 510.70 786.15 C 510.90 784.85 511.00 783.48 511.00 782.05 C 511.00 780.65 510.90 779.30 510.70 778.00 C 510.53 776.70 510.27 775.48 509.90 774.35 C 509.53 773.22 509.08 772.17 508.55 771.20 C 508.02 770.23 507.42 769.35 506.75 768.55 C 506.05 767.75 505.30 767.05 504.50 766.45 C 503.70 765.82 502.83 765.30 501.90 764.90 C 500.97 764.47 500.00 764.15 499.00 763.95 C 497.93 763.72 496.85 763.60 495.75 763.60 C 494.62 763.60 493.53 763.72 492.50 763.95 C 491.47 764.15 490.50 764.47 489.60 764.90 C 488.63 765.30 487.75 765.82 486.95 766.45 C 486.15 767.05 485.42 767.75 484.75 768.55 C 484.05 769.35 483.45 770.23 482.95 771.20 C 482.42 772.17 481.97 773.22 481.60 774.35 C 481.23 775.48 480.95 776.70 480.75 778.00 C 480.58 779.30 480.50 780.65 480.50 782.05 M 485.85 788.10 C 485.35 786.27 485.10 784.25 485.10 782.05 C 485.10 779.85 485.35 777.83 485.85 776.00 C 486.35 774.23 487.07 772.72 488.00 771.45 C 488.93 770.18 490.05 769.22 491.35 768.55 C 492.68 767.88 494.15 767.55 495.75 767.55 C 497.35 767.55 498.80 767.88 500.10 768.55 C 501.40 769.22 502.52 770.18 503.45 771.45 C 504.38 772.72 505.10 774.23 505.60 776.00 C 506.10 777.83 506.35 779.85 506.35 782.05 C 506.35 784.25 506.10 786.27 505.60 788.10 C 505.10 789.90 504.38 791.45 503.45 792.75 C 502.52 794.02 501.40 795.00 500.10 795.70 C 498.77 796.40 497.32 796.75 495.75 796.75 C 494.15 796.75 492.68 796.40 491.35 795.70 C 490.05 795.00 488.93 794.02 488.00 792.75 C 487.07 791.45 486.35 789.90 485.85 788.10 M 472.90 764.25 L 468.60 764.25 L 468.60 782.90 C 468.83 788.03 469.02 791.80 469.15 794.20 L 468.95 794.20 L 452.10 764.25 L 447.45 764.25 L 447.45 800.05 L 451.70 800.05 L 451.70 781.30 C 451.70 778.77 451.52 775.03 451.15 770.10 L 451.40 770.10 L 455.20 777.50 L 468.25 800.05 L 472.90 800.05 L 472.90 764.25 M 428.60 764.25 L 408.00 764.25 L 408.00 800.05 L 429.15 800.05 L 429.15 796.20 L 412.50 796.20 L 412.50 783.15 L 426.10 783.15 L 426.10 779.35 L 412.50 779.35 L 412.50 768.10 L 428.60 768.10 L 428.60 764.25 M 388.70 763.60 C 387.53 763.60 386.40 763.72 385.30 763.95 C 384.20 764.15 383.15 764.47 382.15 764.90 C 381.15 765.30 380.23 765.82 379.40 766.45 C 378.50 767.08 377.70 767.78 377.00 768.55 C 376.27 769.38 375.60 770.28 375.00 771.25 C 374.43 772.22 373.95 773.28 373.55 774.45 C 373.15 775.58 372.85 776.80 372.65 778.10 C 372.45 779.40 372.35 780.77 372.35 782.20 C 372.35 783.63 372.45 785.02 372.65 786.35 C 372.85 787.62 373.13 788.83 373.50 790.00 C 373.90 791.13 374.38 792.18 374.95 793.15 C 375.52 794.12 376.15 795.00 376.85 795.80 C 377.58 796.60 378.37 797.30 379.20 797.90 C 380.07 798.50 380.98 799.02 381.95 799.45 C 382.95 799.85 383.98 800.15 385.05 800.35 C 386.12 800.58 387.25 800.70 388.45 800.70 C 389.62 800.70 390.75 800.60 391.85 800.40 C 392.92 800.17 393.93 799.87 394.90 799.50 C 395.83 799.13 396.70 798.70 397.50 798.20 C 398.23 797.70 398.90 797.15 399.50 796.55 L 399.50 781.50 L 387.80 781.50 L 387.80 785.25 L 395.35 785.25 L 395.35 794.65 C 394.65 795.28 393.72 795.78 392.55 796.15 C 391.42 796.55 390.20 796.75 388.90 796.75 L 386.20 796.50 C 385.33 796.30 384.53 796.03 383.80 795.70 C 382.30 795.03 381.05 794.07 380.05 792.80 C 379.02 791.50 378.25 789.95 377.75 788.15 C 377.22 786.35 376.95 784.32 376.95 782.05 C 376.95 780.58 377.23 778.57 377.80 776.00 C 378.33 774.27 379.13 772.77 380.20 771.50 C 381.23 770.20 382.48 769.22 383.95 768.55 C 385.42 767.88 387.03 767.55 388.80 767.55 C 390.50 767.55 392.03 767.88 393.40 768.55 C 394.50 769.12 395.55 769.93 396.55 771.00 L 399.00 768.05 C 397.80 766.75 396.45 765.73 394.95 765.00 C 394.05 764.57 393.10 764.23 392.10 764.00 C 391.03 763.73 389.90 763.60 388.70 763.60 M 333.90 766.60 C 332.77 765.80 331.35 765.20 329.65 764.80 C 328.08 764.43 326.27 764.25 324.20 764.25 L 314.00 764.25 L 314.00 800.05 L 318.50 800.05 L 318.50 785.85 L 324.40 785.85 C 326.40 785.85 328.20 785.63 329.80 785.20 C 331.40 784.73 332.78 784.05 333.95 783.15 C 335.12 782.22 336.02 781.07 336.65 779.70 C 337.28 778.27 337.60 776.63 337.60 774.80 C 337.60 773.50 337.28 771.85 336.65 769.85 C 336.02 768.55 335.10 767.47 333.90 766.60 M 323.80 782.20 L 318.50 782.20 L 318.50 767.95 L 323.60 767.95 C 325.23 767.95 326.62 768.07 327.75 768.30 C 328.98 768.53 329.97 768.92 330.70 769.45 C 331.50 769.98 332.10 770.68 332.50 771.55 C 332.90 772.42 333.10 773.50 333.10 774.80 C 333.10 776.07 332.92 777.17 332.55 778.10 C 332.15 779.03 331.57 779.80 330.80 780.40 C 330.03 781.00 329.08 781.45 327.95 781.75 C 326.78 782.05 325.40 782.20 323.80 782.20 M 357.20 764.25 L 352.20 764.25 L 340.05 800.05 L 344.65 800.05 L 348.10 789.10 L 361.15 789.10 L 364.55 800.05 L 369.35 800.05 L 357.20 764.25 M 349.20 785.55 L 350.95 780.05 C 352.45 775.32 353.63 771.28 354.50 767.95 L 354.75 767.95 C 356.15 773.02 357.35 777.05 358.35 780.05 L 360.05 785.55 L 349.20 785.55 M 700.90 764.25 L 691.95 764.25 L 691.95 800.05 L 701.10 800.05 C 702.43 800.05 703.70 799.95 704.90 799.75 C 706.10 799.55 707.22 799.25 708.25 798.85 C 709.28 798.45 710.23 797.95 711.10 797.35 C 711.97 796.75 712.77 796.07 713.50 795.30 C 714.20 794.53 714.82 793.67 715.35 792.70 C 715.88 791.77 716.32 790.75 716.65 789.65 C 717.02 788.55 717.30 787.35 717.50 786.05 C 717.67 784.78 717.75 783.45 717.75 782.05 C 717.75 780.65 717.67 779.30 717.50 778.00 C 717.30 776.77 717.02 775.60 716.65 774.50 C 716.28 773.40 715.85 772.38 715.35 771.45 C 714.82 770.48 714.18 769.63 713.45 768.90 C 712.75 768.13 711.95 767.47 711.05 766.90 C 710.18 766.30 709.22 765.82 708.15 765.45 C 707.12 765.05 705.98 764.75 704.75 764.55 C 703.55 764.35 702.27 764.25 700.90 764.25 M 706.05 768.90 C 706.82 769.20 707.53 769.57 708.20 770.00 C 708.83 770.47 709.42 771.00 709.95 771.60 C 711.02 772.80 711.80 774.27 712.30 776.00 C 712.83 777.77 713.10 779.78 713.10 782.05 C 713.10 784.32 712.83 786.33 712.30 788.10 C 711.80 789.87 711.02 791.35 709.95 792.55 C 709.42 793.18 708.83 793.73 708.20 794.20 C 707.53 794.67 706.82 795.07 706.05 795.40 C 703.75 796.03 701.90 796.35 700.50 796.35 L 696.45 796.35 L 696.45 767.95 L 700.50 767.95 C 701.90 767.95 703.75 768.27 706.05 768.90 M 661.05 781.30 C 661.05 778.77 660.87 775.03 660.50 770.10 L 660.75 770.10 L 664.55 777.50 L 677.60 800.05 L 682.25 800.05 L 682.25 764.25 L 677.95 764.25 L 677.95 782.90 C 678.18 788.03 678.37 791.80 678.50 794.20 L 678.30 794.20 L 661.45 764.25 L 656.80 764.25 L 656.80 800.05 L 661.05 800.05 L 661.05 781.30 Z" fill="#ff4363" fill-rule="nonzero" group-id="29,82,135" node-id="532" stroke="none" target-height="37.100037" target-width="403.75" target-x="314" target-y="763.6"></path></g></g></g><g node-id="827"><g node-id="880"><g node-id="933"><path d="M 639.85 764.25 L 635.50 764.25 L 635.50 785.45 C 635.50 787.52 635.28 789.32 634.85 790.85 C 634.42 792.25 633.80 793.40 633.00 794.30 C 632.27 795.13 631.37 795.75 630.30 796.15 C 629.33 796.55 628.22 796.75 626.95 796.75 C 625.75 796.75 624.67 796.55 623.70 796.15 C 622.67 795.75 621.78 795.13 621.05 794.30 C 620.28 793.40 619.70 792.25 619.30 790.85 C 618.87 789.32 618.65 787.52 618.65 785.45 L 618.65 764.25 L 614.15 764.25 L 614.40 789.25 C 614.57 790.45 614.80 791.55 615.10 792.55 C 615.43 793.52 615.83 794.40 616.30 795.20 C 616.73 796.00 617.25 796.70 617.85 797.30 C 618.58 798.10 619.93 798.97 621.90 799.90 C 623.37 800.43 625.05 800.70 626.95 800.70 C 628.85 800.70 630.55 800.43 632.05 799.90 L 634.25 798.85 C 634.95 798.42 635.58 797.90 636.15 797.30 C 636.72 796.70 637.23 796.00 637.70 795.20 C 638.17 794.40 638.55 793.52 638.85 792.55 C 639.18 791.55 639.42 790.45 639.55 789.25 L 639.85 785.25 L 639.85 764.25 M 591.40 763.60 C 590.27 763.60 589.18 763.72 588.15 763.95 C 587.12 764.15 586.15 764.47 585.25 764.90 C 584.28 765.30 583.40 765.82 582.60 766.45 C 581.80 767.05 581.07 767.75 580.40 768.55 C 579.70 769.35 579.10 770.23 578.60 771.20 C 578.07 772.17 577.62 773.22 577.25 774.35 C 576.88 775.48 576.60 776.70 576.40 778.00 C 576.23 779.30 576.15 780.65 576.15 782.05 C 576.15 783.48 576.23 784.85 576.40 786.15 C 576.60 787.42 576.88 788.63 577.25 789.80 C 577.62 790.93 578.07 792.00 578.60 793.00 C 579.10 793.97 579.70 794.85 580.40 795.65 C 581.07 796.48 581.80 797.20 582.60 797.80 C 583.40 798.43 584.28 798.97 585.25 799.40 C 586.15 799.83 587.12 800.15 588.15 800.35 C 589.22 800.58 590.30 800.70 591.40 800.70 C 592.50 800.70 593.58 800.58 594.65 800.35 C 595.65 800.15 596.62 799.83 597.55 799.40 C 598.48 798.97 599.35 798.43 600.15 797.80 C 600.95 797.20 601.70 796.48 602.40 795.65 C 603.07 794.85 603.67 793.97 604.20 793.00 C 604.73 792.00 605.18 790.93 605.55 789.80 C 605.92 788.63 606.18 787.42 606.35 786.15 C 606.55 784.85 606.65 783.48 606.65 782.05 C 606.65 780.65 606.55 779.30 606.35 778.00 C 606.18 776.70 605.92 775.48 605.55 774.35 C 605.18 773.22 604.73 772.17 604.20 771.20 C 603.67 770.23 603.07 769.35 602.40 768.55 C 601.70 767.75 600.95 767.05 600.15 766.45 C 599.35 765.82 598.48 765.30 597.55 764.90 C 596.62 764.47 595.65 764.15 594.65 763.95 C 593.58 763.72 592.50 763.60 591.40 763.60 M 581.50 776.00 C 582.00 774.23 582.72 772.72 583.65 771.45 C 584.58 770.18 585.70 769.22 587.00 768.55 C 588.33 767.88 589.80 767.55 591.40 767.55 C 593.00 767.55 594.45 767.88 595.75 768.55 C 597.05 769.22 598.17 770.18 599.10 771.45 C 600.03 772.72 600.75 774.23 601.25 776.00 C 601.75 777.83 602.00 779.85 602.00 782.05 C 602.00 784.25 601.75 786.27 601.25 788.10 C 600.75 789.90 600.03 791.45 599.10 792.75 C 598.17 794.02 597.05 795.00 595.75 795.70 C 594.42 796.40 592.97 796.75 591.40 796.75 C 589.80 796.75 588.33 796.40 587.00 795.70 C 585.70 795.00 584.58 794.02 583.65 792.75 C 582.72 791.45 582.00 789.90 581.50 788.10 C 581.00 786.27 580.75 784.25 580.75 782.05 C 580.75 779.85 581.00 777.83 581.50 776.00 M 555.85 780.20 L 555.85 768.10 L 571.95 768.10 L 571.95 764.25 L 551.35 764.25 L 551.35 800.05 L 555.85 800.05 L 555.85 784.00 L 569.50 784.00 L 569.50 780.20 L 555.85 780.20 M 507.90 768.10 L 518.75 768.10 L 518.75 800.05 L 523.30 800.05 L 523.30 768.10 L 534.10 768.10 L 534.10 764.25 L 507.90 764.25 L 507.90 768.10 M 485.15 763.95 C 484.12 764.15 483.15 764.47 482.25 764.90 C 481.28 765.30 480.40 765.82 479.60 766.45 C 478.80 767.05 478.07 767.75 477.40 768.55 C 476.70 769.35 476.10 770.23 475.60 771.20 C 475.07 772.17 474.62 773.22 474.25 774.35 C 473.88 775.48 473.60 776.70 473.40 778.00 C 473.23 779.30 473.15 780.65 473.15 782.05 C 473.15 783.48 473.23 784.85 473.40 786.15 C 473.60 787.42 473.88 788.63 474.25 789.80 C 474.62 790.93 475.07 792.00 475.60 793.00 C 476.10 793.97 476.70 794.85 477.40 795.65 C 478.07 796.48 478.80 797.20 479.60 797.80 C 480.40 798.43 481.28 798.97 482.25 799.40 C 483.15 799.83 484.12 800.15 485.15 800.35 C 486.22 800.58 487.30 800.70 488.40 800.70 C 489.50 800.70 490.58 800.58 491.65 800.35 C 492.65 800.15 493.62 799.83 494.55 799.40 C 495.48 798.97 496.35 798.43 497.15 797.80 C 497.95 797.20 498.70 796.48 499.40 795.65 C 500.07 794.85 500.67 793.97 501.20 793.00 C 501.73 792.00 502.18 790.93 502.55 789.80 C 502.92 788.63 503.18 787.42 503.35 786.15 C 503.55 784.85 503.65 783.48 503.65 782.05 C 503.65 780.65 503.55 779.30 503.35 778.00 C 503.18 776.70 502.92 775.48 502.55 774.35 C 502.18 773.22 501.73 772.17 501.20 771.20 C 500.67 770.23 500.07 769.35 499.40 768.55 C 498.70 767.75 497.95 767.05 497.15 766.45 C 496.35 765.82 495.48 765.30 494.55 764.90 C 493.62 764.47 492.65 764.15 491.65 763.95 C 490.58 763.72 489.50 763.60 488.40 763.60 C 487.27 763.60 486.18 763.72 485.15 763.95 M 480.65 771.45 C 481.58 770.18 482.70 769.22 484.00 768.55 C 485.33 767.88 486.80 767.55 488.40 767.55 C 490.00 767.55 491.45 767.88 492.75 768.55 C 494.05 769.22 495.17 770.18 496.10 771.45 C 497.03 772.72 497.75 774.23 498.25 776.00 C 498.75 777.83 499.00 779.85 499.00 782.05 C 499.00 784.25 498.75 786.27 498.25 788.10 C 497.75 789.90 497.03 791.45 496.10 792.75 C 495.17 794.02 494.05 795.00 492.75 795.70 C 491.42 796.40 489.97 796.75 488.40 796.75 C 486.80 796.75 485.33 796.40 484.00 795.70 C 482.70 795.00 481.58 794.02 480.65 792.75 C 479.72 791.45 479.00 789.90 478.50 788.10 C 478.00 786.27 477.75 784.25 477.75 782.05 C 477.75 779.85 478.00 777.83 478.50 776.00 C 479.00 774.23 479.72 772.72 480.65 771.45 M 405.15 783.15 L 418.75 783.15 L 418.75 779.35 L 405.15 779.35 L 405.15 768.10 L 421.25 768.10 L 421.25 764.25 L 400.65 764.25 L 400.65 800.05 L 421.80 800.05 L 421.80 796.20 L 405.15 796.20 L 405.15 783.15 M 444.75 764.25 L 440.10 764.25 L 440.10 800.05 L 444.35 800.05 L 444.35 781.30 C 444.35 778.77 444.17 775.03 443.80 770.10 L 444.05 770.10 L 447.85 777.50 L 460.90 800.05 L 465.55 800.05 L 465.55 764.25 L 461.25 764.25 L 461.25 782.90 C 461.48 788.03 461.67 791.80 461.80 794.20 L 461.60 794.20 L 444.75 764.25 M 387.60 765.00 C 386.70 764.57 385.75 764.23 384.75 764.00 C 383.68 763.73 382.55 763.60 381.35 763.60 C 380.18 763.60 379.05 763.72 377.95 763.95 C 376.85 764.15 375.80 764.47 374.80 764.90 C 373.80 765.30 372.88 765.82 372.05 766.45 C 371.15 767.08 370.35 767.78 369.65 768.55 C 368.92 769.38 368.25 770.28 367.65 771.25 C 367.08 772.22 366.60 773.28 366.20 774.45 C 365.80 775.58 365.50 776.80 365.30 778.10 C 365.10 779.40 365.00 780.77 365.00 782.20 C 365.00 783.63 365.10 785.02 365.30 786.35 C 365.50 787.62 365.78 788.83 366.15 790.00 C 366.55 791.13 367.03 792.18 367.60 793.15 C 368.17 794.12 368.80 795.00 369.50 795.80 C 370.23 796.60 371.02 797.30 371.85 797.90 C 372.72 798.50 373.63 799.02 374.60 799.45 C 375.60 799.85 376.63 800.15 377.70 800.35 C 378.77 800.58 379.90 800.70 381.10 800.70 C 382.27 800.70 383.40 800.60 384.50 800.40 C 385.57 800.17 386.58 799.87 387.55 799.50 C 388.48 799.13 389.35 798.70 390.15 798.20 C 390.88 797.70 391.55 797.15 392.15 796.55 L 392.15 781.50 L 380.45 781.50 L 380.45 785.25 L 388.00 785.25 L 388.00 794.65 C 387.30 795.28 386.37 795.78 385.20 796.15 C 384.07 796.55 382.85 796.75 381.55 796.75 L 378.85 796.50 C 377.98 796.30 377.18 796.03 376.45 795.70 C 374.95 795.03 373.70 794.07 372.70 792.80 C 371.67 791.50 370.90 789.95 370.40 788.15 C 369.87 786.35 369.60 784.32 369.60 782.05 C 369.60 780.58 369.88 778.57 370.45 776.00 C 370.98 774.27 371.78 772.77 372.85 771.50 C 373.88 770.20 375.13 769.22 376.60 768.55 C 378.07 767.88 379.68 767.55 381.45 767.55 C 383.15 767.55 384.68 767.88 386.05 768.55 C 387.15 769.12 388.20 769.93 389.20 771.00 L 391.65 768.05 C 390.45 766.75 389.10 765.73 387.60 765.00 M 349.85 764.25 L 344.85 764.25 L 332.70 800.05 L 337.30 800.05 L 340.75 789.10 L 353.80 789.10 L 357.20 800.05 L 362.00 800.05 L 349.85 764.25 M 341.85 785.55 L 343.60 780.05 C 345.10 775.32 346.28 771.28 347.15 767.95 L 347.40 767.95 C 348.80 773.02 350.00 777.05 351.00 780.05 L 352.70 785.55 L 341.85 785.55 M 322.30 764.80 C 320.73 764.43 318.92 764.25 316.85 764.25 L 306.65 764.25 L 306.65 800.05 L 311.15 800.05 L 311.15 785.85 L 317.05 785.85 C 319.05 785.85 320.85 785.63 322.45 785.20 C 324.05 784.73 325.43 784.05 326.60 783.15 C 327.77 782.22 328.67 781.07 329.30 779.70 C 329.93 778.27 330.25 776.63 330.25 774.80 C 330.25 773.50 329.93 771.85 329.30 769.85 C 328.67 768.55 327.75 767.47 326.55 766.60 C 325.42 765.80 324.00 765.20 322.30 764.80 M 320.40 768.30 C 321.63 768.53 322.62 768.92 323.35 769.45 C 324.15 769.98 324.75 770.68 325.15 771.55 C 325.55 772.42 325.75 773.50 325.75 774.80 C 325.75 776.07 325.57 777.17 325.20 778.10 C 324.80 779.03 324.22 779.80 323.45 780.40 C 322.68 781.00 321.73 781.45 320.60 781.75 C 319.43 782.05 318.05 782.20 316.45 782.20 L 311.15 782.20 L 311.15 767.95 L 316.25 767.95 C 317.88 767.95 319.27 768.07 320.40 768.30 M 697.40 764.55 C 696.20 764.35 694.92 764.25 693.55 764.25 L 684.60 764.25 L 684.60 800.05 L 693.75 800.05 C 695.08 800.05 696.35 799.95 697.55 799.75 C 698.75 799.55 699.87 799.25 700.90 798.85 C 701.93 798.45 702.88 797.95 703.75 797.35 C 704.62 796.75 705.42 796.07 706.15 795.30 C 706.85 794.53 707.47 793.67 708.00 792.70 C 708.53 791.77 708.97 790.75 709.30 789.65 C 709.67 788.55 709.95 787.35 710.15 786.05 C 710.32 784.78 710.40 783.45 710.40 782.05 C 710.40 780.65 710.32 779.30 710.15 778.00 C 709.95 776.77 709.67 775.60 709.30 774.50 C 708.93 773.40 708.50 772.38 708.00 771.45 C 707.47 770.48 706.83 769.63 706.10 768.90 C 705.40 768.13 704.60 767.47 703.70 766.90 C 702.83 766.30 701.87 765.82 700.80 765.45 C 699.77 765.05 698.63 764.75 697.40 764.55 M 689.10 767.95 L 693.15 767.95 C 694.55 767.95 696.40 768.27 698.70 768.90 C 699.47 769.20 700.18 769.57 700.85 770.00 C 701.48 770.47 702.07 771.00 702.60 771.60 C 703.67 772.80 704.45 774.27 704.95 776.00 C 705.48 777.77 705.75 779.78 705.75 782.05 C 705.75 784.32 705.48 786.33 704.95 788.10 C 704.45 789.87 703.67 791.35 702.60 792.55 C 702.07 793.18 701.48 793.73 700.85 794.20 C 700.18 794.67 699.47 795.07 698.70 795.40 C 696.40 796.03 694.55 796.35 693.15 796.35 L 689.10 796.35 L 689.10 767.95 M 653.70 781.30 C 653.70 778.77 653.52 775.03 653.15 770.10 L 653.40 770.10 L 657.20 777.50 L 670.25 800.05 L 674.90 800.05 L 674.90 764.25 L 670.60 764.25 L 670.60 782.90 C 670.83 788.03 671.02 791.80 671.15 794.20 L 670.95 794.20 L 654.10 764.25 L 649.45 764.25 L 649.45 800.05 L 653.70 800.05 L 653.70 781.30 Z" fill="#25d6f2" fill-rule="nonzero" group-id="30,83,136" node-id="543" stroke="none" target-height="37.100037" target-width="403.75003" target-x="306.65" target-y="763.6"></path></g></g></g><g node-id="828"><g node-id="881"><g node-id="934"><path d="M 643.05 764.25 L 638.70 764.25 L 638.70 785.45 C 638.70 787.52 638.48 789.32 638.05 790.85 C 637.62 792.25 637.00 793.40 636.20 794.30 C 635.47 795.13 634.57 795.75 633.50 796.15 C 632.53 796.55 631.42 796.75 630.15 796.75 C 628.95 796.75 627.87 796.55 626.90 796.15 C 625.87 795.75 624.98 795.13 624.25 794.30 C 623.48 793.40 622.90 792.25 622.50 790.85 C 622.07 789.32 621.85 787.52 621.85 785.45 L 621.85 764.25 L 617.35 764.25 L 617.60 789.25 C 617.77 790.45 618.00 791.55 618.30 792.55 C 618.63 793.52 619.03 794.40 619.50 795.20 C 619.93 796.00 620.45 796.70 621.05 797.30 C 621.78 798.10 623.13 798.97 625.10 799.90 C 626.57 800.43 628.25 800.70 630.15 800.70 C 632.05 800.70 633.75 800.43 635.25 799.90 L 637.45 798.85 C 638.15 798.42 638.78 797.90 639.35 797.30 C 639.92 796.70 640.43 796.00 640.90 795.20 C 641.37 794.40 641.75 793.52 642.05 792.55 C 642.38 791.55 642.62 790.45 642.75 789.25 L 643.05 785.25 L 643.05 764.25 M 603.35 766.45 C 602.55 765.82 601.68 765.30 600.75 764.90 C 599.82 764.47 598.85 764.15 597.85 763.95 C 596.78 763.72 595.70 763.60 594.60 763.60 C 593.47 763.60 592.38 763.72 591.35 763.95 C 590.32 764.15 589.35 764.47 588.45 764.90 C 587.48 765.30 586.60 765.82 585.80 766.45 C 585.00 767.05 584.27 767.75 583.60 768.55 C 582.90 769.35 582.30 770.23 581.80 771.20 C 581.27 772.17 580.82 773.22 580.45 774.35 C 580.08 775.48 579.80 776.70 579.60 778.00 C 579.43 779.30 579.35 780.65 579.35 782.05 C 579.35 783.48 579.43 784.85 579.60 786.15 C 579.80 787.42 580.08 788.63 580.45 789.80 C 580.82 790.93 581.27 792.00 581.80 793.00 C 582.30 793.97 582.90 794.85 583.60 795.65 C 584.27 796.48 585.00 797.20 585.80 797.80 C 586.60 798.43 587.48 798.97 588.45 799.40 C 589.35 799.83 590.32 800.15 591.35 800.35 C 592.42 800.58 593.50 800.70 594.60 800.70 C 595.70 800.70 596.78 800.58 597.85 800.35 C 598.85 800.15 599.82 799.83 600.75 799.40 C 601.68 798.97 602.55 798.43 603.35 797.80 C 604.15 797.20 604.90 796.48 605.60 795.65 C 606.27 794.85 606.87 793.97 607.40 793.00 C 607.93 792.00 608.38 790.93 608.75 789.80 C 609.12 788.63 609.38 787.42 609.55 786.15 C 609.75 784.85 609.85 783.48 609.85 782.05 C 609.85 780.65 609.75 779.30 609.55 778.00 C 609.38 776.70 609.12 775.48 608.75 774.35 C 608.38 773.22 607.93 772.17 607.40 771.20 C 606.87 770.23 606.27 769.35 605.60 768.55 C 604.90 767.75 604.15 767.05 603.35 766.45 M 584.70 776.00 C 585.20 774.23 585.92 772.72 586.85 771.45 C 587.78 770.18 588.90 769.22 590.20 768.55 C 591.53 767.88 593.00 767.55 594.60 767.55 C 596.20 767.55 597.65 767.88 598.95 768.55 C 600.25 769.22 601.37 770.18 602.30 771.45 C 603.23 772.72 603.95 774.23 604.45 776.00 C 604.95 777.83 605.20 779.85 605.20 782.05 C 605.20 784.25 604.95 786.27 604.45 788.10 C 603.95 789.90 603.23 791.45 602.30 792.75 C 601.37 794.02 600.25 795.00 598.95 795.70 C 597.62 796.40 596.17 796.75 594.60 796.75 C 593.00 796.75 591.53 796.40 590.20 795.70 C 588.90 795.00 587.78 794.02 586.85 792.75 C 585.92 791.45 585.20 789.90 584.70 788.10 C 584.20 786.27 583.95 784.25 583.95 782.05 C 583.95 779.85 584.20 777.83 584.70 776.00 M 559.05 780.20 L 559.05 768.10 L 575.15 768.10 L 575.15 764.25 L 554.55 764.25 L 554.55 800.05 L 559.05 800.05 L 559.05 784.00 L 572.70 784.00 L 572.70 780.20 L 559.05 780.20 M 511.10 768.10 L 521.95 768.10 L 521.95 800.05 L 526.50 800.05 L 526.50 768.10 L 537.30 768.10 L 537.30 764.25 L 511.10 764.25 L 511.10 768.10 M 447.55 781.30 C 447.55 778.77 447.37 775.03 447.00 770.10 L 447.25 770.10 L 451.05 777.50 L 464.10 800.05 L 468.75 800.05 L 468.75 764.25 L 464.45 764.25 L 464.45 782.90 C 464.68 788.03 464.87 791.80 465.00 794.20 L 464.80 794.20 L 447.95 764.25 L 443.30 764.25 L 443.30 800.05 L 447.55 800.05 L 447.55 781.30 M 485.45 764.90 C 484.48 765.30 483.60 765.82 482.80 766.45 C 482.00 767.05 481.27 767.75 480.60 768.55 C 479.90 769.35 479.30 770.23 478.80 771.20 C 478.27 772.17 477.82 773.22 477.45 774.35 C 477.08 775.48 476.80 776.70 476.60 778.00 C 476.43 779.30 476.35 780.65 476.35 782.05 C 476.35 783.48 476.43 784.85 476.60 786.15 C 476.80 787.42 477.08 788.63 477.45 789.80 C 477.82 790.93 478.27 792.00 478.80 793.00 C 479.30 793.97 479.90 794.85 480.60 795.65 C 481.27 796.48 482.00 797.20 482.80 797.80 C 483.60 798.43 484.48 798.97 485.45 799.40 C 486.35 799.83 487.32 800.15 488.35 800.35 C 489.42 800.58 490.50 800.70 491.60 800.70 C 492.70 800.70 493.78 800.58 494.85 800.35 C 495.85 800.15 496.82 799.83 497.75 799.40 C 498.68 798.97 499.55 798.43 500.35 797.80 C 501.15 797.20 501.90 796.48 502.60 795.65 C 503.27 794.85 503.87 793.97 504.40 793.00 C 504.93 792.00 505.38 790.93 505.75 789.80 C 506.12 788.63 506.38 787.42 506.55 786.15 C 506.75 784.85 506.85 783.48 506.85 782.05 C 506.85 780.65 506.75 779.30 506.55 778.00 C 506.38 776.70 506.12 775.48 505.75 774.35 C 505.38 773.22 504.93 772.17 504.40 771.20 C 503.87 770.23 503.27 769.35 502.60 768.55 C 501.90 767.75 501.15 767.05 500.35 766.45 C 499.55 765.82 498.68 765.30 497.75 764.90 C 496.82 764.47 495.85 764.15 494.85 763.95 C 493.78 763.72 492.70 763.60 491.60 763.60 C 490.47 763.60 489.38 763.72 488.35 763.95 C 487.32 764.15 486.35 764.47 485.45 764.90 M 481.70 776.00 C 482.20 774.23 482.92 772.72 483.85 771.45 C 484.78 770.18 485.90 769.22 487.20 768.55 C 488.53 767.88 490.00 767.55 491.60 767.55 C 493.20 767.55 494.65 767.88 495.95 768.55 C 497.25 769.22 498.37 770.18 499.30 771.45 C 500.23 772.72 500.95 774.23 501.45 776.00 C 501.95 777.83 502.20 779.85 502.20 782.05 C 502.20 784.25 501.95 786.27 501.45 788.10 C 500.95 789.90 500.23 791.45 499.30 792.75 C 498.37 794.02 497.25 795.00 495.95 795.70 C 494.62 796.40 493.17 796.75 491.60 796.75 C 490.00 796.75 488.53 796.40 487.20 795.70 C 485.90 795.00 484.78 794.02 483.85 792.75 C 482.92 791.45 482.20 789.90 481.70 788.10 C 481.20 786.27 480.95 784.25 480.95 782.05 C 480.95 779.85 481.20 777.83 481.70 776.00 M 424.45 768.10 L 424.45 764.25 L 403.85 764.25 L 403.85 800.05 L 425.00 800.05 L 425.00 796.20 L 408.35 796.20 L 408.35 783.15 L 421.95 783.15 L 421.95 779.35 L 408.35 779.35 L 408.35 768.10 L 424.45 768.10 M 390.80 765.00 C 389.90 764.57 388.95 764.23 387.95 764.00 C 386.88 763.73 385.75 763.60 384.55 763.60 C 383.38 763.60 382.25 763.72 381.15 763.95 C 380.05 764.15 379.00 764.47 378.00 764.90 C 377.00 765.30 376.08 765.82 375.25 766.45 C 374.35 767.08 373.55 767.78 372.85 768.55 C 372.12 769.38 371.45 770.28 370.85 771.25 C 370.28 772.22 369.80 773.28 369.40 774.45 C 369.00 775.58 368.70 776.80 368.50 778.10 C 368.30 779.40 368.20 780.77 368.20 782.20 C 368.20 783.63 368.30 785.02 368.50 786.35 C 368.70 787.62 368.98 788.83 369.35 790.00 C 369.75 791.13 370.23 792.18 370.80 793.15 C 371.37 794.12 372.00 795.00 372.70 795.80 C 373.43 796.60 374.22 797.30 375.05 797.90 C 375.92 798.50 376.83 799.02 377.80 799.45 C 378.80 799.85 379.83 800.15 380.90 800.35 C 381.97 800.58 383.10 800.70 384.30 800.70 C 385.47 800.70 386.60 800.60 387.70 800.40 C 388.77 800.17 389.78 799.87 390.75 799.50 C 391.68 799.13 392.55 798.70 393.35 798.20 C 394.08 797.70 394.75 797.15 395.35 796.55 L 395.35 781.50 L 383.65 781.50 L 383.65 785.25 L 391.20 785.25 L 391.20 794.65 C 390.50 795.28 389.57 795.78 388.40 796.15 C 387.27 796.55 386.05 796.75 384.75 796.75 L 382.05 796.50 C 381.18 796.30 380.38 796.03 379.65 795.70 C 378.15 795.03 376.90 794.07 375.90 792.80 C 374.87 791.50 374.10 789.95 373.60 788.15 C 373.07 786.35 372.80 784.32 372.80 782.05 C 372.80 780.58 373.08 778.57 373.65 776.00 C 374.18 774.27 374.98 772.77 376.05 771.50 C 377.08 770.20 378.33 769.22 379.80 768.55 C 381.27 767.88 382.88 767.55 384.65 767.55 C 386.35 767.55 387.88 767.88 389.25 768.55 C 390.35 769.12 391.40 769.93 392.40 771.00 L 394.85 768.05 C 393.65 766.75 392.30 765.73 390.80 765.00 M 353.05 764.25 L 348.05 764.25 L 335.90 800.05 L 340.50 800.05 L 343.95 789.10 L 357.00 789.10 L 360.40 800.05 L 365.20 800.05 L 353.05 764.25 M 345.05 785.55 L 346.80 780.05 C 348.30 775.32 349.48 771.28 350.35 767.95 L 350.60 767.95 C 352.00 773.02 353.20 777.05 354.20 780.05 L 355.90 785.55 L 345.05 785.55 M 320.05 764.25 L 309.85 764.25 L 309.85 800.05 L 314.35 800.05 L 314.35 785.85 L 320.25 785.85 C 322.25 785.85 324.05 785.63 325.65 785.20 C 327.25 784.73 328.63 784.05 329.80 783.15 C 330.97 782.22 331.87 781.07 332.50 779.70 C 333.13 778.27 333.45 776.63 333.45 774.80 C 333.45 773.50 333.13 771.85 332.50 769.85 C 331.87 768.55 330.95 767.47 329.75 766.60 C 328.62 765.80 327.20 765.20 325.50 764.80 C 323.93 764.43 322.12 764.25 320.05 764.25 M 319.65 782.20 L 314.35 782.20 L 314.35 767.95 L 319.45 767.95 C 321.08 767.95 322.47 768.07 323.60 768.30 C 324.83 768.53 325.82 768.92 326.55 769.45 C 327.35 769.98 327.95 770.68 328.35 771.55 C 328.75 772.42 328.95 773.50 328.95 774.80 C 328.95 776.07 328.77 777.17 328.40 778.10 C 328.00 779.03 327.42 779.80 326.65 780.40 C 325.88 781.00 324.93 781.45 323.80 781.75 C 322.63 782.05 321.25 782.20 319.65 782.20 M 700.60 764.55 C 699.40 764.35 698.12 764.25 696.75 764.25 L 687.80 764.25 L 687.80 800.05 L 696.95 800.05 C 698.28 800.05 699.55 799.95 700.75 799.75 C 701.95 799.55 703.07 799.25 704.10 798.85 C 705.13 798.45 706.08 797.95 706.95 797.35 C 707.82 796.75 708.62 796.07 709.35 795.30 C 710.05 794.53 710.67 793.67 711.20 792.70 C 711.73 791.77 712.17 790.75 712.50 789.65 C 712.87 788.55 713.15 787.35 713.35 786.05 C 713.52 784.78 713.60 783.45 713.60 782.05 C 713.60 780.65 713.52 779.30 713.35 778.00 C 713.15 776.77 712.87 775.60 712.50 774.50 C 712.13 773.40 711.70 772.38 711.20 771.45 C 710.67 770.48 710.03 769.63 709.30 768.90 C 708.60 768.13 707.80 767.47 706.90 766.90 C 706.03 766.30 705.07 765.82 704.00 765.45 C 702.97 765.05 701.83 764.75 700.60 764.55 M 705.80 771.60 C 706.87 772.80 707.65 774.27 708.15 776.00 C 708.68 777.77 708.95 779.78 708.95 782.05 C 708.95 784.32 708.68 786.33 708.15 788.10 C 707.65 789.87 706.87 791.35 705.80 792.55 C 705.27 793.18 704.68 793.73 704.05 794.20 C 703.38 794.67 702.67 795.07 701.90 795.40 C 699.60 796.03 697.75 796.35 696.35 796.35 L 692.30 796.35 L 692.30 767.95 L 696.35 767.95 C 697.75 767.95 699.60 768.27 701.90 768.90 C 702.67 769.20 703.38 769.57 704.05 770.00 C 704.68 770.47 705.27 771.00 705.80 771.60 M 656.90 781.30 C 656.90 778.77 656.72 775.03 656.35 770.10 L 656.60 770.10 L 660.40 777.50 L 673.45 800.05 L 678.10 800.05 L 678.10 764.25 L 673.80 764.25 L 673.80 782.90 C 674.03 788.03 674.22 791.80 674.35 794.20 L 674.15 794.20 L 657.30 764.25 L 652.65 764.25 L 652.65 800.05 L 656.90 800.05 L 656.90 781.30 Z" fill="#ffffff" fill-rule="nonzero" group-id="31,84,137" node-id="554" stroke="none" target-height="37.100037" target-width="403.74997" target-x="309.85" target-y="763.6"></path></g></g></g><g node-id="829"><g node-id="882"><g node-id="935"><path d="M 573.40 714.20 L 573.40 580.95 L 437.20 580.95 L 437.20 714.20 L 573.40 714.20 M 483.15 696.25 L 483.15 598.45 L 526.85 598.45 L 526.85 696.25 L 483.15 696.25 M 269.90 673.45 L 269.90 690.70 L 349.35 690.70 L 349.35 714.20 L 392.80 714.20 L 392.80 690.70 L 406.30 690.70 L 418.70 673.45 L 392.80 673.45 L 392.80 580.95 L 354.20 580.95 L 269.90 673.45 M 349.35 615.55 L 349.35 673.45 L 296.55 673.45 L 349.35 615.55 M 714.85 580.95 L 676.25 580.95 L 591.95 673.45 L 591.95 690.70 L 671.40 690.70 L 671.40 714.20 L 714.85 714.20 L 714.85 690.70 L 728.35 690.70 L 740.75 673.45 L 714.85 673.45 L 714.85 580.95 M 671.40 615.55 L 671.40 673.45 L 618.60 673.45 L 671.40 615.55 Z" fill="#ffffff" fill-rule="nonzero" group-id="32,85,138" node-id="565" stroke="none" target-height="133.25" target-width="470.85" target-x="269.9" target-y="580.95"></path></g></g></g><g node-id="830"><g node-id="883"><g node-id="936"><path d="M 293.86 590.99 L 293.86 605.10 L 384.96 605.10 L 384.96 590.99 L 293.86 590.99 Z" fill="#ffffff" fill-rule="nonzero" group-id="33,86,139" node-id="576" stroke="none" target-height="14.109985" target-width="91.100006" target-x="293.86" target-y="590.99"></path></g></g></g><g node-id="831"><g node-id="884"><g node-id="937"><path d="M 293.86 641.29 L 293.86 655.40 L 353.66 655.40 L 353.66 641.29 L 293.86 641.29 Z" fill="#ffffff" fill-rule="nonzero" group-id="34,87,140" node-id="587" stroke="none" target-height="14.110046" target-width="59.80002" target-x="293.86" target-y="641.29"></path></g></g></g><g node-id="832"><g node-id="885"><g node-id="938"><path d="M 332.74 698.31 L 332.74 684.20 L 273.03 684.20 L 273.03 698.31 L 332.74 698.31 Z" fill="#ffffff" fill-rule="nonzero" group-id="35,88,141" node-id="598" stroke="none" target-height="14.109985" target-width="59.70999" target-x="273.03" target-y="684.2"></path></g></g></g><g node-id="833"><g node-id="886"><g node-id="939"><path d="M 772.49 597.99 L 772.49 583.88 L 712.78 583.88 L 712.78 597.99 L 772.49 597.99 Z" fill="#ffffff" fill-rule="nonzero" group-id="36,89,142" node-id="609" stroke="none" target-height="14.109985" target-width="59.70996" target-x="712.78" target-y="583.88"></path></g></g></g><g node-id="834"><g node-id="887"><g node-id="940"><path d="M 814.82 655.40 L 755.02 655.40 L 755.02 669.51 L 814.82 669.51 L 814.82 655.40 Z" fill="#ffffff" fill-rule="nonzero" group-id="37,90,143" node-id="620" stroke="none" target-height="14.109985" target-width="59.799988" target-x="755.02" target-y="655.4"></path></g></g></g><g node-id="835"><g node-id="888"><g node-id="941"><path d="M 805.61 737.47 L 805.61 723.36 L 745.90 723.36 L 745.90 737.47 L 805.61 737.47 Z" fill="#ffffff" fill-rule="nonzero" group-id="38,91,144" node-id="631" stroke="none" target-height="14.109985" target-width="59.70996" target-x="745.9" target-y="723.36"></path></g></g></g><g node-id="836"><g node-id="889"><g node-id="942"><path d="M 757.80 629.58 L 757.80 615.46 L 698.00 615.46 L 698.00 629.58 L 757.80 629.58 Z" fill="#ff4363" fill-rule="nonzero" group-id="39,92,145" node-id="642" stroke="none" target-height="14.119995" target-width="59.799988" target-x="698" target-y="615.46"></path></g></g></g><g node-id="837"><g node-id="890"><g node-id="943"><path d="M 584.72 593.29 L 584.72 607.40 L 644.53 607.40 L 644.53 593.29 L 584.72 593.29 Z" fill="#ff4363" fill-rule="nonzero" group-id="40,93,146" node-id="653" stroke="none" target-height="14.110046" target-width="59.81006" target-x="584.72" target-y="593.29"></path></g></g></g><g node-id="838"><g node-id="891"><g node-id="944"><path d="M 306.91 615.46 L 306.91 629.58 L 366.62 629.58 L 366.62 615.46 L 306.91 615.46 Z" fill="#25d6f2" fill-rule="nonzero" group-id="41,94,147" node-id="664" stroke="none" target-height="14.119995" target-width="59.70999" target-x="306.91" target-y="615.46"></path></g></g></g><g node-id="839"><g node-id="892"><g node-id="945"><path d="M 356.93 728.84 L 356.93 742.95 L 416.73 742.95 L 416.73 728.84 L 356.93 728.84 Z" fill="#25d6f2" fill-rule="nonzero" group-id="42,95,148" node-id="675" stroke="none" target-height="14.109985" target-width="59.80002" target-x="356.93" target-y="728.84"></path></g></g></g><g node-id="840"><g node-id="893"><g node-id="946"><path d="M 453.59 615.46 L 453.59 629.58 L 513.40 629.58 L 513.40 615.46 L 453.59 615.46 Z" fill="#25d6f2" fill-rule="nonzero" group-id="43,96,149" node-id="686" stroke="none" target-height="14.119995" target-width="59.810028" target-x="453.59" target-y="615.46"></path></g></g></g><g node-id="841"><g node-id="894"><g node-id="947"><path d="M 133.29 277.27 L 56.49 277.27 L 56.49 303.00 L 133.29 303.00 L 133.29 277.27 Z" fill="#ffffff" fill-rule="nonzero" group-id="44,97,150" node-id="697" stroke="none" target-height="25.730011" target-width="76.79999" target-x="56.49" target-y="277.27"></path></g></g></g><g node-id="842"><g node-id="895"><g node-id="948"><path d="M 933.21 473.39 L 818.69 473.39 L 818.69 499.12 L 933.21 499.12 L 933.21 473.39 Z" fill="#ffffff" fill-rule="nonzero" group-id="45,98,151" node-id="708" stroke="none" target-height="25.72998" target-width="114.52002" target-x="818.69" target-y="473.39"></path></g></g></g><g node-id="843"><g node-id="896"><g node-id="949"><path d="M 171.68 785.95 L 171.68 760.23 L 77.80 760.23 L 77.80 785.95 L 171.68 785.95 Z" fill="#ffffff" fill-rule="nonzero" group-id="46,99,152" node-id="719" stroke="none" target-height="25.720032" target-width="93.87999" target-x="77.8" target-y="760.23"></path></g></g></g><g node-id="844"><g node-id="897"><g node-id="950"><path d="M 905.09 390.84 L 905.09 376.15 L 839.72 376.15 L 839.72 390.84 L 905.09 390.84 Z" fill="#ff4363" fill-rule="nonzero" group-id="47,100,153" node-id="730" stroke="none" target-height="14.690002" target-width="65.370056" target-x="839.72" target-y="376.15"></path></g></g></g><g node-id="845"><g node-id="898"><g node-id="951"><path d="M 166.02 431.09 L 166.02 416.40 L 100.65 416.40 L 100.65 431.09 L 166.02 431.09 Z" fill="#ffb4c0" fill-rule="nonzero" group-id="48,101,154" node-id="741" stroke="none" target-height="14.690002" target-width="65.37" target-x="100.65" target-y="416.4"></path></g></g></g><g node-id="846"><g node-id="899"><g node-id="952"><path d="M 931.63 788.79 L 931.63 774.10 L 866.35 774.10 L 866.35 788.79 L 931.63 788.79 Z" fill="#ffb4c0" fill-rule="nonzero" group-id="49,102,155" node-id="752" stroke="none" target-height="14.690002" target-width="65.28003" target-x="866.35" target-y="774.1"></path></g></g></g><g node-id="847"><g node-id="900"><g node-id="953"><path d="M 967.49 637.26 L 967.49 621.80 L 899.04 621.80 L 899.04 637.26 L 967.49 637.26 Z" fill="#25d6f2" fill-rule="nonzero" group-id="50,103,156" node-id="763" stroke="none" target-height="15.460022" target-width="68.45001" target-x="899.04" target-y="621.8"></path></g></g></g><g node-id="848"><g node-id="901"><g node-id="954"><path d="M 829.64 284.95 L 829.64 269.59 L 761.10 269.59 L 761.10 284.95 L 829.64 284.95 Z" fill="#25d6f2" fill-rule="nonzero" group-id="51,104,157" node-id="774" stroke="none" target-height="15.360016" target-width="68.54004" target-x="761.1" target-y="269.59"></path></g></g></g><g node-id="849"><g node-id="902"><g node-id="955"><path d="M 83.94 585.61 L 83.94 601.07 L 152.48 601.07 L 152.48 585.61 L 83.94 585.61 Z" fill="#25d6f2" fill-rule="nonzero" group-id="52,105,158" node-id="785" stroke="none" target-height="15.460022" target-width="68.53999" target-x="83.94" target-y="585.61"></path></g></g></g><path d="M 283.09 348.66 L 283.09 333.30 L 214.55 333.30 L 214.55 348.66 L 283.09 348.66 Z" fill="#a8effa" fill-rule="nonzero" group-id="53,106,159" node-id="796" stroke="none" target-height="15.360016" target-width="68.53999" target-x="214.55" target-y="333.3"></path></svg>