<?xml version="1.0" standalone="no"?><!DOCTYPE svg PUBLIC "-//W3C//DTD SVG 1.1//EN" "http://www.w3.org/Graphics/SVG/1.1/DTD/svg11.dtd"><svg t="1691473376838" class="icon" viewBox="0 0 1024 1024" version="1.1" xmlns="http://www.w3.org/2000/svg" p-id="2334" xmlns:xlink="http://www.w3.org/1999/xlink" width="128" height="128"><path d="M86.642777 799.037178c-13.156546-22.418061-21.812168-37.478844-25.966866-45.528572a511.980049 511.980049 0 1 1 188.346338 197.694409l-24.06263-14.108664-125.246852 34.622489a38.430962 38.430962 0 0 1-47.173141-47.173141z m77.9006 4.500924l-20.686937 75.996362 75.996362-20.773493a38.517518 38.517518 0 0 1 29.429115 3.89503l38.777187 22.67773a434.771899 434.771899 0 1 0-160.302121-168.092182c4.414367 8.655622 15.493564 27.351766 32.804807 56.694325a38.084737 38.084737 0 0 1 3.981587 29.602228z m175.189791-84.911653a38.387684 38.387684 0 1 1 49.077378-59.031343 192.154811 192.154811 0 0 0 245.300331 0 38.387684 38.387684 0 0 1 49.077377 59.031343 268.324286 268.324286 0 0 1-343.455086 0z m0 0" fill="#bfbfbf" p-id="2335"></path></svg>