<?xml version="1.0" standalone="no"?><!DOCTYPE svg PUBLIC "-//W3C//DTD SVG 1.1//EN" "http://www.w3.org/Graphics/SVG/1.1/DTD/svg11.dtd"><svg t="1693487405305" class="icon" viewBox="0 0 1024 1024" version="1.1" xmlns="http://www.w3.org/2000/svg" p-id="7441" data-spm-anchor-id="a313x.search_index.0.i8.25d33a81lMvpBq" xmlns:xlink="http://www.w3.org/1999/xlink" width="128" height="128"><path d="M512 0a512 512 0 1 0 512 512A512.565746 512.565746 0 0 0 512 0z m0 991.045304A479.045304 479.045304 0 1 1 991.045304 512 479.752486 479.752486 0 0 1 512 991.045304z" fill="#fafafa" p-id="7442"></path><path d="M479.752486 106.925967a16.40663 16.40663 0 0 0-18.38674-14.143647c-254.585635 31.540331-344.539227 280.751381-345.529282 282.872929a16.548066 16.548066 0 0 0 10.183426 21.074033 18.669613 18.669613 0 0 0 5.516022 0.848619 16.265193 16.265193 0 0 0 15.416574-10.890608c0.848619-2.262983 84.861878-232.38011 318.373481-261.374586a16.689503 16.689503 0 0 0 14.426519-18.38674z" fill="#fafafa" p-id="7443"></path><path d="M512 296.026519a217.812155 217.812155 0 1 0 217.812155 217.812155 217.670718 217.670718 0 0 0-217.812155-217.812155z m0 410.165746a192.353591 192.353591 0 1 1 192.353591-192.353591 192.353591 192.353591 0 0 1-192.353591 192.353591z" fill="#fafafa" p-id="7444"></path></svg>