<?xml version="1.0" standalone="no"?><!DOCTYPE svg PUBLIC "-//W3C//DTD SVG 1.1//EN" "http://www.w3.org/Graphics/SVG/1.1/DTD/svg11.dtd"><svg t="1688459923916" class="icon" viewBox="0 0 1024 1024" version="1.1" xmlns="http://www.w3.org/2000/svg" p-id="4270" xmlns:xlink="http://www.w3.org/1999/xlink" width="128" height="128"><path d="M512 53.426087C258.637913 53.426087 53.426087 258.13927 53.426087 510.886957S258.637913 968.347826 512 968.347826s458.573913-204.713183 458.573913-457.460869S765.362087 53.426087 512 53.426087z" fill="#000000" p-id="4271"></path><path d="M1024 512c0 282.655165-229.213496 512-511.913183 512C229.213496 1024 0 794.824348 0 512S229.213496 0 512.086817 0C794.786504 0.171409 1024 229.344835 1024 512z" fill="#000000" opacity=".047" p-id="4272"></path><path d="M995.06087 512c0 266.678539-216.25767 483.06087-482.980731 483.06087C245.194574 995.06087 28.93913 778.841043 28.93913 512S245.1968 28.93913 512.080139 28.93913C778.8032 29.101635 995.06087 245.321461 995.06087 512z" fill="#000000" opacity=".149" p-id="4273"></path><path d="M298.295652 512a214.817391 213.704348 0 1 0 429.634783 0 214.817391 213.704348 0 1 0-429.634783 0Z" fill="#FFFFFF" p-id="4274"></path><path d="M589.913043 430.12007c0-5.738852-4.90407-10.139826-10.362434-9.282783l-100.694818 15.845287c-4.182817 0.667826-7.279304 4.407652-7.279304 8.813078v104.648348a27.19833 27.19833 0 0 0-10.101983-1.93447c-15.117357 0-27.387548 12.321391-27.387547 27.525566 0 15.213078 12.263513 27.53447 27.387547 27.534469 15.126261 0 27.376417-12.308035 27.376418-27.514435 0-0.476383-0.022261-0.954991-0.044522-1.4336h0.044522v-95.49913l83.767652-13.191791v67.13433a27.425391 27.425391 0 0 0-10.1376-1.947826c-15.168557 0-27.429843 12.321391-27.429844 27.525565 0 15.213078 12.283548 27.536696 27.429844 27.536696 15.141843 0 27.43207-12.323617 27.432069-27.536696 0-0.743513-0.044522-1.491478-0.084591-2.241669v-93.17287l0.084591-0.020035v-32.788034z" fill="#1676FF" p-id="4275"></path></svg>