<?xml version="1.0" standalone="no"?><!DOCTYPE svg PUBLIC "-//W3C//DTD SVG 1.1//EN" "http://www.w3.org/Graphics/SVG/1.1/DTD/svg11.dtd"><svg t="1696832630768" class="icon" viewBox="0 0 1024 1024" version="1.1" xmlns="http://www.w3.org/2000/svg" p-id="15731" xmlns:xlink="http://www.w3.org/1999/xlink" width="128" height="128"><path d="M330.285112 743.643663H207.925687s6.446371-7.905927 6.446372-54.125193c0-51.935859-29.191115-56.557786-29.191116-124.427129 0-53.273785 20.068892-76.383418 20.068892-123.210833 0-40.745932-16.420002-80.883715-16.420002-80.883715H330.285112s-21.893337 155.19943-21.893336 201.297066 21.893337 181.349804 21.893336 181.349804zM891.605934 743.643663l-98.520014 3.040741s-21.285188 1.824445-21.285188-44.394821c0-51.935859 28.582967-69.328899 28.582967-137.076612 0-53.273785-29.799264-82.464901-29.799264-129.292315 0-40.745932 10.33852-74.802233 10.33852-74.802233h110.682979s22.258225 155.19943 22.258226 201.297066-22.258225 181.228174-22.258226 181.228174z" fill="#78C6FF" p-id="15732"></path><path d="M945.00135 82.100012H79.119891c-34.54282 0-62.639268 28.096449-62.639268 62.639268v595.742012c0 34.54282 28.096449 62.639268 62.639268 62.639269h47.070673c2.797482 8.757335 8.027557 17.514669 15.933484 25.663855 1.946074 1.946074 4.378667 3.40563 7.05452 4.135408 78.572752 20.312151 98.033496 45.611118 102.655422 58.868749 5.108445 14.717187-3.40563 26.515263-3.892149 27.245041-5.108445 6.568001-3.892149 15.811854 2.554223 20.9203 6.568001 5.230075 15.933484 4.135408 21.163558-2.432593 7.05452-9.000594 17.028151-30.650671 8.878965-54.976601C269.348659 849.583086 229.210876 823.432712 161.219903 805.188265c-5.594964-6.689631-7.419408-12.284594-7.419409-16.784892v-0.121629c0-5.959853 3.770519-12.041335 10.58178-17.27141 0.243259-0.12163 0.486519-0.243259 0.608148-0.486519 1.946074-1.459556 4.135408-2.797482 6.568001-4.135408 0.608148-0.364889 1.094667-0.608148 1.702815-0.851407 2.919112-1.459556 6.203112-2.554223 9.487112-3.770519 5.230075-1.216296 14.717187-2.919112 29.677634-2.919112 26.272004 0 56.922675 5.230075 91.100606 15.203706 5.716593 2.554223 11.433187 5.108445 17.14978 8.149186 1.702815 0.973037 3.52726 1.946074 5.230075 2.919112 7.297779 4.013778 14.473928 8.514075 21.771707 13.500891 0.608148 0.486519 1.216296 0.729778 1.824445 1.216296 114.818387 80.640456 102.047274 121.386388 102.168903 121.386388-3.892149 7.297779-1.094667 16.420002 6.203112 20.312151 2.189334 1.216296 4.621927 1.702815 7.05452 1.702815 5.351704 0 10.581779-2.919112 13.257631-8.027556 4.743556-8.878964 20.433781-53.881934-74.802233-132.089797h265.76078C573.787666 881.450053 589.477891 926.453023 594.221447 935.331987c2.797482 5.230075 8.149186 8.270816 13.74415 8.270816 2.310963 0 4.621927-0.486519 6.689631-1.702815 7.297779-3.892149 10.33852-12.527854 6.446371-19.825632-0.12163-0.364889-13.62252-41.110821 101.804015-122.116166 8.027557-5.594964 16.055113-10.46015 24.08267-14.960447 1.459556-0.851408 2.919112-1.702815 4.378667-2.432593 5.959853-3.162371 11.919705-5.838223 17.879558-8.514075 34.056301-9.973631 64.585343-15.203706 90.857347-15.203706 14.960447 0 24.447559 1.702815 29.556004 2.919112 3.284 1.216296 6.689631 2.310963 9.608742 3.770519 0.608148 0.243259 1.094667 0.486519 1.581186 0.729778 2.554223 1.337926 4.865186 2.797482 6.932889 4.378667 0.12163 0.12163 0.243259 0.12163 0.24326 0.121629 6.93289 5.230075 10.703409 11.311557 10.703409 17.39304v0.243259c0 4.500297-1.824445 9.973631-7.419409 16.663262-68.112602 18.244447-108.250386 44.394821-119.318684 77.599715-8.149186 24.325929 1.824445 45.976007 8.878965 54.9766 5.230075 6.568001 14.595558 7.662668 21.041929 2.432593 6.568001-5.108445 7.662668-14.595558 2.432592-21.041929-0.12163-0.12163-8.878964-11.919705-3.892148-26.758522 4.500297-13.379261 23.717781-38.799857 102.777052-59.233638 2.675852-0.729778 5.108445-2.189334 7.054519-4.135408 7.905927-8.149186 13.136002-16.906521 15.933484-25.785485 33.934672-0.729778 61.301342-28.461337 61.301342-62.517639V144.86091c0.12163-34.54282-27.974819-62.760898-62.517638-62.760898z m-769.06426 288.262264H309.608072c5.594964 19.825632 15.325336 70.301936-7.297778 134.035871l-1.581186 4.500297c-10.946668 30.529041-24.569189 68.477491 5.716594 146.806984 18.487706 47.800451 7.176149 75.045492-0.608149 86.721939h-0.121629c-1.337926-0.486519-2.675852-0.973037-4.013779-1.581186-17.879558-6.81126-35.272598-11.068298-51.57097-13.257631-1.459556-0.243259-2.797482-0.364889-4.257038-0.608149-7.662668-0.851408-15.082076-1.337926-22.379855-1.337926-1.581185 0-3.162371 0.12163-4.743556 0.12163-5.959853 0.12163-11.798076 0.608148-17.27141 1.216296-1.459556 0.12163-2.919112 0.243259-4.378667 0.486519-1.216296 0.12163-2.310963 0.486519-3.40563 0.608148 5.230075-24.934078 8.757335-61.666231-7.541039-86.23542-17.514669-26.515263-21.650077-108.128756-0.364888-169.673357 9.000594-26.515263-2.067704-74.437344-9.852002-101.804015zM766.205768 655.583799c30.285782-78.451122 16.663262-116.399572 5.594964-146.928614l-1.581186-4.378668c-22.623114-63.733935-12.892743-114.210239-7.297778-134.035871h133.670982c-7.784297 27.366671-18.852595 75.288752-9.730372 101.925645 21.285188 61.666231 17.14978 143.279724-0.243259 169.673357-16.420002 24.690818-12.892743 61.301342-7.662668 86.23542-1.216296-0.243259-2.310963-0.486519-3.40563-0.608148-0.973037-0.12163-1.946074-0.243259-3.040741-0.364889-6.203112-0.851408-12.771113-1.337926-19.582373-1.459556-0.851408 0-1.824445-0.12163-2.675853-0.121629-25.055707-0.12163-53.517045 4.865186-83.437938 16.784891-7.662668-11.554816-19.095855-38.799857-0.608148-86.721938z m211.392327 85.019123c0 17.514669-13.987409 31.866968-31.380449 32.596745-2.067704-5.716593-5.230075-11.311557-9.608742-16.541632-0.608148-0.729778-1.337926-1.337926-2.067704-2.067704l-0.729778-0.729777c-2.189334-2.310963-4.743556-4.500297-7.419409-6.568001-0.851408-0.608148-1.702815-1.337926-2.675852-1.946075-2.189334-1.459556-4.500297-2.919112-6.93289-4.257037-0.973037-0.608148-1.946074-1.337926-2.919111-1.824445-0.364889-0.12163-0.729778-0.243259-1.094667-0.486519 0 0-0.12163 0-0.12163-0.121629-5.716593-19.217484-14.230669-60.693194-1.094666-80.275568 24.934078-37.705191 26.758522-129.292315 3.648889-196.066991-6.203112-18.001188 3.40563-62.274379 12.649483-92.073643h5.838223c8.270816 0 14.960447-6.689631 14.960447-14.960446 0-8.270816-6.689631-14.960447-14.960447-14.960447h-194.607435c-8.270816 0-14.960447 6.689631-14.960447 14.960447 0 5.838223 3.40563 10.703409 8.270816 13.257631-6.81126 26.758522-13.987409 79.545789 9.487113 145.833947l1.581185 4.500297c9.730372 27.123411 20.920299 57.895712-5.351704 125.765055-21.285188 55.09823-10.095261 90.978976 1.216296 110.196461-9.973631 5.351704-20.068892 11.311557-30.285782 18.244447h-345.428198c-0.973037-0.608148-1.946074-1.094667-2.919112-1.824445-8.270816-5.473334-16.420002-10.46015-24.569188-14.960447-0.973037-0.486519-1.946074-1.216296-3.040742-1.702815 11.311557-19.217484 22.501485-55.09823 1.216297-110.07483-26.272004-67.869343-15.203706-98.520014-5.473334-125.643426l1.702815-4.621927c23.474522-66.288158 16.298373-119.075425 9.487112-145.833947 4.865186-2.554223 8.270816-7.419408 8.270816-13.257631 0-8.270816-6.689631-14.960447-14.960446-14.960447h-194.607436c-8.270816 0-14.960447 6.689631-14.960447 14.960447 0 8.270816 6.689631 14.960447 14.960447 14.960447h5.838223c9.122224 29.799264 18.852595 74.072455 12.649483 92.073642-22.623114 65.55838-20.920299 158.969949 3.64889 196.066992 13.014372 19.582373 4.621927 61.058083-1.094667 80.275567-0.364889 0.243259-0.851408 0.364889-1.216296 0.486519-1.216296 0.608148-2.189334 1.337926-3.284001 2.067704-2.310963 1.337926-4.378667 2.554223-6.446371 4.013778l-2.919112 2.189334c-2.554223 2.067704-4.986816 4.135408-7.176149 6.324741-0.243259 0.243259-0.608148 0.608148-0.973037 0.851408-0.608148 0.608148-1.337926 1.216296-1.946074 1.946074-1.824445 2.189334-3.284 4.378667-4.743557 6.568001 0 0.12163-0.12163 0.12163-0.121629 0.243259-1.946074 3.162371-3.648889 6.446371-4.865186 9.852002h-47.070674c-18.001188 0-32.596745-14.595558-32.596745-32.596746V144.86091c0-18.001188 14.717187-32.596745 32.596745-32.596746h865.881459c18.001188 0 32.596745 14.717187 32.596745 32.596746l0.12163 595.742012zM480.254467 300.425229c0-8.270816-6.689631-14.960447-14.960446-14.960447-50.962822 0-94.019717-31.502079-114.818387-46.584155-4.743556-3.52726-8.514075-6.203112-11.068298-7.662668-7.176149-4.257038-16.298373-1.946074-20.55541 5.230075-4.257038 7.176149-1.946074 16.298373 5.230074 20.555411 2.067704 1.216296 4.986816 3.40563 8.757335 6.203112 23.352892 17.028151 71.761492 52.422378 132.454686 52.422378 8.270816-0.243259 14.960447-6.93289 14.960446-15.203706z m215.284476-69.328899c-2.554223 1.581185-6.324742 4.257038-11.189927 7.662668-20.67704 15.082076-63.855565 46.584155-114.818387 46.584154-8.270816 0-14.960447 6.689631-14.960447 14.960447 0 8.270816 6.689631 14.960447 14.960447 14.960447 60.693194 0 109.223423-35.394227 132.576315-52.300749 3.770519-2.797482 6.81126-4.986816 8.757335-6.203112 7.176149-4.257038 9.487112-13.500891 5.230074-20.55541-4.257038-7.05452-13.500891-9.487112-20.55541-5.108445z m-76.261789 408.067466l-101.074237-45.367858c-4.135408-1.824445-8.878964-1.702815-12.892742 0.243259l-89.397791 45.367858c-7.419408 3.770519-10.33852 12.771113-6.568001 20.190522 3.770519 7.419408 12.771113 10.21689 20.190522 6.568001l82.951419-42.083858 94.506236 42.448747c1.946074 0.851408 4.135408 1.337926 6.203112 1.337926 5.716593 0 11.189928-3.284 13.74415-8.878964 3.284-7.541038-0.12163-16.420002-7.662668-19.825633z m0 0" fill="#78C6FF" p-id="15733"></path><path d="M945.00135 82.100012H79.119891c-34.54282 0-62.639268 28.096449-62.639268 62.639268v595.742012c0 34.54282 28.096449 62.639268 62.639268 62.639269h47.070673c2.797482 8.757335 8.027557 17.514669 15.933484 25.663855 1.946074 1.946074 4.378667 3.40563 7.05452 4.135408 78.572752 20.312151 98.033496 45.611118 102.655422 58.868749 5.108445 14.717187-3.40563 26.515263-3.892149 27.245041-5.108445 6.568001-3.892149 15.811854 2.554223 20.9203 6.568001 5.230075 15.933484 4.135408 21.163558-2.432593 7.05452-9.000594 17.028151-30.650671 8.878965-54.976601C269.348659 849.583086 229.210876 823.432712 161.219903 805.188265c-5.594964-6.689631-7.419408-12.284594-7.419409-16.784892v-0.121629c0-5.959853 3.770519-12.041335 10.58178-17.27141 0.243259-0.12163 0.486519-0.243259 0.608148-0.486519 1.946074-1.459556 4.135408-2.797482 6.568001-4.135408 0.608148-0.364889 1.094667-0.608148 1.702815-0.851407 2.919112-1.459556 6.203112-2.554223 9.487112-3.770519 5.230075-1.216296 14.717187-2.919112 29.677634-2.919112 26.272004 0 56.922675 5.230075 91.100606 15.203706 5.716593 2.554223 11.433187 5.108445 17.14978 8.149186 1.702815 0.973037 3.52726 1.946074 5.230075 2.919112 7.297779 4.013778 14.473928 8.514075 21.771707 13.500891 0.608148 0.486519 1.216296 0.729778 1.824445 1.216296 114.818387 80.640456 102.047274 121.386388 102.168903 121.386388-3.892149 7.297779-1.094667 16.420002 6.203112 20.312151 2.189334 1.216296 4.621927 1.702815 7.05452 1.702815 5.351704 0 10.581779-2.919112 13.257631-8.027556 4.743556-8.878964 20.433781-53.881934-74.802233-132.089797h265.76078C573.787666 881.450053 589.477891 926.453023 594.221447 935.331987c2.797482 5.230075 8.149186 8.270816 13.74415 8.270816 2.310963 0 4.621927-0.486519 6.689631-1.702815 7.297779-3.892149 10.33852-12.527854 6.446371-19.825632-0.12163-0.364889-13.62252-41.110821 101.804015-122.116166 8.027557-5.594964 16.055113-10.46015 24.08267-14.960447 1.459556-0.851408 2.919112-1.702815 4.378667-2.432593 5.959853-3.162371 11.919705-5.838223 17.879558-8.514075 34.056301-9.973631 64.585343-15.203706 90.857347-15.203706 14.960447 0 24.447559 1.702815 29.556004 2.919112 3.284 1.216296 6.689631 2.310963 9.608742 3.770519 0.608148 0.243259 1.094667 0.486519 1.581186 0.729778 2.554223 1.337926 4.865186 2.797482 6.932889 4.378667 0.12163 0.12163 0.243259 0.12163 0.24326 0.121629 6.93289 5.230075 10.703409 11.311557 10.703409 17.39304v0.243259c0 4.500297-1.824445 9.973631-7.419409 16.663262-68.112602 18.244447-108.250386 44.394821-119.318684 77.599715-8.149186 24.325929 1.824445 45.976007 8.878965 54.9766 5.230075 6.568001 14.595558 7.662668 21.041929 2.432593 6.568001-5.108445 7.662668-14.595558 2.432592-21.041929-0.12163-0.12163-8.878964-11.919705-3.892148-26.758522 4.500297-13.379261 23.717781-38.799857 102.777052-59.233638 2.675852-0.729778 5.108445-2.189334 7.054519-4.135408 7.905927-8.149186 13.136002-16.906521 15.933484-25.785485 33.934672-0.729778 61.301342-28.461337 61.301342-62.517639V144.86091c0.12163-34.54282-27.974819-62.760898-62.517638-62.760898z m-769.06426 288.262264H309.608072c5.594964 19.825632 15.325336 70.301936-7.297778 134.035871l-1.581186 4.500297c-10.946668 30.529041-24.569189 68.477491 5.716594 146.806984 18.487706 47.800451 7.176149 75.045492-0.608149 86.721939h-0.121629c-1.337926-0.486519-2.675852-0.973037-4.013779-1.581186-17.879558-6.81126-35.272598-11.068298-51.57097-13.257631-1.459556-0.243259-2.797482-0.364889-4.257038-0.608149-7.662668-0.851408-15.082076-1.337926-22.379855-1.337926-1.581185 0-3.162371 0.12163-4.743556 0.12163-5.959853 0.12163-11.798076 0.608148-17.27141 1.216296-1.459556 0.12163-2.919112 0.243259-4.378667 0.486519-1.216296 0.12163-2.310963 0.486519-3.40563 0.608148 5.230075-24.934078 8.757335-61.666231-7.541039-86.23542-17.514669-26.515263-21.650077-108.128756-0.364888-169.673357 9.000594-26.515263-2.067704-74.437344-9.852002-101.804015zM766.205768 655.583799c30.285782-78.451122 16.663262-116.399572 5.594964-146.928614l-1.581186-4.378668c-22.623114-63.733935-12.892743-114.210239-7.297778-134.035871h133.670982c-7.784297 27.366671-18.852595 75.288752-9.730372 101.925645 21.285188 61.666231 17.14978 143.279724-0.243259 169.673357-16.420002 24.690818-12.892743 61.301342-7.662668 86.23542-1.216296-0.243259-2.310963-0.486519-3.40563-0.608148-0.973037-0.12163-1.946074-0.243259-3.040741-0.364889-6.203112-0.851408-12.771113-1.337926-19.582373-1.459556-0.851408 0-1.824445-0.12163-2.675853-0.121629-25.055707-0.12163-53.517045 4.865186-83.437938 16.784891-7.662668-11.554816-19.095855-38.799857-0.608148-86.721938z m211.392327 85.019123c0 17.514669-13.987409 31.866968-31.380449 32.596745-2.067704-5.716593-5.230075-11.311557-9.608742-16.541632-0.608148-0.729778-1.337926-1.337926-2.067704-2.067704l-0.729778-0.729777c-2.189334-2.310963-4.743556-4.500297-7.419409-6.568001-0.851408-0.608148-1.702815-1.337926-2.675852-1.946075-2.189334-1.459556-4.500297-2.919112-6.93289-4.257037-0.973037-0.608148-1.946074-1.337926-2.919111-1.824445-0.364889-0.12163-0.729778-0.243259-1.094667-0.486519 0 0-0.12163 0-0.12163-0.121629-5.716593-19.217484-14.230669-60.693194-1.094666-80.275568 24.934078-37.705191 26.758522-129.292315 3.648889-196.066991-6.203112-18.001188 3.40563-62.274379 12.649483-92.073643h5.838223c8.270816 0 14.960447-6.689631 14.960447-14.960446 0-8.270816-6.689631-14.960447-14.960447-14.960447h-194.607435c-8.270816 0-14.960447 6.689631-14.960447 14.960447 0 5.838223 3.40563 10.703409 8.270816 13.257631-6.81126 26.758522-13.987409 79.545789 9.487113 145.833947l1.581185 4.500297c9.730372 27.123411 20.920299 57.895712-5.351704 125.765055-21.285188 55.09823-10.095261 90.978976 1.216296 110.196461-9.973631 5.351704-20.068892 11.311557-30.285782 18.244447h-345.428198c-0.973037-0.608148-1.946074-1.094667-2.919112-1.824445-8.270816-5.473334-16.420002-10.46015-24.569188-14.960447-0.973037-0.486519-1.946074-1.216296-3.040742-1.702815 11.311557-19.217484 22.501485-55.09823 1.216297-110.07483-26.272004-67.869343-15.203706-98.520014-5.473334-125.643426l1.702815-4.621927c23.474522-66.288158 16.298373-119.075425 9.487112-145.833947 4.865186-2.554223 8.270816-7.419408 8.270816-13.257631 0-8.270816-6.689631-14.960447-14.960446-14.960447h-194.607436c-8.270816 0-14.960447 6.689631-14.960447 14.960447 0 8.270816 6.689631 14.960447 14.960447 14.960447h5.838223c9.122224 29.799264 18.852595 74.072455 12.649483 92.073642-22.623114 65.55838-20.920299 158.969949 3.64889 196.066992 13.014372 19.582373 4.621927 61.058083-1.094667 80.275567-0.364889 0.243259-0.851408 0.364889-1.216296 0.486519-1.216296 0.608148-2.189334 1.337926-3.284001 2.067704-2.310963 1.337926-4.378667 2.554223-6.446371 4.013778l-2.919112 2.189334c-2.554223 2.067704-4.986816 4.135408-7.176149 6.324741-0.243259 0.243259-0.608148 0.608148-0.973037 0.851408-0.608148 0.608148-1.337926 1.216296-1.946074 1.946074-1.824445 2.189334-3.284 4.378667-4.743557 6.568001 0 0.12163-0.12163 0.12163-0.121629 0.243259-1.946074 3.162371-3.648889 6.446371-4.865186 9.852002h-47.070674c-18.001188 0-32.596745-14.595558-32.596745-32.596746V144.86091c0-18.001188 14.717187-32.596745 32.596745-32.596746h865.881459c18.001188 0 32.596745 14.717187 32.596745 32.596746l0.12163 595.742012zM480.254467 300.425229c0-8.270816-6.689631-14.960447-14.960446-14.960447-50.962822 0-94.019717-31.502079-114.818387-46.584155-4.743556-3.52726-8.514075-6.203112-11.068298-7.662668-7.176149-4.257038-16.298373-1.946074-20.55541 5.230075-4.257038 7.176149-1.946074 16.298373 5.230074 20.555411 2.067704 1.216296 4.986816 3.40563 8.757335 6.203112 23.352892 17.028151 71.761492 52.422378 132.454686 52.422378 8.270816-0.243259 14.960447-6.93289 14.960446-15.203706z m215.284476-69.328899c-2.554223 1.581185-6.324742 4.257038-11.189927 7.662668-20.67704 15.082076-63.855565 46.584155-114.818387 46.584154-8.270816 0-14.960447 6.689631-14.960447 14.960447 0 8.270816 6.689631 14.960447 14.960447 14.960447 60.693194 0 109.223423-35.394227 132.576315-52.300749 3.770519-2.797482 6.81126-4.986816 8.757335-6.203112 7.176149-4.257038 9.487112-13.500891 5.230074-20.55541-4.257038-7.05452-13.500891-9.487112-20.55541-5.108445z m-76.261789 408.067466l-101.074237-45.367858c-4.135408-1.824445-8.878964-1.702815-12.892742 0.243259l-89.397791 45.367858c-7.419408 3.770519-10.33852 12.771113-6.568001 20.190522 3.770519 7.419408 12.771113 10.21689 20.190522 6.568001l82.951419-42.083858 94.506236 42.448747c1.946074 0.851408 4.135408 1.337926 6.203112 1.337926 5.716593 0 11.189928-3.284 13.74415-8.878964 3.284-7.541038-0.12163-16.420002-7.662668-19.825633z m0 0" fill="#666666" p-id="15734"></path></svg>