<?xml version="1.0" standalone="no"?><!DOCTYPE svg PUBLIC "-//W3C//DTD SVG 1.1//EN" "http://www.w3.org/Graphics/SVG/1.1/DTD/svg11.dtd"><svg t="1687018550257" class="icon" viewBox="0 0 1024 1024" version="1.1" xmlns="http://www.w3.org/2000/svg" p-id="19958" data-spm-anchor-id="a313x.7781069.0.i3" xmlns:xlink="http://www.w3.org/1999/xlink" width="128" height="128"><path d="M517.599232 347.949056s-92.416-37.98016-179.480576 46.966784l103.796736 88.02304 75.68384-134.989824zM660.51072 474.253312s51.781632 85.4528-18.71872 184.578048l-102.981632-88.97536 121.700352-95.602688z" fill="#b4e0f6" p-id="19959" data-spm-anchor-id="a313x.7781069.0.i2" class="selected"></path><path d="M443.664384 255.428608l310.472704 297.517056 31.010816-292.378624-218.660864-66.719744z" fill="#b4e0f6" p-id="19960" data-spm-anchor-id="a313x.7781069.0.i0" class=""></path><path d="M550.176768 467.402752m-44.988416 0a44.988416 44.988416 0 1 0 89.976832 0 44.988416 44.988416 0 1 0-89.976832 0Z" fill="#FFFFFF" p-id="19961"></path><path d="M458.09664 716.670976c68.200448-74.94656-11.544576-134.701056-11.544576-134.701056s-63.488-76.804096-135.098368-5.10976c0 0-16.336896 13.719552-29.024256 40.685568 0 0-4.798464 8.445952 69.629952-14.99136 0 0-65.18784 61.544448-38.815744 119.236608 58.886144 23.590912 117.252096-44.455936 117.252096-44.455936-19.863552 75.460608-11.655168 70.264832-11.655168 70.264832 26.331136-13.95712 39.256064-30.928896 39.256064-30.928896z" fill="#f65f49" p-id="19962" data-spm-anchor-id="a313x.7781069.0.i4" class=""></path><path d="M402.798592 627.191808m-24.82176 0a24.82176 24.82176 0 1 0 49.64352 0 24.82176 24.82176 0 1 0-49.64352 0Z" fill="#b4e0f6" p-id="19963" data-spm-anchor-id="a313x.7781069.0.i8" class="selected"></path></svg>