<?xml version="1.0" standalone="no"?><!DOCTYPE svg PUBLIC "-//W3C//DTD SVG 1.1//EN" "http://www.w3.org/Graphics/SVG/1.1/DTD/svg11.dtd"><svg t="1691472703944" class="icon" viewBox="0 0 1024 1024" version="1.1" xmlns="http://www.w3.org/2000/svg" p-id="2362" xmlns:xlink="http://www.w3.org/1999/xlink" width="128" height="128"><path d="M5.1 831.1h253.5c2.8 0 5.1-2.3 5.1-5.1s-2.3-5.1-5.1-5.1H5.1c-2.8 0-5.1 2.3-5.1 5.1 0 2.9 2.3 5.1 5.1 5.1z m314.3 0h55.8c2.8 0 5.1-2.3 5.1-5.1s-2.3-5.1-5.1-5.1h-55.8c-2.8 0-5.1 2.3-5.1 5.1 0.1 2.9 2.3 5.1 5.1 5.1z m106.5 0h253.5c2.8 0 5.1-2.3 5.1-5.1s-2.3-5.1-5.1-5.1H425.9c-2.8 0-5.1 2.3-5.1 5.1 0 2.9 2.3 5.1 5.1 5.1z m314.4 0H796c2.8 0 5.1-2.3 5.1-5.1s-2.3-5.1-5.1-5.1h-55.8c-2.8 0-5.1 2.3-5.1 5.1 0.1 2.9 2.4 5.1 5.2 5.1z m106.4 0h172.4c2.8 0 5.1-2.3 5.1-5.1s-2.3-5.1-5.1-5.1H846.7c-2.8 0-5.1 2.3-5.1 5.1 0.1 2.9 2.3 5.1 5.1 5.1z" fill="#3B0404" p-id="2363"></path><path d="M409.6 803.5H86.9c-14 0-25.4-11.4-25.4-25.4 0-14 11.4-25.4 25.4-25.4h118.2c-10.1-3.4-17.3-12.9-17.3-24 0-10.9 6.8-20.1 16.4-23.7h-73.9c-14 0-25.4-11.4-25.4-25.4 0-14 11.4-25.4 25.4-25.4h130.1l-40.8-40.8-1.8-1.8c-88.1-88.1-88.1-231 0-319.1s231-88.1 319.1 0l1.8 1.8 1.8-1.8c88.1-88.1 231-88.1 319.1 0 88.1 88.1 88.1 231 0 319.1l-1.8 1.8L560.2 911c-11.9 11.9-31.1 11.9-43 0L409.6 803.5zM54.5 753.1c-14 0-25.4-11.4-25.4-25.4 0-14 11.4-25.4 25.4-25.4s25.4 11.4 25.4 25.4c0 14.1-11.4 25.4-25.4 25.4z" fill="#FF5E5E" p-id="2364" data-spm-anchor-id="a313x.search_index.0.i0.25d33a81L1xfp7" class="selected"></path><path d="M668.1 228.8c67.9-9.7 139.3 11.6 191.5 63.8 88.1 88.1 88.1 231 0 319.1l-1.8 1.8L560.2 911c-11.9 11.9-31.1 11.9-43 0l-5.1-5.1 291.3-291.4 1.8-1.8c88.1-88.1 88.1-231 0-319.1-38.3-38.2-87-59.9-137.1-64.8z" fill="#CB2828" p-id="2365"></path><path d="M196 633.3c2 2 2 5.2 0 7.2s-5.2 2-7.2 0L165.3 617l-1-1-0.3-0.3-0.5-0.5c-54.3-54.3-77.4-130.8-63.8-204.9 0.5-2.8 3.1-4.6 5.9-4.1 2.8 0.5 4.6 3.1 4.1 5.9-13 70.9 9.1 144 61 195.9l0.5 0.5 0.3 0.3 1.1 1.1 23.4 23.4z m-85.3-226c-0.6 2.7-3.2 4.5-6 3.9-2.7-0.6-4.5-3.2-3.9-6 0.3-1.7 0.7-3.4 1.1-5.1 0.6-2.7 3.3-4.4 6.1-3.8 2.7 0.6 4.4 3.3 3.8 6.1-0.4 1.6-0.7 3.3-1.1 4.9z m17.4-51.2c-1.2 2.5-4.3 3.6-6.8 2.4s-3.6-4.3-2.4-6.8c11.1-23 26-44 44.5-62.5 44.3-44.3 103.3-68.1 164.6-67.7 2.8 0 5.1 2.3 5 5.1 0 2.8-2.3 5.1-5.1 5-58.6-0.3-115 22.4-157.4 64.7-17.5 17.7-31.8 37.8-42.4 59.8zM333 231.7c-2.8-0.1-5-2.4-4.9-5.2 0.1-2.8 2.4-5 5.2-4.9 1.7 0 3.5 0.1 5.2 0.2 2.8 0.1 4.9 2.5 4.8 5.3-0.1 2.8-2.5 4.9-5.3 4.8-1.7-0.1-3.4-0.2-5-0.2z m272.4-6c2.7-0.5 5.4 1.3 5.9 4s-1.3 5.4-4 5.9c-42.8 8.3-82.3 29-113.9 60.6l-0.4 0.4-1.5 1.5c-2 2-5.2 2-7.2-0.1-0.6-0.6-1.2-1.2-1.7-1.8-26.9-26.9-59.7-46-95.5-56.2-2.7-0.8-4.3-3.6-3.5-6.3 0.8-2.7 3.6-4.3 6.3-3.5 36.7 10.4 70.3 29.8 98.2 57 32.6-31.9 73.2-53 117.3-61.5z m6.6 9c-2.8 0.5-5.4-1.4-5.9-4.1-0.5-2.8 1.4-5.4 4.1-5.9 1.7-0.3 3.4-0.6 5.1-0.8 2.8-0.4 5.3 1.5 5.8 4.3 0.4 2.8-1.5 5.3-4.3 5.8-1.5 0.2-3.2 0.5-4.8 0.7z m54.6-2.5c-2.8-0.2-4.9-2.7-4.7-5.4 0.2-2.8 2.7-4.9 5.4-4.7 54.4 4.2 105.7 27.5 145.1 66.9 23.1 23.1 40.7 50.3 52.2 80.2 1 2.6-0.3 5.5-2.9 6.6-2.6 1-5.5-0.3-6.6-2.9-11-28.5-27.8-54.6-49.9-76.7-37.6-37.7-86.6-59.9-138.6-64zM857 377.5c-0.9-2.6 0.4-5.5 3.1-6.5 2.6-0.9 5.5 0.4 6.5 3.1 0.6 1.6 1.1 3.3 1.7 4.9 0.9 2.7-0.6 5.5-3.2 6.4-2.7 0.9-5.5-0.6-6.4-3.2-0.6-1.6-1.2-3.1-1.7-4.7z m11.9 53.1c-0.3-2.8 1.8-5.3 4.6-5.5 2.8-0.3 5.3 1.8 5.5 4.6 6.7 68.3-17 136.2-66.5 185.7l-1.8 1.8-36.8 36.8c-2 2-5.2 2-7.2 0s-2-5.2 0-7.2l36.8-36.8c0.6-0.6 1.2-1.2 1.8-1.7 47.3-47.5 69.9-112.5 63.6-177.7zM763.1 650.2c2-2 5.2-2 7.2 0s2 5.2 0 7.2l-3.6 3.6c-2 2-5.2 2-7.2 0s-2-5.2 0-7.2l3.6-3.6z m-39.4 39.5c2-2 5.2-2 7.2 0s2 5.2 0 7.2L551.6 876.1c-2 2-5.2 2-7.2 0s-2-5.2 0-7.2l179.3-179.2zM540.9 872.5c2-2 5.2-2 7.2 0s2 5.2 0 7.2l-3.6 3.6c-2 2-5.2 2-7.2 0s-2-5.2 0-7.2l3.6-3.6z m-39.1 38.3c-9.8 6.4-22.9 5.2-31.4-3.1L367.8 805.1c-2-2-5.2-2-7.2 0s-2 5.2 0 7.2L463.3 915c12 11.6 30.3 13.3 44.1 4.4 2.3-1.5 3-4.7 1.5-7-1.6-2.4-4.7-3.1-7.1-1.6z" fill="#3B0404" p-id="2366"></path><path d="M494.3 514.2c-8.4 0-15.2-6.8-15.2-15.2s6.8-15.2 15.2-15.2c8.4 0 15.2 6.8 15.2 15.2s-6.8 15.2-15.2 15.2z m91.3 0c-8.4 0-15.2-6.8-15.2-15.2s6.8-15.2 15.2-15.2 15.2 6.8 15.2 15.2-6.8 15.2-15.2 15.2zM465.1 583.3c18.7 22.9 46.6 36.5 76.7 36.5 29.2 0 56.3-12.7 74.9-34.4 1.8-2.1 1.6-5.3-0.5-7.2-2.1-1.8-5.3-1.6-7.2 0.5-16.8 19.5-41.1 30.9-67.3 30.9-27 0-52.1-12.2-68.8-32.7-1.8-2.2-5-2.5-7.1-0.7s-2.5 5-0.7 7.1z" fill="#3B0404" p-id="2367"></path><path d="M428.4 559.9c-8.4 0-15.2-6.8-15.2-15.2 0-8.4 6.8-15.2 15.2-15.2 8.4 0 15.2 6.8 15.2 15.2 0 8.4-6.8 15.2-15.2 15.2z m223.1 0c-8.4 0-15.2-6.8-15.2-15.2 0-8.4 6.8-15.2 15.2-15.2s15.2 6.8 15.2 15.2c0 8.4-6.8 15.2-15.2 15.2z" fill="#CB2828" p-id="2368"></path><path d="M332.1 483.8c-30.8 0-55.8-25-55.8-55.8s25-55.8 55.8-55.8 55.8 25 55.8 55.8-25 55.8-55.8 55.8z m415.8 0c-30.8 0-55.8-25-55.8-55.8s25-55.8 55.8-55.8 55.8 25 55.8 55.8-25 55.8-55.8 55.8z" fill="#F54040" p-id="2369"></path><path d="M871.4 125.7v-0.3c0-14.9 12.1-26.9 26.9-26.9s26.9 12.1 26.9 26.9V160.6c0 10.5-8.5 19-19 19H871c-14.9 0-26.9-12.1-26.9-26.9s12.1-26.9 26.9-26.9c0.2-0.1 0.3-0.1 0.4-0.1z" fill="#FF5E5E" p-id="2370"></path></svg>