<?xml version="1.0" standalone="no"?><!DOCTYPE svg PUBLIC "-//W3C//DTD SVG 1.1//EN" "http://www.w3.org/Graphics/SVG/1.1/DTD/svg11.dtd"><svg height="600" legacy-metrics="false" node-id="1" sillyvg="true" template-height="600" template-width="600" version="1.1" viewBox="0 0 600 600" width="600" xmlns="http://www.w3.org/2000/svg" xmlns:xlink="http://www.w3.org/1999/xlink"><defs node-id="118"></defs><path d="M 369.00 83.73 C 370.59 84.40 371.48 85.85 372.65 86.99 C 373.82 88.13 375.08 89.54 376.30 90.82 C 376.40 91.34 376.03 91.49 375.67 91.65 C 373.57 91.89 371.58 91.14 369.52 90.98 C 367.76 90.71 365.98 90.54 364.19 90.49 C 362.65 90.56 362.46 90.84 363.28 92.07 C 365.50 95.37 367.61 98.75 369.65 102.16 C 370.30 103.38 371.62 104.10 373.00 104.00 C 378.52 103.90 383.86 105.18 389.19 106.42 C 389.91 106.64 390.59 106.97 391.19 107.42 C 393.61 109.74 395.83 112.25 397.83 114.93 C 404.59 122.91 410.58 131.52 415.71 140.63 C 417.93 144.63 418.31 148.98 418.56 153.35 C 419.50 169.92 419.43 186.50 419.23 203.08 C 418.98 224.00 418.74 244.92 418.51 265.84 C 418.30 284.97 418.10 304.10 417.90 323.23 C 417.90 326.00 417.81 328.77 417.52 331.53 C 416.70 331.81 416.26 331.17 415.73 330.77 C 412.95 328.68 410.81 325.91 408.12 323.77 C 407.19 323.00 406.04 322.53 404.84 322.42 C 403.69 322.11 402.49 322.69 402.02 323.78 C 398.70 327.98 397.61 333.13 396.09 338.06 C 394.09 344.69 393.27 351.57 392.55 358.45 C 391.76 365.84 391.43 373.28 391.55 380.71 C 391.64 385.78 392.15 390.82 392.63 395.87 C 392.79 396.61 392.63 397.39 392.19 398.00 C 390.46 399.40 388.27 399.60 386.24 400.20 C 384.72 400.64 383.24 401.49 381.55 401.12 C 380.39 400.93 380.06 400.12 380.08 399.12 C 380.15 393.94 380.08 388.75 380.24 383.56 C 380.61 373.36 380.51 363.13 380.24 352.92 C 380.15 348.61 379.70 344.31 379.65 339.98 C 379.72 338.08 379.63 336.18 379.39 334.29 C 379.09 332.82 379.86 331.34 381.24 330.74 C 384.51 328.91 387.56 326.74 390.88 324.97 C 391.50 324.64 392.11 324.25 391.81 323.36 C 391.53 322.75 391.86 322.42 392.35 322.10 C 393.95 321.10 394.29 320.01 393.67 318.38 C 391.30 312.12 388.20 306.15 384.45 300.60 C 383.51 299.23 383.36 299.19 382.12 300.37 C 381.65 300.88 381.10 301.31 380.50 301.66 C 379.89 301.95 379.29 302.14 378.87 301.35 C 378.75 301.15 378.68 300.92 378.67 300.69 C 378.77 295.22 378.06 289.78 378.27 284.31 C 378.27 283.84 378.44 283.40 378.46 282.95 C 378.46 282.25 378.76 281.58 379.30 281.13 C 384.64 275.90 389.42 270.12 393.54 263.88 C 396.25 259.51 398.70 254.98 400.86 250.31 C 404.94 241.22 407.52 231.53 408.49 221.62 C 410.71 199.78 405.12 177.85 392.73 159.73 C 387.32 151.64 380.76 144.39 373.25 138.21 C 372.26 137.60 371.45 136.74 370.91 135.71 C 368.31 125.54 365.08 115.54 361.24 105.77 C 358.29 98.48 355.06 91.35 351.43 84.38 C 351.11 83.77 350.79 83.15 350.53 82.51 C 350.07 81.41 350.11 80.51 351.38 79.94 C 353.38 79.50 355.24 80.24 357.15 80.50 C 360.26 80.98 363.35 81.62 366.40 82.41 C 367.38 82.58 368.29 83.04 369.00 83.73 Z" fill="#eceef0" fill-rule="nonzero" node-id="120" stroke="none" target-height="321.3883" target-width="69.03659" target-x="350.28592" target-y="79.80537"></path><path d="M 183.79 328.14 C 183.79 323.43 183.79 318.72 183.79 314.00 C 184.79 313.45 185.58 314.05 186.41 314.41 C 192.12 316.76 198.23 318.00 204.41 318.06 C 205.09 318.09 205.76 318.01 206.41 317.82 C 207.36 317.62 208.00 316.73 207.88 315.77 C 207.51 307.29 207.46 298.77 207.25 290.32 C 207.33 289.76 207.14 289.20 206.75 288.80 C 206.36 288.40 205.81 288.20 205.25 288.26 C 198.96 287.78 192.79 286.30 186.97 283.88 C 185.65 283.34 184.25 282.83 183.65 281.33 C 183.57 271.97 183.45 262.61 183.43 253.25 C 183.38 228.35 183.35 203.45 183.34 178.54 C 183.34 170.81 185.01 163.33 186.55 155.80 C 189.32 142.21 195.73 130.36 203.78 119.31 C 210.92 109.50 218.61 100.11 226.41 90.83 C 227.11 89.99 227.95 89.27 228.72 88.50 C 230.38 87.02 232.53 86.65 234.55 86.03 C 240.05 84.33 245.69 83.14 251.33 82.03 C 251.84 81.93 252.36 81.93 252.87 82.03 C 254.25 82.42 254.17 83.33 253.63 84.32 C 252.95 85.60 251.96 86.68 251.22 87.92 C 247.33 94.35 243.49 100.80 239.95 107.43 C 236.56 113.79 234.56 120.69 232.05 127.43 C 230.52 131.49 229.32 135.66 227.45 139.59 C 225.87 141.49 224.10 143.22 222.17 144.77 C 221.51 145.34 220.92 145.98 220.40 146.67 C 217.62 149.98 214.75 153.23 212.20 156.73 C 202.43 170.01 196.31 185.62 194.45 202.00 C 192.30 220.86 195.87 238.64 204.52 255.47 C 208.25 262.65 212.85 269.35 218.21 275.42 C 218.82 275.96 219.21 276.71 219.29 277.52 C 219.75 283.76 219.55 290.00 219.41 296.23 C 219.06 312.62 219.06 329.01 219.24 345.39 C 219.33 352.83 219.60 360.27 219.94 367.70 C 220.42 377.86 220.03 388.02 220.20 398.18 C 220.20 399.18 220.31 400.18 219.39 400.88 C 218.77 401.21 218.03 401.24 217.39 400.95 C 214.29 399.73 211.29 398.30 208.39 396.66 C 207.90 396.36 207.48 395.96 207.15 395.48 C 206.82 394.87 206.72 394.16 206.85 393.48 C 207.61 387.35 207.99 381.18 208.00 375.00 C 207.66 361.45 206.14 348.05 202.00 335.08 C 201.02 331.75 199.68 328.55 198.00 325.51 C 197.92 325.43 197.87 325.33 197.83 325.22 C 197.09 322.03 195.78 321.70 192.16 323.16 C 189.82 324.29 187.63 325.70 185.65 327.38 C 185.07 327.80 184.61 328.42 183.79 328.14 Z" fill="#eceef0" fill-rule="nonzero" node-id="122" stroke="none" target-height="319.11615" target-width="70.630005" target-x="183.34" target-y="82.03"></path><path d="M 327.06 517.24 C 326.40 520.78 325.70 524.31 322.79 526.84 C 322.32 527.35 322.09 528.04 322.14 528.73 C 321.09 536.98 319.81 545.18 317.01 553.07 C 315.44 557.43 312.98 561.42 309.77 564.77 C 306.36 568.40 301.45 567.85 299.14 563.35 C 296.73 558.66 295.38 553.55 294.05 548.47 C 292.37 542.02 291.97 535.37 290.99 528.81 C 290.63 526.42 289.99 524.72 287.52 523.59 C 283.90 521.90 283.05 518.26 282.28 514.69 C 281.63 511.17 281.37 507.59 281.51 504.01 C 281.51 503.27 281.64 502.49 280.58 502.25 C 277.24 501.49 275.47 499.11 274.30 496.11 C 274.10 495.64 273.87 495.18 273.62 494.73 C 272.88 494.36 272.38 493.63 272.32 492.81 C 271.40 488.75 271.20 484.55 271.71 480.42 C 272.00 478.02 271.94 475.59 272.07 473.18 C 272.45 466.52 273.85 460.05 275.12 453.54 C 275.36 451.95 275.75 450.38 276.29 448.86 C 276.88 448.05 277.44 448.52 277.82 449.01 C 280.52 452.48 284.42 453.82 288.38 455.01 C 289.54 455.34 290.92 455.19 291.66 456.46 C 291.86 457.66 291.83 458.88 291.58 460.07 C 291.08 465.64 290.87 471.24 290.94 476.83 C 290.93 478.10 291.19 479.36 291.69 480.53 C 292.10 481.58 293.03 482.33 294.14 482.53 C 296.14 482.96 296.56 483.40 296.82 485.53 C 297.56 491.48 298.62 497.39 299.98 503.23 C 300.12 504.21 300.46 505.14 300.98 505.98 C 301.39 506.71 302.18 507.13 303.01 507.07 C 303.84 507.01 304.56 506.48 304.86 505.70 C 305.21 504.97 305.50 504.21 305.71 503.43 C 306.46 500.82 307.69 498.37 309.32 496.20 C 311.13 493.78 311.61 490.83 312.10 487.92 C 312.27 486.54 312.72 485.21 313.43 484.02 C 314.18 482.82 314.54 481.43 314.48 480.02 C 314.32 473.78 315.04 467.57 314.87 461.34 C 314.85 460.65 314.79 459.95 314.67 459.27 C 314.40 458.14 314.47 456.95 314.89 455.87 C 315.43 455.19 316.22 454.75 317.08 454.63 C 320.56 453.73 323.77 452.02 326.46 449.63 C 326.92 449.19 327.46 448.79 328.13 449.33 C 329.92 451.63 330.96 454.42 331.13 457.33 C 331.62 461.93 332.56 466.45 333.08 471.04 C 333.54 475.04 333.08 478.88 332.75 482.77 C 332.28 487.83 331.19 492.82 329.51 497.62 C 329.20 498.67 329.07 499.77 329.14 500.87 C 329.31 505.43 329.07 510.00 328.41 514.51 C 328.21 515.57 328.12 516.65 327.06 517.24 Z" fill="#f26c60" fill-rule="nonzero" node-id="124" stroke="none" target-height="118.70529" target-width="61.83246" target-x="271.43668" target-y="448.44748"></path><path d="M 391.86 397.82 C 392.07 397.48 392.16 397.08 392.11 396.68 C 390.99 388.40 390.58 380.03 390.90 371.68 C 391.30 361.20 392.14 350.75 394.66 340.53 C 395.96 335.28 397.46 330.05 400.12 325.27 C 400.55 324.49 400.95 323.60 401.94 323.27 C 403.24 322.91 403.94 323.86 404.74 324.59 C 407.50 327.22 410.13 329.98 412.87 332.59 C 415.87 335.51 419.09 338.28 421.94 341.39 C 425.53 345.30 429.33 349.03 432.49 353.32 C 433.68 354.95 434.76 356.66 435.73 358.43 C 436.33 359.56 436.46 360.88 436.08 362.10 C 434.22 369.84 432.42 377.59 431.74 385.56 C 431.19 391.99 430.92 398.44 430.63 404.89 C 430.34 411.34 431.09 417.67 431.33 424.05 C 431.54 428.14 432.02 432.21 432.79 436.23 C 433.07 436.95 432.96 437.76 432.49 438.37 C 429.98 438.06 427.44 437.80 425.34 436.22 C 416.40 429.47 407.81 422.30 399.34 415.02 C 398.34 414.07 397.39 413.07 396.49 412.02 C 394.18 410.85 393.69 408.56 393.19 406.36 C 392.94 405.27 392.79 404.14 392.50 403.05 C 392.41 402.15 392.23 401.27 391.99 400.40 C 391.76 399.56 391.72 398.68 391.86 397.82 Z" fill="#afbdc4" fill-rule="nonzero" node-id="126" stroke="none" target-height="115.14453" target-width="45.4646" target-x="390.8239" target-y="323.22546"></path><path d="M 198.00 325.00 C 199.12 325.12 199.23 326.13 199.57 326.87 C 202.97 334.65 205.32 342.85 206.57 351.25 C 208.09 360.17 208.79 369.20 208.66 378.25 C 208.60 383.52 208.22 388.78 207.51 394.00 C 207.39 394.50 207.46 395.03 207.69 395.49 C 207.81 398.75 206.85 401.84 206.09 404.95 C 205.41 407.72 204.74 410.54 203.00 412.95 C 202.54 413.37 202.15 413.95 201.45 413.95 C 196.45 418.95 190.71 423.03 185.33 427.55 C 181.75 430.55 178.12 433.50 174.33 436.28 C 172.32 437.63 170.03 438.53 167.64 438.91 C 166.31 439.17 164.94 438.77 163.96 437.84 C 164.01 437.21 164.13 436.58 164.34 435.98 C 166.70 428.24 168.21 420.27 168.84 412.21 C 169.41 406.33 169.07 400.44 169.14 394.55 C 169.14 393.11 168.86 391.69 168.77 390.24 C 168.55 386.80 168.64 383.34 168.37 379.91 C 168.05 375.82 167.27 371.78 166.06 367.86 C 165.53 365.91 164.86 364.00 164.06 362.15 C 163.37 360.72 163.44 359.04 164.25 357.67 C 166.53 353.37 169.37 349.41 172.71 345.87 C 179.44 338.38 187.03 331.71 195.33 326.00 C 196.11 325.45 196.84 324.65 198.00 325.00 Z" fill="#afbdc4" fill-rule="nonzero" node-id="128" stroke="none" target-height="114.05078" target-width="45.06691" target-x="163.5931" target-y="324.93335"></path><path d="M 377.35 437.36 C 378.41 441.44 378.81 445.66 378.55 449.87 C 378.45 454.30 378.55 458.77 377.39 463.13 C 377.00 464.82 376.24 466.41 375.16 467.77 C 374.84 468.11 374.63 468.53 374.54 468.98 C 373.43 475.85 370.88 482.33 368.98 488.98 C 368.64 490.79 367.35 492.27 365.61 492.87 C 364.77 493.13 364.82 493.75 364.77 494.37 C 364.33 500.09 362.56 505.64 359.60 510.56 C 358.40 512.56 357.37 514.66 354.82 515.28 C 354.13 515.45 354.17 516.16 354.04 516.71 C 352.81 522.25 350.58 527.52 347.45 532.26 C 344.79 536.26 341.71 536.39 338.33 533.00 C 335.14 529.81 333.69 525.87 332.99 521.59 C 332.74 520.09 332.43 519.08 330.64 519.22 C 330.26 519.22 329.84 518.84 329.44 518.63 C 329.01 517.36 329.06 515.96 329.60 514.73 C 330.83 510.53 330.80 506.18 331.13 501.88 C 331.27 500.16 331.62 498.46 332.18 496.83 C 333.25 493.67 334.98 490.71 335.37 487.35 C 335.96 482.82 335.90 478.23 335.22 473.72 C 334.32 468.25 333.92 462.72 333.22 457.24 C 333.09 456.67 333.09 456.08 333.22 455.51 C 334.17 452.92 333.54 450.27 333.63 447.65 C 333.56 446.44 333.30 445.24 332.86 444.11 C 332.58 443.11 332.13 442.11 332.58 441.11 C 333.22 440.40 333.86 440.87 334.41 441.20 C 336.04 442.14 337.79 442.85 339.61 443.32 C 340.61 443.59 341.44 443.98 341.71 445.09 C 342.18 447.77 341.50 450.38 341.00 452.96 C 340.36 456.24 340.28 459.31 342.00 462.35 C 342.90 463.97 342.87 465.91 342.93 467.77 C 343.03 471.28 342.58 474.77 343.24 478.30 C 343.41 479.51 343.95 480.64 344.78 481.53 C 345.54 482.35 345.99 483.41 346.06 484.53 C 346.35 487.17 346.80 489.78 347.38 492.37 C 347.48 492.77 347.57 493.16 347.69 493.54 C 348.03 494.61 348.10 496.02 349.69 495.97 C 351.28 495.92 351.38 494.64 351.64 493.50 C 352.16 491.19 352.50 488.84 352.97 486.50 C 353.48 483.53 354.72 480.74 356.58 478.37 C 359.22 475.17 359.84 471.14 360.58 467.24 C 361.03 464.18 362.05 461.24 363.58 458.56 C 366.11 454.62 367.07 449.87 366.26 445.26 C 366.13 444.70 366.12 444.11 366.21 443.54 C 366.48 442.89 367.04 442.40 367.72 442.23 C 370.72 441.09 373.64 439.92 376.03 437.70 C 376.34 437.30 376.88 437.17 377.35 437.36 Z" fill="#f26c60" fill-rule="nonzero" node-id="130" stroke="none" target-height="98.09161" target-width="49.420624" target-x="329.16867" target-y="437.30853"></path><path d="M 272.21 498.48 C 271.59 500.36 270.48 502.03 268.99 503.33 C 267.90 504.44 266.23 504.77 264.80 504.16 C 263.69 503.72 263.29 504.16 262.87 505.08 C 260.67 509.98 258.34 514.83 255.81 519.57 C 254.16 522.64 252.68 523.57 250.15 523.16 C 248.43 522.82 246.90 521.84 245.88 520.41 C 243.72 517.71 242.88 514.41 242.00 511.22 C 239.10 500.69 237.03 489.95 235.82 479.10 C 235.72 478.16 235.58 477.54 234.41 477.73 C 230.22 478.44 227.41 474.82 227.13 470.94 C 227.01 469.27 227.04 467.58 227.06 465.94 C 227.06 465.04 226.87 464.63 225.82 464.58 C 221.45 464.37 219.03 462.00 218.76 457.65 C 218.25 449.80 220.24 442.00 224.44 435.35 C 224.97 435.29 225.49 435.57 225.73 436.05 C 228.14 439.73 231.99 440.99 235.88 442.19 C 236.81 442.47 237.88 442.52 238.47 443.45 C 238.84 445.74 237.76 447.86 237.69 450.11 C 237.60 452.63 236.92 455.11 237.48 457.68 C 238.18 460.87 239.53 463.43 242.98 464.32 C 244.21 464.60 245.10 465.65 245.18 466.91 C 245.45 468.72 245.32 470.83 246.59 472.19 C 249.43 475.19 249.45 479.13 250.31 482.78 C 250.78 485.10 251.40 487.38 252.14 489.63 C 252.48 490.57 252.82 491.56 254.14 491.47 C 255.46 491.38 255.73 490.47 256.00 489.47 C 256.41 487.61 256.72 485.73 256.94 483.84 C 257.56 480.37 258.21 476.95 259.94 473.79 C 261.17 471.35 261.80 468.66 261.78 465.93 C 261.74 464.77 261.91 463.62 262.27 462.52 C 264.06 457.97 264.12 453.15 264.56 448.39 C 264.74 446.85 264.80 445.30 264.74 443.75 C 264.98 443.31 265.39 442.99 265.87 442.86 C 267.18 442.45 268.54 442.21 269.87 441.86 C 270.44 441.56 271.14 441.62 271.65 442.02 C 271.90 442.79 271.85 443.64 271.49 444.37 C 269.55 450.76 267.49 457.13 266.85 463.84 C 266.47 466.30 266.81 468.82 267.85 471.08 C 269.07 473.59 269.63 476.36 269.48 479.14 C 269.46 484.23 270.24 489.29 271.79 494.14 C 272.26 495.54 272.40 497.02 272.21 498.48 Z" fill="#f26c60" fill-rule="nonzero" node-id="132" stroke="none" target-height="87.846954" target-width="53.53038" target-x="218.71486" target-y="435.35"></path><path d="M 226.37 421.78 L 219.16 419.71 C 218.71 419.18 218.45 418.51 218.42 417.82 C 218.42 412.98 217.82 408.16 218.06 403.32 C 218.12 402.25 218.16 401.19 219.54 400.95 C 220.33 400.76 221.17 400.87 221.89 401.25 C 233.50 405.48 245.54 408.41 257.79 410.01 C 264.13 410.89 270.51 411.35 276.89 411.83 C 281.26 412.16 285.66 411.72 290.02 412.42 C 290.77 412.44 291.50 412.64 292.14 413.02 C 293.14 414.79 293.14 416.79 293.29 418.70 C 293.60 422.12 293.91 425.53 294.50 428.92 C 294.72 429.59 294.58 430.33 294.13 430.87 C 291.13 429.07 287.82 430.06 284.64 429.87 C 283.10 429.77 281.55 429.87 280.00 429.87 C 279.06 429.17 278.50 430.36 277.70 430.35 C 276.69 429.91 275.62 429.65 274.53 429.57 C 268.54 429.51 262.57 428.92 256.69 427.81 C 247.69 426.31 238.69 425.08 229.80 423.26 C 228.59 422.94 227.26 422.86 226.37 421.78 Z" fill="#252a47" fill-rule="nonzero" node-id="134" stroke="none" target-height="29.983276" target-width="76.54898" target-x="218.01498" target-y="400.88672"></path><path d="M 381.13 419.39 C 380.13 420.12 378.88 420.09 377.79 420.56 C 377.24 420.80 376.55 420.81 376.24 421.47 C 374.51 422.65 372.37 423.09 370.31 422.67 C 369.40 422.49 368.46 422.53 367.58 422.81 C 364.20 423.67 360.71 423.98 357.47 425.55 C 355.05 426.73 352.18 426.60 349.47 426.98 C 343.82 427.78 338.12 428.08 332.47 428.60 C 330.52 428.88 328.56 429.03 326.59 429.02 C 321.93 429.65 317.22 429.57 312.59 430.11 C 311.89 430.24 311.16 430.07 310.59 429.63 C 309.59 428.07 310.49 426.46 310.59 424.93 C 310.87 421.32 311.08 417.71 311.36 414.10 C 311.33 413.52 311.48 412.95 311.79 412.46 C 312.76 411.71 313.98 411.35 315.20 411.46 C 321.20 411.14 327.25 410.46 333.25 409.69 C 343.09 408.45 352.86 406.78 362.55 404.69 C 367.91 403.53 373.21 402.17 378.55 400.85 C 379.59 400.49 380.73 400.57 381.71 401.08 C 382.25 401.98 382.40 403.06 382.13 404.08 C 381.59 408.31 381.95 412.56 381.83 416.80 C 381.83 417.76 381.93 418.70 381.13 419.39 Z" fill="#252a47" fill-rule="nonzero" node-id="136" stroke="none" target-height="29.473663" target-width="72.07355" target-x="310.1513" target-y="400.63632"></path><path d="M 198.00 325.00 C 189.16 330.82 181.08 337.72 173.93 345.52 C 170.25 349.37 167.11 353.70 164.61 358.41 C 164.08 359.31 164.04 360.41 164.50 361.35 C 167.15 367.09 168.33 373.21 169.10 379.41 C 169.50 382.69 169.24 386.04 169.53 389.35 C 170.09 395.80 170.19 402.28 169.83 408.74 C 169.42 418.09 167.79 427.35 165.00 436.28 C 164.82 436.84 164.85 437.60 164.00 437.78 C 161.62 436.17 160.51 433.90 159.81 431.11 C 155.81 415.40 155.76 399.42 156.28 383.39 C 156.47 377.57 156.51 371.75 157.48 365.95 C 159.08 356.43 164.11 348.84 170.31 341.84 C 174.56 337.03 179.31 332.70 183.80 328.14 C 186.02 326.31 188.35 324.64 190.80 323.14 C 192.51 321.91 194.48 321.95 196.38 321.72 C 197.14 321.58 198.17 323.80 198.00 325.00 Z" fill="#fefefe" fill-rule="nonzero" node-id="138" stroke="none" target-height="116.06" target-width="41.92482" target-x="156.07518" target-y="321.72"></path><path d="M 432.49 438.43 C 430.70 430.34 430.41 422.09 429.99 413.85 C 429.50 403.97 430.24 394.13 431.12 384.30 C 431.80 378.34 432.86 372.43 434.29 366.60 C 434.55 364.71 435.03 362.87 435.72 361.09 C 436.11 360.25 435.57 359.64 435.23 359.00 C 432.51 354.00 428.69 349.81 424.87 345.62 C 418.33 338.44 410.99 332.07 404.25 325.09 C 403.52 324.44 402.75 323.84 401.94 323.29 C 402.02 321.99 402.59 321.75 403.94 321.72 C 406.89 321.67 408.74 323.31 410.56 325.17 C 412.76 327.43 415.08 329.58 417.50 331.61 C 423.39 336.89 428.87 342.63 433.87 348.76 C 437.73 353.51 440.25 359.21 441.15 365.27 C 443.38 377.67 444.27 390.28 443.82 402.87 C 443.44 412.59 442.30 422.21 438.69 431.37 C 437.88 433.60 436.74 435.70 435.31 437.59 C 434.58 438.53 433.71 439.10 432.49 438.43 Z" fill="#fefefe" fill-rule="nonzero" node-id="140" stroke="none" target-height="116.99716" target-width="41.96521" target-x="401.94" target-y="321.72"></path><path d="M 183.77 311.81 L 183.66 310.07 C 183.48 301.63 183.66 293.20 183.56 284.76 C 183.56 283.52 184.17 283.41 185.10 283.66 C 185.71 283.84 186.31 284.05 186.89 284.31 C 192.26 286.60 197.96 288.05 203.77 288.61 C 205.77 288.81 206.55 289.61 206.65 291.38 C 207.08 299.05 207.42 306.72 207.36 314.38 C 207.36 317.02 206.58 317.90 204.11 317.69 C 198.58 317.23 193.11 316.59 187.88 314.45 C 186.38 313.85 184.63 313.47 183.77 311.81 Z" fill="#eceef0" fill-rule="nonzero" node-id="142" stroke="none" target-height="34.137817" target-width="23.800003" target-x="183.56" target-y="283.5522"></path><path d="M 332.61 428.06 C 334.07 427.40 335.69 427.55 337.20 427.46 C 343.52 427.06 349.79 426.27 356.04 425.29 C 356.44 425.30 356.84 425.22 357.21 425.06 C 360.59 422.76 364.66 422.97 368.37 421.89 C 368.69 421.78 369.04 421.76 369.37 421.84 C 371.32 422.41 373.41 422.22 375.22 421.30 C 375.56 421.21 375.93 421.27 376.22 421.47 L 376.97 423.89 C 377.04 425.43 375.86 426.09 374.82 426.76 C 371.93 428.58 368.77 429.93 365.46 430.76 C 363.80 431.24 362.10 431.61 360.39 431.86 C 358.76 432.03 357.27 432.82 356.21 434.07 C 354.03 436.61 351.51 438.86 349.71 441.71 C 348.87 443.03 347.62 443.20 346.29 443.33 C 341.13 443.16 336.09 441.73 331.60 439.18 C 330.70 438.72 330.18 437.75 330.28 436.74 C 330.37 434.49 330.71 432.26 331.28 430.08 C 331.48 429.28 331.95 428.57 332.61 428.06 Z" fill="#131831" fill-rule="nonzero" node-id="144" stroke="none" target-height="22.052887" target-width="46.690002" target-x="330.28" target-y="421.2771"></path><path d="M 226.37 421.78 C 229.76 422.44 233.13 423.18 236.54 423.78 C 245.73 425.27 254.94 426.70 264.14 428.13 C 267.62 428.62 271.13 428.86 274.64 428.85 C 275.88 428.85 277.36 428.67 278.06 430.22 C 279.06 431.22 278.60 432.34 278.46 433.43 C 278.34 434.16 278.16 434.88 277.93 435.58 C 277.83 436.05 277.70 436.50 277.53 436.95 C 276.79 438.49 276.25 440.23 274.14 440.43 C 272.31 440.43 270.62 441.18 268.83 441.43 C 268.05 441.57 267.26 441.65 266.47 441.66 C 264.27 441.75 262.70 440.66 261.20 439.17 C 258.65 436.72 255.67 434.76 252.41 433.39 C 250.79 432.78 249.07 432.44 247.34 432.39 C 241.59 431.86 236.21 429.82 230.67 428.39 C 229.34 427.97 228.08 427.38 226.91 426.62 C 226.12 426.22 225.56 425.48 225.38 424.62 C 225.45 423.60 225.79 422.62 226.37 421.78 Z" fill="#131831" fill-rule="nonzero" node-id="146" stroke="none" target-height="19.880005" target-width="53.307495" target-x="225.38" target-y="421.78"></path><path d="M 225.38 424.60 C 228.64 427.72 233.01 428.15 237.03 429.42 C 241.27 430.65 245.61 431.52 250.00 432.00 C 253.59 432.48 256.64 434.52 259.47 436.74 C 260.82 437.81 262.10 438.97 263.29 440.22 C 264.21 441.22 265.29 440.78 266.36 440.97 C 265.82 442.31 264.41 441.63 263.52 442.19 C 255.03 443.22 246.43 442.78 238.10 440.88 C 234.76 440.16 231.56 438.92 228.61 437.21 C 225.76 435.48 224.00 433.10 224.25 429.58 C 224.25 427.86 224.63 426.15 225.38 424.60 Z" fill="#252a47" fill-rule="nonzero" node-id="148" stroke="none" target-height="18.087067" target-width="42.109985" target-x="224.25" target-y="424.6"></path><path d="M 274.37 440.00 C 275.78 439.36 276.43 438.07 277.11 436.80 C 277.49 436.73 277.64 436.99 277.78 437.27 C 277.97 437.82 277.97 438.42 277.78 438.97 C 277.21 441.26 276.98 443.62 277.09 445.97 C 276.70 446.77 277.53 447.70 276.83 448.47 C 275.87 453.50 274.91 458.52 273.94 463.55 C 273.24 467.52 272.81 471.53 272.66 475.55 C 272.50 478.42 272.27 481.30 272.22 484.18 C 272.11 487.75 272.60 491.32 273.65 494.74 C 273.30 496.03 272.82 497.29 272.24 498.49 C 270.53 492.27 268.59 486.08 268.78 479.49 C 269.01 476.65 268.45 473.81 267.16 471.27 C 265.36 468.05 265.95 464.65 266.45 461.27 C 267.59 454.69 269.29 448.22 271.55 441.93 C 271.93 440.53 273.25 440.39 274.37 440.00 Z" fill="#e74e40" fill-rule="nonzero" node-id="150" stroke="none" target-height="61.690002" target-width="11.979797" target-x="265.9425" target-y="436.8"></path><path d="M 332.90 440.91 C 332.96 441.59 333.11 442.26 333.34 442.91 C 334.87 445.91 334.13 449.24 334.76 452.37 C 334.98 453.46 333.84 454.44 333.95 455.65 C 334.12 457.60 334.28 459.55 334.41 461.50 C 334.89 468.55 336.68 475.50 336.41 482.61 C 336.29 486.11 336.03 489.50 334.51 492.69 C 332.17 497.58 331.51 502.76 331.43 508.12 C 331.36 511.68 330.25 515.12 329.43 518.61 C 328.43 518.46 328.09 517.26 327.05 517.22 C 328.38 511.97 328.48 506.62 328.38 501.22 C 328.39 499.32 328.71 497.44 329.33 495.65 C 330.82 490.57 331.83 485.36 332.33 480.09 C 333.12 472.96 331.42 466.09 330.66 459.17 C 330.21 455.70 329.22 452.33 327.72 449.17 C 327.46 448.46 327.53 447.68 327.92 447.03 C 328.62 445.22 328.99 443.29 329.03 441.35 C 329.59 440.23 329.96 438.94 331.46 438.67 C 332.00 439.40 333.26 439.61 332.90 440.91 Z" fill="#e74e40" fill-rule="nonzero" node-id="152" stroke="none" target-height="79.93997" target-width="9.360016" target-x="327.05" target-y="438.67"></path><path d="M 253.09 82.45 C 246.40 83.61 239.78 85.19 233.29 87.18 C 231.81 87.63 230.29 88.06 228.83 88.50 C 235.05 81.69 241.14 74.75 248.60 69.21 C 249.60 69.72 250.52 69.33 251.45 69.15 C 254.65 68.55 257.90 68.15 261.12 67.69 C 261.85 67.52 262.62 67.60 263.31 67.91 C 264.31 68.84 263.52 69.57 262.99 70.26 C 260.64 73.37 258.13 76.35 255.87 79.53 C 255.22 80.19 255.00 81.17 255.29 82.05 C 254.73 83.10 253.78 82.09 253.09 82.45 Z" fill="#ec6d61" fill-rule="nonzero" node-id="154" stroke="none" target-height="20.879875" target-width="34.938553" target-x="228.83" target-y="67.620125"></path><path d="M 346.36 442.69 C 347.87 442.85 348.69 442.05 349.52 440.85 C 351.72 437.84 354.21 435.04 356.95 432.51 C 357.88 431.73 359.03 431.26 360.24 431.19 C 364.93 430.53 369.46 429.03 373.62 426.78 C 374.96 426.10 376.11 425.11 376.99 423.89 C 377.56 424.96 377.90 426.14 377.99 427.35 C 378.31 427.76 378.12 428.30 378.32 428.74 C 378.32 429.41 378.36 430.08 378.46 430.74 C 378.70 432.40 377.72 433.59 376.81 434.74 C 375.29 436.56 373.40 438.03 371.27 439.05 C 365.71 441.86 359.59 443.42 353.36 443.59 C 351.59 443.45 349.81 443.41 348.03 443.46 C 347.36 443.47 346.59 443.62 346.36 442.69 Z" fill="#252a47" fill-rule="nonzero" node-id="156" stroke="none" target-height="19.699982" target-width="32.100006" target-x="346.36" target-y="423.89"></path><path d="M 219.86 401.33 C 218.61 401.33 218.86 402.27 218.79 403.06 C 218.57 408.62 219.29 414.16 219.16 419.71 C 216.89 418.59 214.50 417.73 212.03 417.16 C 210.08 416.61 208.27 415.65 206.72 414.34 C 205.63 413.43 204.12 413.23 202.83 413.83 C 202.50 413.59 202.35 413.17 202.45 412.78 C 205.05 407.94 205.98 402.61 206.98 397.29 C 207.10 396.64 206.98 395.88 207.69 395.44 C 211.19 397.53 214.87 399.29 218.69 400.71 C 219.00 401.00 219.83 400.46 219.86 401.33 Z" fill="#3a3f59" fill-rule="nonzero" node-id="158" stroke="none" target-height="24.269989" target-width="17.410004" target-x="202.45" target-y="395.44"></path><path d="M 287.81 41.47 C 291.69 39.13 295.34 36.35 299.52 34.59 C 304.01 32.71 308.67 31.76 313.14 34.87 C 315.05 36.25 317.03 37.53 318.97 38.87 C 320.66 40.15 322.30 41.50 323.97 42.87 C 324.65 43.41 325.74 44.06 324.54 45.16 C 324.05 45.35 323.52 45.38 323.01 45.26 C 315.47 43.73 307.83 43.62 300.17 43.72 C 296.09 43.82 292.02 44.22 288.00 44.90 C 287.07 45.20 286.07 45.26 285.11 45.08 C 284.06 44.46 284.77 43.94 285.25 43.49 C 286.00 42.74 287.08 42.30 287.81 41.47 Z" fill="#d04b40" fill-rule="nonzero" node-id="160" stroke="none" target-height="12.467533" target-width="40.470337" target-x="284.59802" target-y="32.85875"></path><path d="M 381.13 419.39 C 381.08 413.27 381.08 407.14 381.47 401.02 C 381.47 400.78 381.73 400.78 381.88 400.69 C 385.27 399.96 388.56 398.86 391.88 397.82 C 392.42 398.54 392.66 399.43 392.57 400.32 C 392.50 401.98 392.74 403.67 392.24 405.01 C 392.20 404.27 392.47 403.54 392.99 403.01 C 393.70 406.22 394.31 409.46 396.48 412.11 C 394.76 412.55 393.53 413.85 391.99 414.62 C 388.44 416.37 385.00 418.47 381.13 419.39 Z" fill="#3a3f59" fill-rule="nonzero" node-id="162" stroke="none" target-height="21.570007" target-width="15.350006" target-x="381.13" target-y="397.82"></path><path d="M 369.00 83.73 C 363.77 82.43 358.48 81.40 353.16 80.52 C 352.55 80.35 351.90 80.35 351.29 80.52 C 351.12 80.58 350.94 80.55 350.79 80.45 C 349.11 78.57 348.27 76.19 347.00 74.07 C 346.16 72.69 345.42 71.25 344.62 69.84 C 344.24 69.17 343.70 68.43 344.51 67.65 C 346.77 67.03 348.95 67.92 351.17 68.06 C 352.31 68.14 353.42 68.48 354.41 69.06 C 356.17 70.44 357.80 71.97 359.30 73.63 C 362.30 76.50 365.17 79.45 368.08 82.38 C 368.45 82.74 369.00 83.06 369.00 83.73 Z" fill="#ec6d61" fill-rule="nonzero" node-id="164" stroke="none" target-height="16.29734" target-width="24.881256" target-x="344.11874" target-y="67.43266"></path><path d="M 183.77 311.81 C 190.26 315.28 197.32 316.48 204.56 317.01 C 206.22 317.13 206.66 316.64 206.66 314.91 C 206.66 309.08 206.31 303.26 206.24 297.43 C 206.24 295.23 206.02 293.04 206.02 290.85 C 206.02 289.85 205.69 289.59 204.77 289.51 C 200.23 289.10 195.75 288.20 191.40 286.82 C 188.76 285.94 186.17 284.91 183.66 283.71 L 183.66 310.07 C 183.39 309.44 183.30 308.75 183.41 308.07 C 183.41 300.59 183.41 293.07 183.41 285.63 C 183.41 284.20 183.62 282.77 183.74 281.35 C 190.48 285.19 197.84 286.94 205.50 287.57 C 207.67 287.75 208.01 287.97 208.01 290.14 C 208.01 297.37 208.59 304.58 208.44 311.81 C 208.44 312.96 208.49 314.10 208.61 315.24 C 208.84 317.95 207.91 318.94 205.17 318.88 C 197.71 318.70 190.50 317.41 183.77 314.02 C 183.78 313.27 183.77 312.54 183.77 311.81 Z" fill="#455a64" fill-rule="nonzero" node-id="166" stroke="none" target-height="37.53" target-width="25.218246" target-x="183.39175" target-y="281.35"></path><path d="M 379.05 94.00 C 382.05 96.74 384.61 99.93 387.38 102.90 L 389.15 104.76 C 388.73 105.96 387.76 105.54 386.99 105.38 C 384.23 104.81 381.47 104.26 378.66 103.92 C 376.84 103.70 375.01 103.47 373.17 103.39 C 371.88 103.40 370.67 102.74 369.99 101.64 C 368.31 99.02 366.66 96.38 365.10 93.64 C 364.22 92.12 364.68 91.11 366.34 91.25 C 370.68 91.61 375.08 91.82 379.05 94.00 Z" fill="#eceef0" fill-rule="nonzero" node-id="168" stroke="none" target-height="14.330002" target-width="24.473114" target-x="364.67688" target-y="91.25"></path><path d="M 224.27 429.56 C 224.92 433.42 227.27 435.89 230.71 437.56 C 235.78 439.80 241.19 441.17 246.71 441.62 C 252.28 442.10 257.88 442.10 263.45 441.62 C 265.39 441.39 265.84 441.71 265.98 443.40 L 264.98 443.76 C 264.53 444.36 263.83 444.73 263.08 444.76 C 259.06 445.50 254.96 445.66 250.90 445.22 C 247.82 444.86 244.68 445.34 241.60 444.76 C 240.38 444.53 239.02 444.66 238.22 443.39 C 235.82 442.90 233.48 442.18 231.22 441.24 C 228.39 440.08 226.03 438.01 224.51 435.35 C 223.93 433.41 223.51 431.50 224.27 429.56 Z" fill="#cdc689" fill-rule="nonzero" node-id="170" stroke="none" target-height="15.9002075" target-width="42.092514" target-x="223.8875" target-y="429.56"></path><path d="M 263.56 68.29 C 259.68 68.54 255.82 69.04 252.00 69.78 C 251.09 69.88 250.18 70.03 249.28 70.23 C 247.85 70.60 248.36 69.85 248.65 69.23 C 252.53 65.79 256.71 62.70 261.13 60.00 C 261.54 59.52 262.08 59.17 262.69 59.00 C 265.53 58.39 268.31 57.45 271.26 57.44 C 271.44 57.48 271.60 57.56 271.75 57.66 C 272.35 58.42 271.75 58.97 271.37 59.49 C 269.37 62.10 267.37 64.72 265.37 67.27 C 264.91 67.79 264.50 68.53 263.56 68.29 Z" fill="#f26c60" fill-rule="nonzero" node-id="172" stroke="none" target-height="12.860088" target-width="23.681046" target-x="248.32002" target-y="57.44"></path><path d="M 379.05 94.00 C 375.47 93.43 371.95 92.51 368.34 92.15 L 364.74 91.80 C 366.07 93.97 367.23 95.90 368.43 97.80 C 369.43 99.41 370.16 101.53 371.63 102.43 C 373.10 103.33 375.20 102.83 377.04 103.00 C 380.70 103.42 384.33 104.03 387.92 104.85 C 388.34 104.94 388.79 105.31 389.15 104.75 C 389.97 105.56 390.65 106.50 391.15 107.54 L 380.00 105.33 C 377.33 104.83 374.62 104.61 371.91 104.66 C 370.93 104.73 370.00 104.21 369.55 103.33 C 367.09 99.43 364.93 95.33 362.04 91.71 C 361.69 91.39 361.57 90.90 361.72 90.45 C 362.00 89.80 362.61 89.81 363.20 89.79 C 366.83 89.86 370.45 90.26 374.00 91.00 C 374.51 91.09 375.00 91.16 375.54 91.23 C 375.96 91.54 376.54 91.11 376.93 91.53 Z" fill="#455a64" fill-rule="nonzero" node-id="174" stroke="none" target-height="17.75" target-width="29.457245" target-x="361.69275" target-y="89.79"></path><path d="M 353.72 443.00 C 358.61 442.67 363.43 441.61 368.02 439.88 C 370.67 438.88 373.11 437.40 375.21 435.51 C 376.66 434.34 377.65 432.70 378.02 430.87 C 378.33 430.44 378.02 429.87 378.25 429.47 C 378.30 429.41 378.38 429.38 378.45 429.38 C 378.53 429.38 378.61 429.41 378.66 429.47 C 379.74 432.35 378.78 434.89 377.35 437.35 C 374.42 440.52 370.49 441.88 366.60 443.35 C 365.98 444.35 364.88 444.45 363.90 444.69 C 358.00 446.06 352.00 445.83 346.00 445.76 C 345.29 445.87 344.60 445.52 344.25 444.90 C 345.57 443.84 347.20 443.23 348.90 443.17 C 350.51 443.00 352.13 443.34 353.72 443.00 Z" fill="#cdc689" fill-rule="nonzero" node-id="176" stroke="none" target-height="16.384247" target-width="34.86432" target-x="344.25" target-y="429.38074"></path><path d="M 354.39 69.00 C 351.57 69.07 348.85 68.28 346.06 68.06 C 345.48 68.06 344.91 67.96 344.34 67.91 C 343.53 68.06 343.21 67.43 342.89 66.91 C 341.34 64.47 339.71 62.09 337.96 59.80 C 337.41 59.07 336.63 58.15 337.96 57.35 C 339.82 57.07 341.71 57.49 343.28 58.52 C 347.16 61.82 350.87 65.32 354.39 69.00 Z" fill="#f26c60" fill-rule="nonzero" node-id="178" stroke="none" target-height="11.696796" target-width="17.13501" target-x="337.255" target-y="57.303204"></path><path d="M 264.55 57.25 C 263.85 56.97 264.37 56.75 264.60 56.59 C 268.25 54.05 271.60 51.13 275.71 49.22 C 277.36 48.60 278.71 47.13 280.71 47.57 C 280.71 47.57 280.83 47.64 280.84 47.68 C 280.98 49.36 278.56 51.68 276.84 51.54 C 276.11 51.36 276.20 51.77 276.38 52.22 C 276.61 53.08 276.25 53.99 275.49 54.45 C 274.96 54.89 274.49 55.45 273.99 55.85 C 273.69 56.07 273.35 56.21 272.99 56.27 C 270.99 56.66 269.09 57.07 267.13 57.42 C 266.30 57.56 265.37 58.00 264.55 57.25 Z" fill="#f16b60" fill-rule="nonzero" node-id="180" stroke="none" target-height="10.1108055" target-width="16.630798" target-x="264.2092" target-y="47.557945"></path><path d="M 330.80 48.18 C 333.02 49.04 334.57 50.80 336.32 52.28 C 337.83 53.44 339.24 54.72 340.53 56.11 C 339.34 57.11 338.05 56.42 336.81 56.29 C 336.28 56.29 335.75 55.94 335.18 55.92 C 334.90 55.87 334.64 55.74 334.43 55.56 C 333.79 54.86 333.31 54.04 333.00 53.14 C 333.21 52.14 332.88 51.51 331.72 51.60 C 330.22 50.68 328.72 49.77 328.88 47.60 C 329.66 47.18 330.25 47.61 330.80 48.18 Z" fill="#f06b5f" fill-rule="nonzero" node-id="182" stroke="none" target-height="9.19165" target-width="11.649994" target-x="328.88" target-y="47.432102"></path><path d="M 264.55 57.25 C 267.40 56.52 270.31 56.02 273.24 55.75 C 273.54 57.17 272.41 57.41 271.51 57.84 L 261.13 60.00 C 261.52 58.12 263.22 57.92 264.55 57.25 Z" fill="#475a63" fill-rule="nonzero" node-id="184" stroke="none" target-height="4.25" target-width="12.109985" target-x="261.13" target-y="55.75"></path><path d="M 335.00 55.44 L 340.51 56.11 C 341.33 57.05 342.61 57.46 343.29 58.56 L 337.72 57.83 C 337.32 57.73 336.91 57.98 336.52 57.76 C 335.87 57.09 334.68 56.77 335.00 55.44 Z" fill="#475a63" fill-rule="nonzero" node-id="186" stroke="none" target-height="3.1200027" target-width="8.290009" target-x="335" target-y="55.44"></path><path d="M 324.93 44.68 C 323.14 42.51 320.80 40.94 318.69 39.13 C 318.69 38.58 318.93 38.51 319.34 38.80 C 322.13 40.63 324.80 42.63 327.34 44.80 C 327.55 44.97 327.87 45.10 327.73 45.48 C 327.38 45.82 326.88 45.96 326.40 45.85 C 325.75 45.68 325.13 45.45 324.93 44.68 Z" fill="#ed6a5f" fill-rule="nonzero" node-id="188" stroke="none" target-height="7.200451" target-width="9.040009" target-x="318.69" target-y="38.649548"></path><path d="M 280.88 47.84 L 275.71 49.22 C 277.23 47.72 279.20 46.91 281.01 45.86 C 281.30 45.69 281.61 45.55 281.91 45.40 C 282.46 45.10 282.97 44.67 283.66 44.93 C 284.35 46.49 283.11 47.05 282.19 47.79 C 281.79 48.04 281.30 48.05 280.88 47.84 Z" fill="#475963" fill-rule="nonzero" node-id="190" stroke="none" target-height="4.368149" target-width="8.136475" target-x="275.71" target-y="44.851852"></path><path d="M 326.31 45.26 L 327.74 45.47 C 328.88 46.24 330.49 46.47 330.80 48.18 L 328.73 47.83 C 328.32 48.04 327.83 47.99 327.46 47.72 C 326.84 47.00 325.86 46.47 326.31 45.26 Z" fill="#495963" fill-rule="nonzero" node-id="192" stroke="none" target-height="2.920002" target-width="4.5837097" target-x="326.21628" target-y="45.26"></path><path d="M 283.67 45.11 L 281.91 45.40 C 283.76 43.92 285.73 42.60 287.81 41.47 C 287.16 42.91 285.42 43.29 284.69 44.66 C 284.51 45.17 284.20 45.38 283.67 45.11 Z" fill="#dc665c" fill-rule="nonzero" node-id="194" stroke="none" target-height="3.9300003" target-width="5.899994" target-x="281.91" target-y="41.47"></path><path d="M 319.34 38.80 L 318.69 39.13 C 316.90 37.63 314.69 36.65 313.14 34.87 C 315.33 35.97 317.41 37.29 319.34 38.80 Z" fill="#db645a" fill-rule="nonzero" node-id="196" stroke="none" target-height="4.260002" target-width="6.1999817" target-x="313.14" target-y="34.87"></path><path d="M 202.45 412.78 C 202.75 413.04 202.89 413.44 202.83 413.83 C 202.37 413.92 201.96 415.03 201.45 413.89 Z" fill="#353a53" fill-rule="nonzero" node-id="198" stroke="none" target-height="1.6147156" target-width="1.3800049" target-x="201.45" target-y="412.78"></path><path d="M 378.66 429.48 L 378.39 429.48 C 378.08 429.32 378.24 428.94 378.04 428.73 C 378.04 428.27 378.04 427.81 377.99 427.35 C 378.47 427.95 378.70 428.71 378.66 429.48 Z" fill="#939071" fill-rule="nonzero" node-id="200" stroke="none" target-height="2.130005" target-width="0.6700134" target-x="377.99" target-y="427.35"></path><path d="M 376.93 91.51 C 376.45 91.63 375.93 91.52 375.54 91.21 L 376.28 90.82 C 376.60 90.93 376.84 91.19 376.93 91.51 Z" fill="#b9bcbe" fill-rule="nonzero" node-id="202" stroke="none" target-height="0.7017822" target-width="1.3899841" target-x="375.54" target-y="90.82"></path><path d="M 381.88 400.69 L 381.47 401.02 C 377.47 402.02 373.47 403.02 369.40 403.93 C 351.76 408.10 333.82 410.86 315.75 412.18 C 314.55 412.27 313.34 412.41 312.13 412.52 C 311.13 411.75 311.34 410.63 311.49 409.65 C 311.68 408.28 311.75 406.89 311.72 405.51 C 311.72 397.71 311.88 389.91 311.72 382.11 C 311.38 368.47 310.01 354.95 305.58 341.92 C 305.05 340.20 304.38 338.53 303.58 336.92 C 303.23 336.28 303.00 335.41 302.09 335.39 C 301.18 335.37 300.66 336.27 300.28 337.03 C 298.75 340.07 297.62 343.30 296.92 346.63 C 294.95 355.87 293.54 365.22 292.71 374.63 C 292.04 382.16 291.39 389.71 291.81 397.25 C 292.04 401.34 291.81 405.44 292.33 409.52 C 292.49 410.71 292.83 412.04 291.98 413.19 C 289.17 412.88 286.35 412.75 283.52 412.79 C 266.71 412.43 250.00 410.08 233.74 405.79 C 229.06 404.51 224.51 402.87 219.93 401.29 L 218.76 400.67 C 219.60 400.46 219.55 399.79 219.55 399.15 C 219.55 389.67 219.70 380.15 219.49 370.71 C 219.32 363.33 219.10 355.94 218.79 348.57 C 218.21 334.87 218.58 321.18 218.56 307.49 C 218.56 297.38 218.94 287.26 218.84 277.15 C 219.95 276.81 220.35 277.79 220.91 278.35 C 229.61 287.26 239.75 294.63 250.91 300.15 C 262.93 306.01 275.87 309.73 289.16 311.15 C 295.02 311.70 300.91 311.89 306.79 311.74 C 308.40 311.74 309.99 311.24 311.62 311.52 C 316.62 310.93 321.57 310.11 326.52 309.18 C 328.89 308.46 331.30 307.85 333.74 307.38 C 344.41 304.28 354.55 299.61 363.84 293.52 C 368.56 290.40 373.04 286.92 377.22 283.10 C 377.75 282.63 378.22 281.91 379.14 282.29 L 379.47 301.70 C 379.60 302.81 378.66 303.15 377.99 303.61 C 373.99 306.36 369.61 308.24 365.23 310.18 C 358.44 313.18 351.51 315.69 344.11 316.68 C 342.30 316.92 342.11 317.35 342.48 319.11 C 342.69 319.65 342.71 320.24 342.56 320.80 C 341.95 321.52 341.78 322.52 342.11 323.40 C 343.25 328.57 344.26 333.77 345.03 339.02 C 345.34 341.02 346.03 341.51 348.03 341.59 C 349.13 341.64 350.22 341.56 351.30 341.36 C 358.74 340.06 365.99 337.79 372.84 334.61 C 374.35 333.88 375.99 333.48 377.44 332.61 C 377.96 332.29 378.65 332.09 378.50 331.24 C 378.66 330.30 379.44 329.98 380.15 329.61 C 383.46 327.97 386.57 325.97 389.45 323.66 C 390.13 323.08 390.89 322.45 391.93 322.85 C 392.42 322.90 393.05 322.69 393.24 323.38 C 393.35 323.91 393.11 324.46 392.63 324.72 C 391.92 325.22 391.18 325.66 390.41 326.05 C 387.12 327.63 384.34 330.05 381.09 331.65 C 380.02 332.18 380.09 332.96 380.17 333.81 C 380.73 338.74 380.47 343.71 380.81 348.65 C 381.54 359.49 381.22 370.36 381.09 381.21 C 381.02 387.09 380.86 392.97 380.84 398.86 C 380.78 399.77 380.67 400.64 381.88 400.69 Z" fill="#ced7dc" fill-rule="nonzero" node-id="204" stroke="none" target-height="136.06955" target-width="174.775" target-x="218.465" target-y="277.12045"></path><path d="M 350.92 80.37 L 351.27 80.51 C 350.40 81.06 350.87 81.67 351.18 82.28 C 353.01 85.82 354.95 89.28 356.61 92.92 C 358.44 96.92 360.00 101.00 361.70 105.04 C 365.55 114.45 368.71 124.13 371.16 134.00 C 371.34 134.55 371.42 135.12 371.38 135.70 C 370.47 136.19 369.82 135.56 369.21 135.10 C 364.64 131.67 359.81 128.60 354.75 125.93 C 346.62 121.66 338.01 118.39 329.10 116.19 C 323.33 114.76 317.47 113.76 311.55 113.19 C 306.69 112.58 301.77 112.52 296.89 113.00 C 295.45 113.11 294.00 113.14 292.56 113.07 C 289.31 113.36 286.08 113.77 282.86 114.28 C 280.98 114.58 279.13 115.02 277.26 115.28 C 275.19 115.72 273.19 116.45 271.09 116.73 C 257.13 120.53 244.02 126.98 232.50 135.73 C 231.26 136.67 230.10 137.73 228.88 138.73 C 228.37 139.14 227.88 139.81 227.09 139.36 C 229.81 131.76 232.53 124.16 235.25 116.57 C 237.67 110.33 240.64 104.33 244.15 98.63 C 246.92 93.58 249.94 88.67 253.21 83.93 C 253.53 83.49 254.21 82.86 253.09 82.47 L 255.27 81.86 C 255.65 81.26 256.31 80.88 257.02 80.86 C 261.96 80.00 266.92 79.26 271.89 78.65 C 278.12 77.90 284.38 77.40 290.64 77.02 C 293.80 76.82 296.97 76.60 300.14 76.57 C 305.28 76.57 310.42 76.49 315.56 76.57 C 326.22 76.65 336.86 77.47 347.41 79.04 C 348.69 79.10 349.92 79.57 350.92 80.37 Z" fill="#ced7dc" fill-rule="nonzero" node-id="206" stroke="none" target-height="62.938988" target-width="144.29001" target-x="227.09" target-y="76.57"></path><path d="M 292.69 112.38 C 298.11 112.01 303.54 111.96 308.96 112.24 C 328.22 113.73 346.18 119.24 362.55 129.59 C 365.55 131.50 368.44 133.59 371.38 135.65 C 375.61 139.15 379.64 142.88 383.44 146.84 C 395.05 159.38 403.22 173.84 407.11 190.49 C 413.27 216.93 408.64 241.49 393.97 264.33 C 393.71 264.47 393.40 264.47 393.14 264.33 C 390.07 262.21 387.42 259.55 385.31 256.48 C 385.36 255.67 385.66 254.89 386.15 254.24 C 392.16 244.03 395.86 232.62 397.00 220.83 C 399.00 198.68 392.93 178.83 379.30 161.36 C 367.83 146.65 352.96 136.57 335.42 130.44 C 327.07 127.50 318.36 125.71 309.53 125.10 C 305.95 124.85 302.38 124.91 298.80 124.83 C 297.88 124.92 296.95 124.78 296.09 124.42 C 295.58 124.03 295.20 123.50 295.00 122.90 C 293.90 120.13 292.60 117.45 291.45 114.71 C 290.73 112.94 290.92 112.67 292.69 112.38 Z" fill="#373c59" fill-rule="nonzero" node-id="208" stroke="none" target-height="152.3652" target-width="118.688385" target-x="291.0731" target-y="112.0662"></path><path d="M 342.26 320.86 C 340.92 316.68 340.92 316.68 345.36 315.92 C 352.55 314.56 359.53 312.26 366.13 309.10 C 370.74 307.00 375.43 305.04 379.39 301.78 C 380.49 301.14 381.45 300.30 382.24 299.30 C 383.00 298.30 384.01 298.42 384.70 299.57 C 388.03 305.15 391.76 310.52 393.61 316.86 C 393.82 317.59 394.54 318.00 394.61 318.81 C 394.94 321.09 394.33 322.05 391.84 322.94 C 387.67 326.06 383.24 328.83 378.61 331.21 C 378.27 332.31 377.25 332.55 376.37 332.94 C 368.81 336.15 360.92 338.49 352.84 339.94 C 351.51 340.33 350.14 340.57 348.76 340.68 C 346.12 340.68 345.11 339.80 344.70 337.20 C 344.20 334.01 344.00 330.78 343.30 327.61 C 342.97 326.09 342.59 324.61 342.17 323.08 C 341.86 322.36 341.89 321.55 342.26 320.86 Z" fill="#fefefe" fill-rule="nonzero" node-id="210" stroke="none" target-height="42.05124" target-width="53.174805" target-x="341.48145" target-y="298.62875"></path><path d="M 385.63 256.62 L 393.02 263.62 C 393.34 263.88 393.67 264.12 394.02 264.34 C 390.09 270.51 385.45 276.20 380.19 281.28 C 379.82 281.64 379.47 282.01 379.11 282.38 C 374.07 287.07 368.63 291.29 362.83 295.00 C 353.88 300.74 344.13 305.12 333.89 308.00 C 333.55 307.79 333.15 307.64 332.97 307.26 C 331.53 304.53 330.25 301.73 329.12 298.86 C 329.04 298.58 329.04 298.29 329.12 298.01 C 329.47 297.01 330.37 296.89 331.19 296.64 C 344.19 292.80 356.25 286.31 366.62 277.58 C 373.11 272.10 378.80 265.73 383.50 258.65 C 384.00 257.81 384.32 256.64 385.63 256.62 Z" fill="#92949b" fill-rule="nonzero" node-id="212" stroke="none" target-height="51.380005" target-width="64.899994" target-x="329.12" target-y="256.62"></path><path d="M 311.37 312.15 C 290.26 314.02 269.05 310.01 250.08 300.57 C 238.45 294.85 227.97 287.03 219.17 277.51 C 219.05 277.39 218.91 277.29 218.77 277.19 C 213.65 271.47 209.15 265.22 205.35 258.54 C 195.90 241.54 191.76 223.29 193.54 203.88 C 195.21 185.47 202.25 167.96 213.78 153.52 C 215.78 150.91 217.94 148.42 220.23 146.06 C 220.95 145.82 221.31 146.34 221.64 146.78 C 223.64 149.42 225.45 152.12 227.33 154.78 C 227.65 155.20 227.80 155.72 227.75 156.25 C 227.33 157.33 226.66 158.30 225.81 159.08 C 216.24 170.39 209.83 184.03 207.22 198.61 C 204.17 215.46 206.58 232.83 214.11 248.21 C 218.53 257.59 224.63 266.09 232.11 273.27 C 243.77 284.53 258.07 292.69 273.70 297.00 C 283.84 299.83 294.34 301.11 304.86 300.80 C 306.07 300.61 307.30 300.76 308.43 301.22 C 308.90 301.57 309.22 302.09 309.33 302.66 C 309.99 305.17 310.95 307.58 311.61 310.09 C 311.79 310.77 312.00 311.51 311.37 312.15 Z" fill="#373c59" fill-rule="nonzero" node-id="214" stroke="none" target-height="166.56274" target-width="118.642456" target-x="193.1513" target-y="146.01163"></path><path d="M 227.49 156.00 L 220.23 146.00 C 222.23 143.45 224.84 141.56 227.09 139.28 C 234.98 132.44 243.80 126.76 253.29 122.41 C 258.93 119.79 264.80 117.67 270.82 116.10 C 271.34 116.55 271.75 117.12 272.02 117.76 C 273.09 120.23 274.29 122.65 275.49 125.06 C 275.92 125.68 276.08 126.45 275.93 127.19 C 275.34 128.24 274.23 128.33 273.26 128.60 C 262.92 131.54 253.12 136.15 244.26 142.25 C 238.88 146.01 233.87 150.28 229.30 155.00 C 228.81 155.48 228.44 156.28 227.49 156.00 Z" fill="#92949b" fill-rule="nonzero" node-id="216" stroke="none" target-height="39.92518" target-width="55.699997" target-x="220.23" target-y="116.1"></path><path d="M 315.19 455.84 C 315.98 463.92 315.19 472.00 315.19 480.07 C 315.34 481.89 314.76 483.69 313.57 485.07 C 312.91 485.77 312.99 486.81 312.87 487.71 C 312.53 491.64 311.05 495.39 308.62 498.50 C 307.13 500.30 306.76 502.70 306.01 504.87 C 305.47 506.45 305.01 508.02 302.85 507.94 C 301.26 507.87 300.14 506.82 299.60 504.62 C 298.05 498.34 296.90 491.98 296.14 485.56 C 295.98 484.24 295.87 483.14 293.99 483.27 C 292.62 483.37 291.70 482.27 291.10 481.10 C 290.55 479.95 290.25 478.69 290.24 477.42 C 290.07 470.44 290.43 463.45 291.30 456.52 C 291.86 455.91 292.72 455.68 293.51 455.92 C 300.01 456.85 306.63 456.73 313.09 455.54 C 313.77 455.40 314.56 455.20 315.19 455.84 Z" fill="#fef49c" fill-rule="nonzero" node-id="218" stroke="none" target-height="52.54248" target-width="25.283356" target-x="290.24" target-y="455.39752"></path><path d="M 315.19 455.84 C 308.02 457.41 300.62 457.68 293.35 456.61 C 292.66 456.54 291.97 456.50 291.28 456.50 L 288.13 455.50 C 287.60 454.42 286.27 453.64 286.88 452.14 C 287.11 451.99 287.39 451.91 287.67 451.91 C 290.63 452.75 293.63 453.41 296.67 453.91 C 297.93 453.92 299.18 454.03 300.42 454.24 C 301.94 454.90 303.42 455.24 305.00 454.24 C 309.12 453.93 313.18 453.08 317.08 451.73 C 317.56 451.52 318.11 451.52 318.59 451.73 C 319.59 453.41 318.09 454.09 317.30 455.06 Z" fill="#c9c284" fill-rule="nonzero" node-id="220" stroke="none" target-height="5.646057" target-width="32.15851" target-x="286.7465" target-y="451.5689"></path><path d="M 317.30 455.14 C 317.38 453.92 318.61 453.20 318.68 451.98 C 318.58 451.85 318.56 451.66 318.63 451.51 C 319.80 450.37 321.37 449.85 322.68 448.92 C 325.37 447.10 327.37 444.42 328.37 441.33 C 328.62 440.96 328.82 440.47 329.37 440.57 C 329.67 440.64 329.67 440.98 329.49 441.26 C 329.70 444.03 329.08 446.80 327.70 449.21 C 324.94 452.45 321.32 454.14 317.30 455.14 Z" fill="#cdc589" fill-rule="nonzero" node-id="222" stroke="none" target-height="14.570007" target-width="12.30722" target-x="317.3" target-y="440.57"></path><path d="M 286.78 452.32 C 287.41 453.32 288.33 454.16 288.13 455.50 C 283.58 454.39 279.34 452.81 276.80 448.50 C 276.49 447.68 276.35 446.81 276.39 445.93 C 277.09 445.88 277.77 446.16 278.23 446.68 C 280.37 448.40 282.72 449.83 285.23 450.94 C 285.90 451.21 286.75 451.35 286.78 452.32 Z" fill="#cdc689" fill-rule="nonzero" node-id="224" stroke="none" target-height="9.570007" target-width="11.73999" target-x="276.39" target-y="445.93"></path><path d="M 402.69 341.37 C 402.96 339.69 403.50 338.06 404.29 336.54 C 404.66 335.85 405.20 335.43 405.97 335.85 C 406.74 336.27 406.50 336.91 406.21 337.51 C 405.62 338.82 405.14 340.17 404.77 341.56 C 404.57 342.21 404.20 342.76 403.41 342.50 C 402.92 342.36 402.60 341.88 402.69 341.37 Z" fill="#475c66" fill-rule="nonzero" node-id="226" stroke="none" target-height="6.8686523" target-width="3.7974854" target-x="402.69" target-y="335.6823"></path><path d="M 414.13 345.50 C 413.94 346.12 413.71 347.00 413.41 347.86 C 413.35 348.12 413.19 348.34 412.95 348.46 C 412.72 348.59 412.45 348.60 412.20 348.51 C 411.67 348.37 411.36 347.83 411.49 347.30 C 411.66 346.41 411.89 345.52 412.17 344.66 C 412.29 344.13 412.81 343.79 413.34 343.89 C 414.06 344.00 414.12 344.63 414.13 345.50 Z" fill="#485c66" fill-rule="nonzero" node-id="228" stroke="none" target-height="4.677124" target-width="2.6400146" target-x="411.49" target-y="343.89"></path><path d="M 423.50 354.00 C 423.14 354.86 423.60 356.33 422.04 356.47 C 421.71 356.47 421.40 356.31 421.22 356.04 C 421.03 355.77 420.99 355.43 421.10 355.12 C 421.37 354.12 421.00 352.70 422.48 352.47 C 423.42 352.35 423.48 353.22 423.50 354.00 Z" fill="#495e68" fill-rule="nonzero" node-id="230" stroke="none" target-height="4" target-width="2.4554138" target-x="421.0446" target-y="352.47"></path><path d="M 393.00 403.00 C 392.52 404.48 392.71 406.06 392.25 407.55 C 391.86 405.15 391.97 402.69 392.58 400.34 C 392.85 401.20 392.99 402.10 393.00 403.00 Z" fill="#313752" fill-rule="nonzero" node-id="232" stroke="none" target-height="7.2099915" target-width="0.9734802" target-x="392.02652" target-y="400.34"></path><path d="M 186.21 351.87 C 186.21 352.87 186.15 353.48 185.44 353.64 C 184.73 353.80 184.44 353.24 184.22 352.70 C 183.75 351.52 183.28 350.35 182.85 349.16 C 182.62 348.55 182.47 347.87 183.24 347.52 C 184.01 347.17 184.46 347.66 184.77 348.26 C 185.45 349.37 185.94 350.59 186.21 351.87 Z" fill="#475c66" fill-rule="nonzero" node-id="234" stroke="none" target-height="6.23584" target-width="3.5400085" target-x="182.67" target-y="347.40417"></path><path d="M 197.47 340.90 C 197.42 341.42 197.32 341.81 196.87 341.97 C 196.49 342.17 196.03 342.06 195.77 341.72 C 194.97 340.39 194.21 339.04 193.49 337.67 C 193.30 337.29 193.43 336.82 193.79 336.59 C 194.18 336.29 194.72 336.32 195.08 336.65 C 196.18 337.87 196.99 339.33 197.47 340.90 Z" fill="#465b65" fill-rule="nonzero" node-id="236" stroke="none" target-height="5.663574" target-width="4.036484" target-x="193.43352" target-y="336.38385"></path><path d="M 174.20 361.28 C 174.27 362.06 174.09 362.53 173.51 362.71 C 172.93 362.89 172.51 362.53 172.28 362.03 C 171.87 361.08 171.63 360.06 171.58 359.03 C 171.58 358.46 171.71 357.97 172.36 357.87 C 172.62 357.81 172.89 357.86 173.12 358.00 C 173.34 358.14 173.50 358.37 173.56 358.63 C 173.84 359.55 174.00 360.52 174.20 361.28 Z" fill="#495d67" fill-rule="nonzero" node-id="238" stroke="none" target-height="4.8399963" target-width="2.619995" target-x="171.58" target-y="357.87"></path><path d="M 344.33 444.73 C 344.71 444.99 345.18 445.11 345.64 445.07 C 352.45 445.18 359.27 445.32 365.91 443.40 C 366.14 443.36 366.37 443.33 366.60 443.33 C 368.24 449.63 366.76 455.33 363.15 460.55 C 362.35 461.74 361.87 463.12 361.75 464.55 C 361.36 467.65 360.71 470.70 359.80 473.69 C 359.49 475.17 358.85 476.56 357.91 477.75 C 354.57 481.28 353.75 485.75 353.02 490.28 C 352.79 491.70 352.51 493.12 352.19 494.53 C 352.05 495.80 350.97 496.76 349.69 496.76 C 348.27 496.76 347.64 495.84 347.30 494.66 C 346.39 491.19 345.76 487.66 345.39 484.10 C 345.32 483.53 345.39 482.89 344.88 482.50 C 342.56 480.76 342.42 478.18 342.27 475.63 C 342.03 471.88 342.46 468.11 341.98 464.37 C 341.95 463.80 341.80 463.24 341.53 462.73 C 339.60 459.86 339.59 456.73 340.23 453.56 C 340.83 450.73 341.19 447.86 341.32 444.97 C 342.07 443.71 342.77 443.64 344.33 444.73 Z" fill="#fef49c" fill-rule="nonzero" node-id="240" stroke="none" target-height="53.430023" target-width="27.348053" target-x="339.89078" target-y="443.33"></path><path d="M 344.33 444.73 C 343.33 445.05 342.24 444.01 341.33 445.00 C 341.13 444.36 340.59 444.19 340.02 444.07 C 337.45 443.54 335.03 442.46 332.91 440.91 C 332.43 440.24 331.91 439.57 331.46 438.91 C 331.48 438.82 331.55 438.75 331.64 438.72 C 331.73 438.69 331.82 438.72 331.89 438.78 C 335.61 440.57 339.57 441.80 343.64 442.44 C 344.55 442.56 345.46 442.62 346.37 442.71 C 348.80 443.30 351.28 442.77 353.73 443.02 C 352.31 443.71 350.80 443.22 349.34 443.34 C 348.60 443.26 347.87 443.56 347.39 444.14 C 346.59 445.19 345.35 444.54 344.33 444.73 Z" fill="#c9c184" fill-rule="nonzero" node-id="242" stroke="none" target-height="6.278534" target-width="22.27002" target-x="331.46" target-y="438.72147"></path><path d="M 238.18 443.36 C 240.23 443.96 242.35 444.27 244.48 444.30 C 251.31 444.45 258.17 445.37 264.94 443.70 C 266.22 445.70 265.25 447.77 265.14 449.78 C 265.03 454.46 264.21 459.09 262.72 463.53 C 262.10 465.19 262.40 467.18 262.15 469.01 C 261.85 471.42 261.02 473.74 259.74 475.81 C 258.29 478.13 258.23 480.86 257.68 483.44 C 257.32 485.12 257.19 486.86 256.93 488.57 C 256.86 489.14 256.73 489.70 256.54 490.25 C 256.28 491.42 255.26 492.27 254.06 492.31 C 252.65 492.31 252.00 491.49 251.59 490.31 C 250.49 486.78 249.63 483.19 249.00 479.55 C 248.82 478.65 248.60 477.75 248.48 476.83 C 248.33 475.66 247.74 474.59 246.83 473.83 C 244.96 472.13 244.83 469.58 244.60 467.25 C 244.43 465.81 243.96 465.15 242.51 464.87 C 239.65 464.32 238.16 462.24 237.26 459.65 C 236.19 456.59 236.66 453.47 236.99 450.38 C 237.19 448.00 237.76 445.69 238.18 443.36 Z" fill="#fef49c" fill-rule="nonzero" node-id="244" stroke="none" target-height="48.950012" target-width="28.961273" target-x="236.6" target-y="443.36"></path><path d="M 266.00 443.34 C 265.35 442.47 264.83 441.42 263.47 441.56 C 264.38 441.04 265.47 441.51 266.41 440.95 C 268.25 440.80 270.07 440.49 271.85 440.03 C 272.68 439.76 273.56 439.74 274.40 439.97 C 273.56 440.78 272.60 441.45 271.55 441.97 C 269.76 442.64 267.90 443.10 266.00 443.34 Z" fill="#c8c083" fill-rule="nonzero" node-id="246" stroke="none" target-height="3.5274963" target-width="10.929993" target-x="263.47" target-y="439.8125"></path><path d="M 291.91 413.26 C 291.61 411.45 291.42 409.62 291.32 407.78 C 291.32 401.25 290.57 394.78 290.97 388.22 C 291.43 380.64 291.92 373.06 292.89 365.51 C 293.86 357.96 295.24 350.72 296.89 343.41 C 297.58 340.66 298.72 338.05 300.24 335.66 C 301.32 333.82 302.89 334.00 303.88 335.94 C 306.88 341.82 308.35 348.18 309.67 354.57 C 311.12 362.21 311.97 369.96 312.20 377.73 C 312.66 387.61 312.30 397.48 312.47 407.35 C 312.47 409.08 311.90 410.78 312.16 412.52 C 311.69 418.17 311.22 423.82 310.73 429.45 C 310.80 429.95 310.66 430.26 310.08 430.19 C 309.08 429.19 309.77 427.79 309.33 426.65 C 310.02 418.89 310.25 411.09 310.00 403.30 C 309.82 394.71 309.15 386.13 308.00 377.61 C 307.24 371.31 306.06 365.07 304.47 358.92 C 303.88 356.75 303.11 354.63 302.62 352.43 C 302.57 352.04 302.32 351.71 301.96 351.56 C 301.10 352.54 300.53 353.74 300.32 355.03 C 298.87 361.03 297.81 367.12 297.15 373.26 C 296.39 379.68 296.34 386.15 295.72 392.57 C 294.88 401.32 294.72 410.08 294.72 418.86 C 294.72 421.52 295.13 424.15 295.12 426.81 C 294.99 427.57 295.05 428.36 295.29 429.09 C 295.48 430.24 295.60 431.41 295.63 432.58 C 295.51 433.07 295.44 433.58 294.81 433.72 C 293.47 433.05 293.62 431.98 294.03 430.84 C 293.36 425.78 292.73 420.72 292.12 415.66 C 292.00 414.86 292.00 414.06 291.91 413.26 Z" fill="#eceef0" fill-rule="nonzero" node-id="248" stroke="none" target-height="99.337494" target-width="21.614044" target-x="290.85596" target-y="334.3825"></path><path d="M 294.05 430.84 C 294.74 431.65 294.00 432.84 294.76 433.61 C 295.85 434.70 295.57 436.20 295.92 437.50 C 296.34 439.11 296.48 440.78 297.00 442.37 C 298.22 445.85 299.46 449.32 300.64 452.81 C 300.96 453.43 300.98 454.17 300.69 454.81 C 296.16 454.84 291.67 454.00 287.46 452.34 C 286.46 451.74 286.46 450.78 286.46 449.76 C 286.46 445.90 286.46 442.05 286.76 438.19 C 286.95 435.82 286.76 435.72 284.43 435.19 C 283.01 434.97 281.61 434.63 280.24 434.19 C 279.30 433.81 278.44 433.33 278.50 432.10 C 278.66 431.05 278.23 429.80 279.50 429.10 C 283.50 429.10 287.43 429.17 291.39 429.10 C 292.79 429.00 293.80 429.26 294.05 430.84 Z" fill="#131831" fill-rule="nonzero" node-id="250" stroke="none" target-height="25.709991" target-width="22.394989" target-x="278.5" target-y="429.1"></path><path d="M 279.47 429.10 L 278.78 431.88 C 278.46 432.37 278.78 432.83 278.83 433.32 C 279.12 434.27 278.76 435.29 277.94 435.85 C 277.75 435.89 277.55 435.84 277.40 435.71 C 277.71 433.87 278.40 432.07 278.06 430.17 C 278.07 429.20 278.22 428.42 279.47 429.10 Z" fill="#47484e" fill-rule="nonzero" node-id="252" stroke="none" target-height="7.008026" target-width="2.0700073" target-x="277.4" target-y="428.84198"></path><path d="M 310.37 430.15 L 310.70 429.45 L 324.80 428.45 C 325.43 428.45 326.07 428.45 326.71 428.45 C 327.40 429.08 327.71 430.03 327.52 430.95 C 327.29 431.92 326.57 432.71 325.63 433.03 C 324.44 433.62 323.22 434.12 321.99 434.61 C 319.68 435.53 319.49 435.85 319.83 438.34 C 320.30 441.35 320.50 444.40 320.42 447.45 C 320.35 449.08 320.14 450.67 318.73 451.78 C 318.71 451.86 318.69 451.93 318.68 452.01 C 314.65 453.60 310.40 454.57 306.07 454.86 C 305.67 454.86 305.26 454.86 304.86 454.86 C 304.14 454.11 304.66 453.33 304.86 452.60 C 306.41 447.47 307.66 442.26 308.60 436.99 C 309.17 434.66 309.37 432.30 310.37 430.15 Z" fill="#131831" fill-rule="nonzero" node-id="254" stroke="none" target-height="26.409973" target-width="23.027405" target-x="304.515" target-y="428.45"></path><path d="M 327.05 430.81 C 327.05 430.00 326.52 429.26 326.70 428.42 C 328.70 428.35 330.62 427.86 332.61 428.06 C 331.83 430.72 331.29 433.44 331.00 436.19 C 330.92 437.28 331.00 438.12 331.88 438.76 L 331.45 438.89 L 329.45 441.26 C 328.80 440.57 329.09 441.72 328.74 441.62 C 328.41 441.40 328.22 441.02 328.24 440.62 C 328.23 438.27 327.85 435.94 327.10 433.71 C 326.86 432.69 327.25 431.76 327.05 430.81 Z" fill="#535353" fill-rule="nonzero" node-id="256" stroke="none" target-height="13.559998" target-width="5.909973" target-x="326.7" target-y="428.06"></path><path d="M 203.00 294.17 C 202.46 294.17 202.12 293.91 202.11 293.35 C 202.08 293.12 202.15 292.88 202.31 292.70 C 202.47 292.53 202.69 292.43 202.93 292.43 C 203.41 292.41 203.82 292.78 203.84 293.26 C 203.85 293.75 203.48 294.15 203.00 294.17 Z" fill="#546770" fill-rule="nonzero" node-id="258" stroke="none" target-height="1.7400208" target-width="1.7250061" target-x="202.11" target-y="292.43"></path><path d="M 204.08 313.31 C 203.98 313.82 203.70 314.17 203.15 314.14 C 202.91 314.15 202.69 314.05 202.53 313.88 C 202.37 313.70 202.30 313.46 202.33 313.23 C 202.31 312.99 202.41 312.76 202.59 312.60 C 202.76 312.44 203.01 312.38 203.24 312.42 C 203.47 312.41 203.70 312.51 203.86 312.68 C 204.02 312.85 204.10 313.08 204.08 313.31 Z" fill="#5a6c75" fill-rule="nonzero" node-id="260" stroke="none" target-height="1.7200012" target-width="1.75" target-x="202.33" target-y="312.42"></path><path d="M 203.89 303.56 C 203.89 304.11 203.65 304.47 203.11 304.56 C 202.88 304.59 202.64 304.52 202.47 304.37 C 202.29 304.22 202.18 304.00 202.17 303.77 C 202.13 303.54 202.19 303.30 202.35 303.12 C 202.50 302.94 202.72 302.84 202.96 302.85 C 203.18 302.80 203.41 302.85 203.59 302.99 C 203.77 303.13 203.88 303.34 203.89 303.56 Z" fill="#50646d" fill-rule="nonzero" node-id="262" stroke="none" target-height="1.7099915" target-width="1.7200012" target-x="202.17" target-y="302.85"></path><path d="M 277.40 435.71 L 277.75 435.71 C 278.17 436.30 278.29 436.82 277.44 437.13 L 277.11 436.78 C 277.20 436.42 277.30 436.07 277.40 435.71 Z" fill="#a84343" fill-rule="nonzero" node-id="264" stroke="none" target-height="1.4200134" target-width="0.9612732" target-x="277.11" target-y="435.71"></path><path d="M 277.44 437.12 C 277.76 436.72 277.88 436.20 277.75 435.70 C 278.50 434.54 278.12 433.07 278.75 431.88 C 278.75 433.13 279.75 433.34 280.62 433.57 C 282.39 434.06 284.20 434.46 286.00 434.80 C 286.46 434.82 286.89 435.04 287.17 435.40 C 287.45 435.76 287.56 436.23 287.46 436.68 C 287.24 441.17 286.94 445.68 287.09 450.15 C 287.02 450.90 287.14 451.66 287.43 452.35 L 286.75 452.35 C 282.93 450.85 279.41 448.67 276.36 445.93 C 275.92 442.87 276.84 440.00 277.44 437.12 Z" fill="#252a47" fill-rule="nonzero" node-id="266" stroke="none" target-height="20.470001" target-width="11.200897" target-x="276.2591" target-y="431.88"></path><path d="M 350.92 80.37 C 347.67 79.90 344.43 79.37 341.18 78.95 C 333.73 78.02 326.24 77.49 318.73 77.35 C 304.13 76.92 289.52 77.47 275.00 79.00 C 268.40 79.71 261.85 80.75 255.30 81.80 C 254.08 81.80 253.72 81.54 254.53 80.36 C 257.10 76.62 260.01 73.13 262.79 69.55 C 263.17 69.20 263.45 68.75 263.59 68.25 C 266.13 65.65 268.03 62.54 270.36 59.78 C 270.88 59.16 271.36 58.52 271.87 57.89 C 272.78 56.69 274.20 56.68 275.48 56.52 C 281.48 55.78 287.48 55.26 293.48 54.96 C 299.02 54.69 304.55 54.58 310.07 54.71 C 318.12 54.89 326.17 55.47 334.16 56.47 C 335.06 56.64 335.93 56.98 336.71 57.47 L 337.71 57.77 C 337.45 58.22 337.71 58.56 337.99 58.85 C 340.40 61.65 342.21 64.85 344.31 67.85 L 349.60 77.48 C 350.20 78.36 350.65 79.34 350.92 80.37 Z" fill="#d04b40" fill-rule="nonzero" node-id="268" stroke="none" target-height="27.115074" target-width="96.80679" target-x="254.11322" target-y="54.68493"></path><path d="M 378.00 428.73 L 378.35 429.48 C 378.27 429.95 378.35 430.48 377.98 430.87 C 378.00 430.15 378.00 429.44 378.00 428.73 Z" fill="#535353" fill-rule="nonzero" node-id="270" stroke="none" target-height="2.1399841" target-width="0.36999512" target-x="377.98" target-y="428.73"></path><path d="M 283.67 45.11 L 284.67 44.66 C 288.32 44.14 291.94 43.39 295.62 43.16 C 302.53 42.61 309.47 42.71 316.36 43.47 C 319.21 43.83 322.06 44.28 324.91 44.68 L 326.29 45.26 L 327.69 47.45 C 326.83 48.29 325.82 47.87 324.91 47.69 C 319.83 46.72 314.69 46.06 309.53 45.69 C 301.06 45.03 292.77 46.06 284.53 47.69 C 283.66 47.86 282.73 48.28 281.94 47.45 C 282.75 46.87 283.36 46.05 283.67 45.11 Z" fill="#403256" fill-rule="nonzero" node-id="272" stroke="none" target-height="5.125866" target-width="45.75" target-x="281.94" target-y="42.826633"></path><path d="M 369.42 95.45 C 368.89 95.36 368.57 95.08 368.63 94.51 C 368.70 94.04 369.12 93.71 369.59 93.76 C 370.05 93.80 370.40 94.21 370.38 94.68 C 370.33 95.25 369.94 95.44 369.42 95.45 Z" fill="#586a73" fill-rule="nonzero" node-id="274" stroke="none" target-height="1.6916885" target-width="1.75" target-x="368.63" target-y="93.75831"></path><path d="M 374.47 100.65 C 374.39 101.16 374.10 101.51 373.59 101.50 C 373.33 101.52 373.07 101.42 372.90 101.22 C 372.73 101.02 372.66 100.76 372.72 100.50 C 372.72 100.27 372.82 100.05 373.00 99.90 C 373.18 99.76 373.41 99.70 373.64 99.75 C 373.87 99.76 374.09 99.85 374.25 100.02 C 374.40 100.19 374.48 100.42 374.47 100.65 Z" fill="#60727b" fill-rule="nonzero" node-id="276" stroke="none" target-height="1.75" target-width="1.75" target-x="372.72" target-y="99.75"></path><path d="M 336.72 57.53 C 332.82 57.13 328.92 56.67 325.01 56.34 C 315.17 55.51 305.29 55.30 295.42 55.69 C 289.13 55.94 282.87 56.37 276.62 57.18 C 275.02 57.39 273.43 57.68 271.84 57.93 L 271.51 57.84 L 273.24 55.75 L 273.96 55.40 C 276.35 53.80 279.18 54.00 281.82 53.77 C 290.09 52.94 298.39 52.57 306.70 52.68 C 315.34 52.92 324.00 53.11 332.58 54.33 C 333.33 54.40 334.04 54.68 334.63 55.14 L 335.01 55.44 Z" fill="#403255" fill-rule="nonzero" node-id="278" stroke="none" target-height="5.25" target-width="65.20999" target-x="271.51" target-y="52.68"></path><path d="M 334.63 55.14 C 329.30 54.70 323.97 54.07 318.63 53.86 C 312.07 53.59 305.52 53.18 298.93 53.54 C 293.70 53.82 288.45 53.89 283.23 54.40 C 280.14 54.71 277.06 55.07 273.97 55.40 C 274.49 54.29 276.07 53.92 276.05 52.40 C 276.11 51.75 276.55 51.19 277.18 51.00 C 277.38 51.13 277.47 51.59 277.83 51.19 L 280.88 47.89 L 281.94 47.47 C 286.29 46.65 290.63 45.76 295.06 45.30 C 303.06 44.51 311.12 44.73 319.06 45.95 C 321.97 46.39 324.85 46.95 327.74 47.50 L 328.74 47.88 C 329.74 49.05 330.57 50.46 331.91 51.36 C 332.48 51.77 332.93 52.33 333.21 52.98 C 333.63 53.70 334.41 54.24 334.63 55.14 Z" fill="#d04b40" fill-rule="nonzero" node-id="280" stroke="none" target-height="10.530769" target-width="60.660004" target-x="273.97" target-y="44.869232"></path><path d="M 277.18 51.00 C 277.18 51.79 276.96 52.40 276.04 52.49 C 275.32 52.20 275.04 51.64 275.49 51.03 C 275.94 50.42 276.61 50.39 277.18 51.00 Z" fill="#4c5a63" fill-rule="nonzero" node-id="282" stroke="none" target-height="1.8957481" target-width="1.8967896" target-x="275.2832" target-y="50.594254"></path><path d="M 333.20 52.93 C 332.11 52.93 331.69 52.36 331.90 51.31 C 332.52 50.97 333.20 50.58 333.75 51.31 C 334.30 52.04 333.58 52.46 333.20 52.93 Z" fill="#505a62" fill-rule="nonzero" node-id="284" stroke="none" target-height="2.0212479" target-width="2.0509033" target-x="331.9" target-y="50.908752"></path><path d="M 311.37 312.15 C 310.70 308.47 309.07 305.06 308.37 301.40 C 308.60 300.85 309.13 300.49 309.73 300.48 C 313.73 300.31 317.73 299.48 321.73 298.94 C 322.07 298.90 322.41 298.94 322.73 299.05 C 323.35 299.48 323.80 300.11 324.00 300.84 C 324.94 303.08 325.75 305.36 326.68 307.60 C 326.97 308.29 327.28 309.01 326.73 309.73 C 321.71 311.06 316.56 311.87 311.37 312.15 Z" fill="#92949b" fill-rule="nonzero" node-id="286" stroke="none" target-height="13.209991" target-width="18.650024" target-x="308.37" target-y="298.94"></path><path d="M 342.26 320.86 C 344.09 325.86 344.71 331.15 345.35 336.40 C 345.75 339.71 345.98 340.62 349.93 339.81 C 357.42 338.28 364.93 336.81 372.10 333.90 L 378.65 331.21 C 380.28 332.21 379.02 332.67 378.27 333.01 C 374.43 334.71 370.57 336.38 366.69 338.01 C 361.56 340.14 356.11 341.16 350.69 342.27 C 349.44 342.47 348.17 342.49 346.91 342.33 C 345.51 342.29 344.39 341.18 344.33 339.78 C 343.56 334.37 342.62 329.00 341.33 323.69 C 341.21 322.95 341.18 322.20 341.24 321.45 C 341.24 320.63 341.65 320.54 342.26 320.86 Z" fill="#b6c2c8" fill-rule="nonzero" node-id="288" stroke="none" target-height="21.757751" target-width="38.202545" target-x="341.24" target-y="320.67743"></path><path d="M 326.69 309.73 L 322.77 299.38 C 324.07 297.99 327.77 297.19 329.32 297.95 C 330.85 301.28 332.38 304.62 333.89 307.95 C 331.53 308.68 329.12 309.27 326.69 309.73 Z" fill="#373c59" fill-rule="nonzero" node-id="290" stroke="none" target-height="12.055939" target-width="11.120026" target-x="322.77" target-y="297.67407"></path><path d="M 292.69 112.38 C 291.63 112.57 291.40 113.02 291.87 114.09 C 293.37 117.43 294.99 120.71 296.19 124.17 C 295.97 124.80 295.36 125.21 294.69 125.17 C 290.43 125.17 286.27 126.05 282.07 126.66 C 281.74 126.71 281.40 126.69 281.07 126.60 C 280.42 126.33 279.93 125.78 279.75 125.10 C 278.71 122.43 277.74 119.77 276.85 117.10 C 276.45 116.37 276.54 115.46 277.08 114.83 C 279.84 113.73 282.80 113.58 285.68 113.11 C 288.00 112.70 290.35 112.60 292.69 112.38 Z" fill="#92949b" fill-rule="nonzero" node-id="292" stroke="none" target-height="14.280006" target-width="19.580444" target-x="276.60956" target-y="112.38"></path><path d="M 277.06 114.80 C 277.28 117.17 278.38 119.28 279.13 121.49 C 279.66 123.07 280.28 124.61 280.86 126.16 C 279.50 127.48 277.50 127.91 275.72 127.25 L 271.37 117.94 C 271.03 117.41 270.84 116.79 270.82 116.16 C 272.86 115.55 274.95 115.09 277.06 114.80 Z" fill="#373c59" fill-rule="nonzero" node-id="294" stroke="none" target-height="12.744186" target-width="10.039978" target-x="270.82" target-y="114.8"></path><path d="M 275.72 127.25 L 280.86 126.16 C 285.35 125.19 289.91 124.62 294.50 124.45 C 295.07 124.41 295.64 124.31 296.19 124.17 C 301.96 124.02 307.73 124.22 313.48 124.78 C 323.76 125.95 333.81 128.64 343.29 132.78 C 354.14 137.45 364.01 144.14 372.38 152.48 C 385.14 165.22 393.53 180.38 396.74 198.23 C 400.20 217.42 396.98 235.55 387.79 252.67 C 387.08 253.99 386.35 255.30 385.63 256.61 C 381.66 262.91 376.96 268.72 371.63 273.92 C 360.21 284.86 346.30 292.88 331.10 297.27 C 330.50 297.45 329.92 297.72 329.33 297.94 L 322.78 299.37 C 318.64 300.25 314.44 300.83 310.21 301.11 C 309.59 301.17 308.96 301.26 308.35 301.39 C 303.35 301.31 298.43 301.53 293.46 301.14 C 282.16 300.27 271.08 297.53 260.67 293.04 C 249.14 288.15 238.70 281.01 229.96 272.04 C 217.28 259.00 209.00 243.52 206.30 225.39 C 202.58 200.39 209.30 178.31 225.18 158.83 L 227.49 156.03 C 236.18 146.57 246.66 138.92 258.32 133.52 C 263.95 130.98 269.76 128.88 275.72 127.25 Z" fill="#ae387d" fill-rule="nonzero" node-id="296" stroke="none" target-height="177.22002" target-width="192.77657" target-x="205.31795" target-y="124.17"></path><path d="M 360.68 328.84 C 360.62 329.72 360.36 330.51 359.33 330.54 C 358.30 330.57 358.13 329.67 357.88 328.89 C 357.57 327.89 357.64 326.89 357.05 325.89 C 354.05 329.89 353.13 328.29 351.82 324.83 C 351.26 326.29 350.86 327.80 350.63 329.35 C 350.56 329.69 350.63 330.05 350.50 330.35 C 350.29 331.14 350.43 332.29 349.17 332.22 C 347.91 332.15 348.11 331.03 348.17 330.22 C 348.38 327.34 349.10 324.52 350.27 321.88 C 350.34 321.72 350.43 321.57 350.53 321.43 C 350.86 320.80 351.52 320.41 352.23 320.43 C 352.94 320.49 353.54 321.00 353.70 321.70 C 354.02 322.56 354.24 323.46 354.50 324.35 C 355.28 324.35 355.36 323.64 355.71 323.24 C 357.02 321.77 358.47 321.97 359.16 323.81 C 359.52 324.97 359.82 326.14 360.05 327.33 C 360.58 327.63 360.83 328.25 360.68 328.84 Z" fill="#f59988" fill-rule="nonzero" node-id="298" stroke="none" target-height="11.790009" target-width="12.509979" target-x="348.17" target-y="320.43"></path><path d="M 374.68 319.65 C 375.39 320.09 376.25 320.23 377.07 320.04 C 377.90 319.89 378.66 319.99 378.83 320.93 C 379.00 321.87 378.17 322.37 377.36 322.48 C 375.67 322.54 373.98 322.32 372.36 321.82 C 372.02 322.53 372.53 323.10 372.68 323.71 C 372.86 324.48 373.03 325.28 372.08 325.60 C 371.13 325.92 370.61 325.28 370.39 324.53 C 369.54 321.72 368.74 318.90 368.00 316.06 C 367.85 315.58 367.91 315.06 368.17 314.62 C 368.42 314.19 368.85 313.88 369.34 313.78 C 371.64 313.22 374.04 314.16 375.34 316.13 C 375.95 317.32 375.68 318.77 374.68 319.65 Z" fill="#f59988" fill-rule="nonzero" node-id="300" stroke="none" target-height="12.037781" target-width="10.897858" target-x="367.93213" target-y="313.63226"></path><path d="M 360.34 327.09 C 360.03 324.61 360.40 322.09 361.39 319.80 C 361.99 318.54 362.74 317.34 364.39 317.31 C 366.04 317.28 366.74 318.45 367.32 319.64 C 368.21 321.45 369.00 323.32 369.78 325.18 C 370.11 325.98 370.45 326.96 369.31 327.38 C 368.17 327.80 367.92 326.92 367.54 326.16 C 367.16 325.40 367.25 324.43 366.36 324.45 C 365.21 324.45 364.07 324.70 363.03 325.19 C 362.37 325.53 362.81 326.57 362.89 327.29 C 363.07 328.89 362.61 329.29 360.94 328.88 C 360.31 328.43 360.42 327.72 360.34 327.09 Z" fill="#f59988" fill-rule="nonzero" node-id="302" stroke="none" target-height="11.715027" target-width="9.839691" target-x="360.25656" target-y="317.31"></path><path d="M 379.68 325.25 C 379.57 326.25 378.77 326.62 377.95 326.95 C 373.38 328.76 369.04 331.05 364.66 333.26 C 363.74 333.73 362.86 334.26 361.95 334.79 C 361.71 334.97 361.41 335.04 361.12 334.98 C 360.83 334.93 360.57 334.77 360.41 334.52 C 360.20 334.27 360.11 333.94 360.17 333.61 C 360.22 333.29 360.41 333.00 360.69 332.83 C 361.57 332.18 362.50 331.60 363.48 331.10 C 368.25 328.77 373.03 326.46 377.82 324.18 C 378.20 323.94 378.68 323.94 379.07 324.16 C 379.46 324.38 379.69 324.80 379.68 325.25 Z" fill="#f59988" fill-rule="nonzero" node-id="304" stroke="none" target-height="10.986267" target-width="19.512451" target-x="360.16754" target-y="323.99854"></path><path d="M 382.41 309.75 C 383.21 309.75 383.71 309.97 383.88 310.63 C 383.98 310.91 383.95 311.22 383.82 311.48 C 383.68 311.74 383.44 311.94 383.16 312.02 C 382.23 312.32 381.35 312.77 380.57 313.37 C 379.79 313.96 379.92 314.37 380.80 314.60 C 382.08 314.94 383.34 315.36 384.57 315.86 C 386.99 316.95 387.23 318.34 385.41 320.23 C 384.78 320.90 384.12 321.55 383.41 322.17 C 383.21 322.43 382.91 322.59 382.58 322.61 C 382.26 322.63 381.94 322.50 381.71 322.27 C 381.25 321.79 381.25 321.02 381.71 320.54 C 381.96 320.22 382.23 319.92 382.53 319.65 C 384.05 318.11 384.05 318.12 381.90 317.44 C 380.84 317.17 379.81 316.82 378.80 316.39 C 377.06 315.56 376.71 314.02 377.94 312.56 C 379.06 311.14 380.64 310.15 382.41 309.75 Z" fill="#f59988" fill-rule="nonzero" node-id="306" stroke="none" target-height="12.856445" target-width="9.3479" target-x="377.25623" target-y="309.75"></path><path d="M 389.15 314.94 C 389.15 315.17 389.15 315.40 389.15 315.63 C 389.08 316.49 389.41 317.72 388.00 317.63 C 386.80 317.63 386.77 316.45 386.71 315.54 C 386.71 314.79 386.71 314.04 386.71 313.30 C 386.71 312.56 387.01 311.87 387.86 311.84 C 388.71 311.81 389.10 312.52 389.14 313.35 C 389.14 313.86 389.14 314.35 389.14 314.90 Z" fill="#f59a89" fill-rule="nonzero" node-id="308" stroke="none" target-height="5.7900085" target-width="2.4400024" target-x="386.71" target-y="311.84"></path><path d="M 389.79 320.79 C 389.82 321.07 389.73 321.35 389.53 321.56 C 389.34 321.77 389.07 321.89 388.79 321.89 C 388.54 321.91 388.29 321.83 388.10 321.67 C 387.92 321.50 387.80 321.27 387.79 321.02 C 387.73 320.74 387.80 320.45 387.98 320.22 C 388.15 319.99 388.41 319.85 388.70 319.83 C 388.97 319.81 389.25 319.89 389.45 320.08 C 389.66 320.26 389.78 320.52 389.79 320.79 Z" fill="#f59d8d" fill-rule="nonzero" node-id="310" stroke="none" target-height="2.060028" target-width="2" target-x="387.79" target-y="319.83"></path><path d="M 360.34 327.09 C 360.54 327.68 360.74 328.28 360.95 328.88 L 360.68 328.88 C 360.23 328.54 359.98 328.00 360.02 327.44 Z" fill="#fad8d2" fill-rule="nonzero" node-id="312" stroke="none" target-height="1.7900085" target-width="0.9300232" target-x="360.02" target-y="327.09"></path><path d="M 309.27 437.07 C 308.25 443.08 306.78 449.00 304.86 454.79 C 303.48 456.24 302.09 455.94 300.69 454.79 C 299.27 450.73 297.58 446.79 296.51 442.60 C 296.46 440.08 295.66 437.67 295.28 435.20 C 295.14 434.30 295.56 433.39 295.11 432.54 C 294.84 431.41 294.72 430.24 294.75 429.08 C 294.32 428.43 294.84 427.63 294.42 426.99 C 293.96 420.13 293.85 413.26 294.11 406.39 C 294.23 400.39 294.81 394.32 295.37 388.31 C 295.60 385.90 295.67 383.48 295.79 381.06 C 296.29 372.03 297.63 363.06 299.79 354.27 C 300.20 352.94 300.78 351.67 301.51 350.49 C 301.70 350.15 301.94 349.74 302.43 349.84 C 302.92 349.94 302.86 350.36 302.94 350.68 C 304.47 356.23 306.26 361.68 307.27 367.41 C 308.28 373.14 309.01 378.56 309.63 384.16 C 310.02 387.71 310.14 391.28 310.40 394.84 C 310.86 401.24 310.74 407.65 310.74 414.05 C 310.74 418.26 310.39 422.46 310.05 426.65 C 309.61 428.80 310.14 430.99 309.74 433.16 C 309.47 434.46 308.74 435.71 309.27 437.07 Z" fill="#c3d0d6" fill-rule="nonzero" node-id="314" stroke="none" target-height="105.92502" target-width="16.747437" target-x="293.99506" target-y="349.84"></path><path d="M 327.05 430.81 C 328.05 434.35 329.36 437.81 328.76 441.62 C 328.06 445.07 325.81 447.40 323.10 449.36 C 321.77 450.37 320.30 451.18 318.73 451.75 C 320.06 448.75 319.82 445.55 319.57 442.38 C 319.42 440.38 319.25 438.38 319.02 436.38 C 318.88 435.16 319.44 434.67 320.54 434.30 C 322.33 433.69 324.06 432.88 325.82 432.14 C 326.42 431.88 327.00 431.56 327.05 430.81 Z" fill="#252a47" fill-rule="nonzero" node-id="316" stroke="none" target-height="20.940002" target-width="10.155762" target-x="318.73" target-y="430.81"></path><path d="M 295.11 432.57 C 295.68 435.66 296.26 438.76 296.80 441.86 C 296.80 442.09 296.61 442.37 296.51 442.63 C 295.67 439.68 295.09 436.67 294.76 433.63 C 295.04 433.35 295.17 432.96 295.11 432.57 Z" fill="#dee2e5" fill-rule="nonzero" node-id="318" stroke="none" target-height="10.059998" target-width="2.039978" target-x="294.76" target-y="432.57"></path><path d="M 309.27 437.07 C 308.48 435.67 309.19 434.27 309.36 432.90 C 309.62 430.83 309.36 428.71 310.01 426.68 C 310.18 427.83 309.65 429.05 310.37 430.15 C 310.47 432.53 309.37 434.72 309.27 437.07 Z" fill="#d5d9dd" fill-rule="nonzero" node-id="320" stroke="none" target-height="10.390015" target-width="1.4450378" target-x="308.92496" target-y="426.68"></path><path d="M 294.42 427.00 C 294.94 427.63 294.69 428.38 294.75 429.09 C 294.20 428.48 294.47 427.72 294.42 427.00 Z" fill="#dee2e5" fill-rule="nonzero" node-id="322" stroke="none" target-height="2.0899963" target-width="0.35998535" target-x="294.39752" target-y="427"></path><path d="M 322.54 49.49 C 322.55 49.80 322.42 50.10 322.19 50.31 C 321.96 50.52 321.65 50.62 321.34 50.58 C 320.69 50.58 320.19 50.19 320.24 49.50 C 320.29 48.81 320.89 48.50 321.59 48.50 C 322.29 48.50 322.56 48.76 322.54 49.49 Z" fill="#473554" fill-rule="nonzero" node-id="324" stroke="none" target-height="2.0800018" target-width="2.3000183" target-x="320.24" target-y="48.5"></path><path d="M 297.63 47.61 C 297.91 47.57 298.18 47.66 298.38 47.86 C 298.58 48.06 298.67 48.33 298.63 48.61 C 298.66 48.89 298.57 49.17 298.37 49.38 C 298.18 49.59 297.91 49.71 297.63 49.71 C 297.36 49.73 297.09 49.64 296.90 49.44 C 296.70 49.25 296.61 48.98 296.63 48.71 C 296.58 48.00 297.09 47.76 297.63 47.61 Z" fill="#4c3654" fill-rule="nonzero" node-id="326" stroke="none" target-height="2.0999985" target-width="2" target-x="296.63" target-y="47.61"></path><path d="M 309.32 47.54 C 309.57 47.52 309.83 47.60 310.02 47.77 C 310.21 47.94 310.32 48.18 310.32 48.44 C 310.35 48.72 310.26 49.00 310.06 49.21 C 309.87 49.42 309.60 49.54 309.32 49.54 C 309.07 49.58 308.81 49.51 308.62 49.34 C 308.43 49.18 308.32 48.93 308.32 48.68 C 308.24 48.00 308.70 47.68 309.32 47.54 Z" fill="#4a3654" fill-rule="nonzero" node-id="328" stroke="none" target-height="2" target-width="2" target-x="308.32" target-y="47.54"></path><path d="M 287.14 49.91 C 287.05 50.50 286.73 50.91 286.14 50.80 C 285.90 50.78 285.69 50.66 285.54 50.47 C 285.40 50.28 285.35 50.03 285.40 49.80 C 285.38 49.57 285.45 49.34 285.61 49.16 C 285.77 48.99 286.00 48.90 286.23 48.90 C 286.82 48.92 287.11 49.31 287.14 49.91 Z" fill="#4c3754" fill-rule="nonzero" node-id="330" stroke="none" target-height="1.8999977" target-width="1.7400208" target-x="285.4" target-y="48.9"></path><path d="M 338.41 285.83 C 337.06 285.98 335.74 285.33 335.04 284.16 C 333.79 282.09 332.51 280.03 331.33 277.92 C 330.00 275.55 330.47 274.20 332.96 273.15 C 336.58 271.63 339.45 268.98 342.53 266.66 C 345.20 264.66 347.78 262.51 350.41 260.44 C 350.85 260.06 351.33 259.73 351.84 259.44 C 354.38 258.13 356.08 258.56 357.58 260.99 C 358.94 263.27 360.12 265.65 361.13 268.11 C 361.76 269.28 361.49 270.73 360.48 271.60 C 355.30 276.12 350.04 280.54 343.91 283.76 C 342.21 284.77 340.35 285.47 338.41 285.83 Z" fill="#fefefe" fill-rule="nonzero" node-id="332" stroke="none" target-height="27.058136" target-width="30.829468" target-x="330.60577" target-y="258.77185"></path><path d="M 233.53 177.82 C 232.50 177.77 231.53 177.31 230.85 176.54 C 228.87 174.37 227.09 172.02 225.52 169.54 C 224.81 168.49 224.90 167.09 225.75 166.15 C 229.92 160.90 234.18 155.75 239.42 151.50 C 240.71 150.43 242.11 149.50 243.59 148.73 C 245.74 147.61 247.20 147.93 248.82 149.73 C 250.23 151.32 251.67 152.90 253.05 154.52 C 254.90 156.70 254.69 158.22 252.34 159.77 C 249.06 161.94 246.74 165.08 244.15 167.93 C 241.87 170.45 239.66 173.05 237.43 175.62 C 236.41 176.77 235.04 177.54 233.53 177.82 Z" fill="#fefefe" fill-rule="nonzero" node-id="334" stroke="none" target-height="29.685013" target-width="29.218475" target-x="225.05151" target-y="148.135"></path><path d="M 258.81 149.20 C 258.87 150.06 258.41 150.87 257.65 151.27 C 256.87 151.71 255.88 151.58 255.25 150.94 C 253.91 149.69 252.58 148.42 251.35 147.05 C 250.12 145.68 250.15 144.24 251.22 143.37 C 252.50 142.32 253.69 142.78 254.77 143.75 C 255.77 144.61 256.73 145.52 257.64 146.48 C 258.32 147.23 258.74 148.19 258.81 149.20 Z" fill="#fdfcfd" fill-rule="nonzero" node-id="336" stroke="none" target-height="8.70723" target-width="8.387512" target-x="250.42249" target-y="142.8025"></path><path d="M 326.86 280.38 C 327.51 280.36 328.13 280.65 328.52 281.16 C 329.66 282.74 330.81 284.32 331.82 285.99 C 332.22 286.50 332.39 287.16 332.28 287.80 C 332.17 288.44 331.80 289.01 331.25 289.36 C 330.72 289.74 330.05 289.88 329.42 289.73 C 328.78 289.58 328.24 289.17 327.94 288.59 C 326.77 286.92 325.09 285.59 324.78 283.34 C 324.56 281.71 325.44 280.39 326.86 280.38 Z" fill="#fdfdfd" fill-rule="nonzero" node-id="338" stroke="none" target-height="9.363892" target-width="7.500183" target-x="324.78" target-y="280.38"></path><path d="M 373.10 317.38 C 372.83 318.10 372.17 318.93 371.64 318.87 C 370.64 318.75 370.93 317.53 370.64 316.81 C 370.42 316.31 370.64 315.98 371.19 316.11 C 371.94 316.29 372.75 316.47 373.10 317.38 Z" fill="#fdf6f4" fill-rule="nonzero" node-id="340" stroke="none" target-height="2.7600098" target-width="2.4727478" target-x="370.62726" target-y="316.11"></path><path d="M 365.64 321.56 C 365.48 322.61 364.55 322.19 364.02 322.44 C 363.68 322.61 363.08 322.61 363.19 322.01 C 363.35 321.20 363.51 320.11 364.47 320.01 C 365.15 320.00 365.26 321.00 365.64 321.56 Z" fill="#fdf5f3" fill-rule="nonzero" node-id="342" stroke="none" target-height="2.5037537" target-width="2.4500122" target-x="363.19" target-y="320.01"></path></svg>