<svg xmlns:xlink="http://www.w3.org/1999/xlink" xmlns="http://www.w3.org/2000/svg" version="1.1" viewBox="0 0 1630 1024" height="1024px" width="1630px">
    <title>缺省页-无审批</title>
    <g fill-rule="evenodd" fill="none" stroke-width="1" stroke="none" id="页面-1">
        <g transform="translate(0.000000, -0.000000)" id="缺省页-无审批">
            <path fill="#EFF0F9" id="椭圆形备份" d="M971.062218,994.742857 C1223.9675,994.742857 1428.98774,764.422072 1428.98774,480.306985 C1428.98774,196.191898 1172.10396,300.858229 919.198673,300.858229 C666.293392,300.858229 200.04,237.379799 200.04,521.494886 C200.04,805.609973 718.156936,994.742857 971.062218,994.742857 Z"></path>
            <path fill="#FFFFFF" stroke-width="7.31428571" stroke="#555555" id="矩形备份-2" d="M598.613939,192.730605 L1135.76248,233.50905 C1144.21801,234.150964 1151.7124,237.995934 1157.0929,243.80039 C1162.4734,249.604847 1165.74003,257.36879 1165.74003,265.848652 L1165.74003,265.848652 L1165.74003,838.15418 C1165.74003,863.05569 1155.6467,885.599776 1139.32799,901.918485 C1123.00928,918.237193 1100.46519,928.330524 1075.56368,928.330524 C1070.25656,928.330524 1064.95979,927.862018 1059.73507,926.930461 L1059.73507,926.930461 L568.826435,839.402531 L598.613939,192.730605 Z"></path>
            <path transform="translate(919.198673, 574.154169) scale(-1, 1) rotate(-180.000000) translate(-919.198673, -574.154169)" opacity="0.67578125" fill="#F2F2F2" id="矩形备份-22" d="M693.090517,266.720653 L1028.30242,250.72913 C1084.0482,248.069738 1131.39494,291.104755 1134.05433,346.85053 C1134.29068,351.804859 1134.16195,356.769866 1133.66917,361.705289 L1079.60785,903.160986 L1079.60785,903.160986 L703.65585,882.178901 L693.090517,266.720653 Z"></path>
            <path fill="#FFFFFF" stroke-width="7.31428571" stroke="#555555" id="矩形" d="M1076.01628,728.376341 L1076.01628,742.911072 C1076.01628,794.733876 1034.0056,836.744559 982.182792,836.744559 C976.66048,836.744559 971.148946,836.25706 965.712371,835.287738 L471.639683,747.196385 L471.639683,747.196385 L484.902262,171.36172 C485.646377,139.05374 512.440393,113.466172 544.748373,114.210287 C545.107204,114.218552 545.465951,114.230118 545.824569,114.244983 L1057.95562,135.474566 C1073.69322,136.126944 1086.08973,149.121431 1086.00052,164.872297 L1084.19676,483.365478 L1084.19676,483.365478"></path>
            <path transform="translate(771.615293, 266.129437) rotate(3.000000) translate(-771.615293, -266.129437)" fill-rule="nonzero" fill="#FFFFFF" stroke-width="7.31428571" stroke="#555555" id="路径" d="M618.027571,239.033193 L978.114506,239.408883 C978.144884,269.161471 954.519363,293.25606 925.345398,293.22568 L565.116081,292.850186 C565.101431,278.537295 570.672329,264.818554 580.599263,254.7218 C590.526196,244.625046 603.993046,238.980359 618.027571,239.033193 Z"></path>
            <path transform="translate(764.432148, 405.331138) rotate(3.000000) translate(-764.432148, -405.331138)" fill-rule="nonzero" fill="#EFF0F9" id="路径备份-2" d="M610.844426,378.234894 L970.93136,378.610584 C970.961739,408.363172 947.336218,432.45776 918.162252,432.427381 L557.932936,432.051887 C557.918285,417.738996 563.489184,404.020255 573.416117,393.923501 C583.343051,383.826747 596.809901,378.18206 610.844426,378.234894 Z"></path>
            <path transform="translate(750.065857, 526.216825) rotate(3.000000) translate(-750.065857, -526.216825)" fill-rule="nonzero" fill="#EFF0F9" id="路径备份-3" d="M596.478135,499.120582 L956.565069,499.496271 C956.595448,529.24886 932.969927,553.343448 903.795962,553.313069 L543.566645,552.937575 C543.551995,538.624683 549.122893,524.905943 559.049826,514.809189 C568.97676,504.712434 582.44361,499.067747 596.478135,499.120582 Z"></path>
            <path fill="#3681FD" id="形状结合" d="M771.466223,58.5142857 C793.285503,58.5142857 810.973523,73.2749309 810.973523,91.4831096 C810.973523,93.1758087 810.820659,94.8387134 810.525822,96.4627346 L885.04857,99.1166754 C902.958404,99.7545738 916.967453,114.777644 916.354228,132.68834 L916.320887,133.662155 C915.707064,151.590313 900.675818,165.626355 882.74766,165.012532 C882.732754,165.012021 882.717847,165.011501 882.702941,165.01097 L660.47264,157.095743 C642.562828,156.457845 628.553787,141.43481 629.166981,123.524135 L629.20032,122.550322 C629.814113,104.622163 644.845334,90.5860958 662.773493,91.1998879 C662.788418,91.2003989 662.803343,91.2009202 662.818267,91.2014517 L732.044289,93.667863 C731.987675,92.94571 731.958923,92.2172117 731.958923,91.4831096 C731.958923,73.2749309 749.646944,58.5142857 771.466223,58.5142857 Z"></path>
            <path transform="translate(659.674063, 731.358501) rotate(3.000000) translate(-659.674063, -731.358501)" fill-rule="nonzero" fill="#FFFFFF" stroke-width="7.31428571" stroke="#555555" id="路径备份" d="M969.494721,810.510006 L435.660918,807.610885 C435.660918,807.610885 435.660918,807.610885 435.660918,807.610885 C388.42358,807.56165 350.170064,769.228308 350.2193,721.99097 C350.221439,719.938706 350.297442,717.887183 350.447161,715.840386 C353.550519,673.41418 368.819958,652.20305 396.255447,652.206997 L930.08925,655.106118 C902.653762,655.102172 887.384322,676.313301 884.280932,718.739505 L884.280964,718.739507 C880.834855,765.851001 916.232643,806.836036 963.344136,810.282145 C965.390934,810.431864 967.442456,810.507867 969.494721,810.510006 C969.494721,810.510006 969.494721,810.510006 969.494721,810.510006 Z"></path>
            <path transform="translate(760.633663, 833.928176) rotate(3.000000) translate(-760.633663, -833.928176)" fill-rule="nonzero" fill="#3681FD" stroke-width="7.31428571" stroke="#555555" id="路径" d="M1092.36925,911.931168 L514.705592,911.329072 C514.705592,911.329072 514.705592,911.329072 514.705592,911.329072 C467.468254,911.279837 429.214739,872.946495 429.263974,825.709157 C429.266113,823.656893 429.342116,821.60537 429.491835,819.558573 C432.595194,777.132366 447.864633,755.921237 475.300122,755.925184 L1052.96378,756.52728 C1025.52829,756.523333 1010.25885,777.734462 1007.15546,820.160667 L1007.15549,820.160669 C1003.70938,867.272163 1039.10717,908.257198 1086.21866,911.703307 C1088.26546,911.853026 1090.31698,911.929029 1092.36925,911.931168 C1092.36925,911.931168 1092.36925,911.931168 1092.36925,911.931168 Z"></path>
            <ellipse ry="89.5306749" rx="87.78" cy="602.206563" cx="1086.16039" fill="#FFFFFF" id="椭圆形"></ellipse>
            <g fill-rule="nonzero" fill="#3681FD" transform="translate(980.041150, 501.566262)" id="fangdajing-2">
                <path id="形状" d="M206.636777,175.831826 C221.250828,190.67672 206.5704,175.874163 221.132732,190.770077 C231.621335,201.491194 232.091978,216.610537 222.294685,226.712384 C212.412917,236.918028 197.445453,236.435983 186.772386,225.561808 C169.129328,207.557227 180.694551,219.282785 163.134244,201.174407 C160.944808,198.924274 159.548396,198.769457 156.771089,200.315873 C93.97394,235.621317 18.1625791,200.69412 2.45553395,129.309145 C-10.2552599,71.5481163 27.7081732,13.40884 85.6402931,1.93298731 C145.304998,-9.87009341 203.018174,33.751517 209.415808,95.3601145 C211.822463,118.554602 207.345326,140.18508 196.098179,160.422199 C195.727526,161.092489 195.356874,161.745186 195.03794,162.433069 C194.918986,162.703999 194.918986,163.013635 194.700043,164.148377 C198.454839,167.807702 202.613042,171.741475 206.636777,175.831826 Z M104.90043,181.32785 C145.558421,181.018215 178.017234,147.876698 177.833552,106.832448 C177.648305,65.8216251 144.582656,32.6642754 104.243599,32.9897441 C64.3596692,33.3345651 32.2525451,66.9915536 32.4703753,108.208214 C32.6749164,148.117721 65.8733104,181.637485 104.90043,181.32785 Z"></path>
                <path id="路径" d="M46.6904453,106.231072 C46.7413949,71.3074086 76.0129021,46.3972654 103.928092,47.6681359 C103.99661,49.0076046 104.133648,50.3831773 104.133648,51.7406979 C104.168785,55.7771557 104.151217,59.8154185 104.151217,63.799525 C77.3867883,66.1787966 63.9852485,84.848316 62.7167754,106.232877 L46.6904453,106.231072 Z"></path>
            </g>
        </g>
    </g>
</svg>