<?xml version="1.0" standalone="no"?><!DOCTYPE svg PUBLIC "-//W3C//DTD SVG 1.1//EN" "http://www.w3.org/Graphics/SVG/1.1/DTD/svg11.dtd"><svg t="1689305451608" class="icon" viewBox="0 0 1024 1024" version="1.1" xmlns="http://www.w3.org/2000/svg" p-id="2404" xmlns:xlink="http://www.w3.org/1999/xlink" width="128" height="128"><path d="M514.925714 892.342857c-210.651429 0-383.268571-172.617143-383.268571-383.268571 0-210.651429 172.617143-383.268571 383.268571-383.268572 210.651429 0 383.268571 172.617143 383.268572 383.268572 2.925714 210.651429-169.691429 383.268571-383.268572 383.268571z m0-722.651428C330.605714 169.691429 178.468571 321.828571 178.468571 509.074286c0 184.32 152.137143 336.457143 336.457143 336.457143s336.457143-152.137143 336.457143-336.457143C854.308571 321.828571 702.171429 169.691429 514.925714 169.691429z" fill="#3271B0" p-id="2405"></path><path d="M433.005714 430.08c-5.851429 0-8.777143-2.925714-11.702857-5.851429l-81.92-52.662857c-11.702857-8.777143-14.628571-20.48-5.851428-32.182857 8.777143-11.702857 20.48-14.628571 32.182857-5.851428l81.92 52.662857c11.702857 8.777143 14.628571 20.48 5.851428 32.182857-5.851429 8.777143-11.702857 11.702857-20.48 11.702857z" fill="#3271B0" p-id="2406"></path><path d="M351.085714 482.742857c-8.777143 0-14.628571-5.851429-20.48-11.702857-5.851429-11.702857-2.925714-23.405714 8.777143-32.182857l81.92-49.737143c11.702857-5.851429 23.405714-2.925714 32.182857 8.777143 5.851429 11.702857 2.925714 23.405714-8.777143 32.182857l-81.92 49.737143s-5.851429 2.925714-11.702857 2.925714zM678.765714 482.742857c-5.851429 0-8.777143-2.925714-11.702857-2.925714L585.142857 427.154286c-11.702857-5.851429-14.628571-20.48-8.777143-32.182857 5.851429-11.702857 20.48-14.628571 32.182857-8.777143l81.92 49.737143c11.702857 5.851429 14.628571 20.48 8.777143 32.182857-5.851429 8.777143-11.702857 14.628571-20.48 14.628571zM509.074286 684.617143c-81.92 0-155.062857-38.034286-207.725715-102.4-8.777143-11.702857-5.851429-23.405714 5.851429-32.182857 11.702857-8.777143 23.405714-5.851429 32.182857 5.851428 40.96 52.662857 102.4 81.92 169.691429 81.92s134.582857-32.182857 172.617143-87.771428c8.777143-11.702857 20.48-11.702857 32.182857-5.851429 11.702857 8.777143 11.702857 20.48 5.851428 32.182857-49.737143 67.291429-125.805714 108.251429-210.651428 108.251429z" fill="#3271B0" p-id="2407"></path><path d="M596.845714 430.08c-8.777143 0-14.628571-2.925714-17.554285-11.702857-8.777143-11.702857-5.851429-23.405714 5.851428-32.182857l81.92-52.662857c11.702857-8.777143 23.405714-5.851429 32.182857 5.851428 8.777143 11.702857 5.851429 23.405714-5.851428 32.182857l-81.92 52.662857c-5.851429 5.851429-8.777143 5.851429-14.628572 5.851429z" fill="#D31C1A" p-id="2408"></path></svg>