<?xml version="1.0"?><svg width="803" height="985" xmlns="http://www.w3.org/2000/svg">
 <title>Apple Logo White</title>
 <g>
  <title>Layer 1</title>
  <path d="m776.200012,333.799988l0.299988,0.200012l0,1l0,1l-0.299988,0.200012l-0.200012,0.299988l-17.799988,13.299988c-11.799988,8.800018 -22.200012,17.866669 -31.200012,27.200012c-9,9.333344 -17,19.5 -24,30.5c-7,11 -12.666687,22 -17,33c-4.333313,11 -7.666687,22.166656 -10,33.5c-2.333313,11.333344 -3.5,27 -3.5,47c0,20 1.333313,36.333313 4,49c2.666687,12.666687 6.5,25 11.5,37c5,12 11,23.333313 18,34c7,10.666687 14.333313,20 22,28c7.666687,8 15.599976,15.400024 23.799988,22.200012c8.133362,6.866638 17.533325,13.466675 28.200012,19.799988c10.666687,6.333313 16.5,9.666687 17.5,10l1.5,0.5l1,0.5l1,0.5l1,0.299988l1,0.200012l0,1l0,1l-13.200012,33c-8.866638,22 -18.06665,41.733337 -27.599976,59.200012c-9.466675,17.533325 -20.533325,35.466675 -33.200012,53.799988c-12.666687,18.333313 -24.06665,33.599976 -34.200012,45.799988c-10.200012,12.133362 -19.533325,22.133362 -28,30c-8.533325,7.799988 -17.299988,14.366699 -26.299988,19.700012c-9,5.333313 -18,9.333313 -27,12c-9,2.666687 -14.833313,4.166687 -17.5,4.5l-4,0.5l-1,0.299988l-1,0.200012l-8,-0.200012c-5.333313,-0.200012 -13.333313,-1.299988 -24,-3.299988c-10.666687,-2 -26.833313,-6.833313 -48.5,-14.5c-21.666656,-7.666687 -38.666656,-12.833313 -51,-15.5c-12.333344,-2.666687 -25,-4 -38,-4c-13,0 -24.666656,1 -35,3c-10.333344,2 -25.333344,6.5 -45,13.5c-19.666656,7 -35.666656,12.166687 -48,15.5l-18.5,5l-4,0.5l-4,0.5l0,0.299988l0,0.200012l-10,0l-10,0l0,-0.200012l0,-0.299988l-3.5,-0.5l-3.5,-0.5l-2,-0.5c-1.333328,-0.333313 -3.666672,-1 -7,-2c-3.333328,-1 -9.166672,-3.5 -17.5,-7.5c-8.333328,-4 -17.333328,-9.833313 -27,-17.5c-9.666672,-7.666687 -18.666672,-16 -27,-25c-8.333328,-9 -19.433334,-22.733337 -33.300003,-41.200012c-13.799995,-18.533325 -25.599998,-35.733337 -35.399994,-51.599976c-9.866676,-15.799988 -19.400002,-33.266663 -28.600002,-52.400024c-9.133331,-19.200012 -17.533329,-39.466675 -25.200001,-60.799988c-7.66667,-21.333313 -14.16667,-43 -19.5,-65c-5.33333,-22 -9.43333,-44.666687 -12.3,-68l-4.2,-35l0,-22.5l0,-22.5l0.2,0l0.3,0l3,-26c2,-17.333344 5,-33.666656 9,-49c4,-15.333344 8.83333,-29.5 14.5,-42.5c5.666672,-13 12.166672,-25.5 19.5,-37.5c7.333328,-12 14.76667,-22.399994 22.300003,-31.200012c7.466667,-8.866669 15.366653,-17.133331 23.699997,-24.799988c8.333344,-7.666656 18.833344,-15.5 31.5,-23.5c12.666672,-8 25.5,-14.666656 38.5,-20c13,-5.333328 26,-9.333328 39,-12c13,-2.666672 27.166672,-4 42.5,-4c15.333344,0 31,2 47,6c16,4 36.166656,10.333344 60.5,19c24.333344,8.666656 38.666656,13.5 43,14.5c4.333344,1 9.5,1.333344 15.5,1c6,-0.333344 26.166656,-6.333344 60.5,-18c34.333344,-11.666672 58.166687,-18.833328 71.5,-21.5c13.333313,-2.666672 27.5,-4 42.5,-4c15,0 30.833313,1.666672 47.5,5c16.666687,3.333328 31,7.333328 43,12c12,4.666656 23.266663,10.100006 33.799988,16.299988c10.466675,6.133331 20.200012,13.033356 29.200012,20.700012c9,7.666656 17.166687,15.833344 24.5,24.5c7.333313,8.666656 11.43335,13.600006 12.299988,14.799988c0.799988,1.133331 1.266663,1.800018 1.400024,2z" stroke-width="0.5px" stroke="#221E20" fill-rule="evenodd" fill="#ffffff" id="svg_1"/>
  <path d="m0,256l0,-256l295.5,0l295.5,0l0,0.2c0,0.2 -3.833313,0.96667 -11.5,2.3c-7.666687,1.33333 -17.666687,4.16667 -30,8.5c-12.333313,4.33333 -24,9.5 -35,15.5c-11,6 -21.333344,12.666672 -31,20c-9.666656,7.333328 -18.333344,15.333328 -26,24c-7.666656,8.666656 -14.833344,17.833344 -21.5,27.5c-6.666656,9.666656 -12.600006,19.933327 -17.799988,30.800003c-5.133331,10.800003 -9.200012,22.199997 -12.200012,34.199997c-3,12 -4.733337,25.666672 -5.200012,41l-0.799988,23l16.5,-0.199997c11,-0.199997 22.5,-1.800003 34.5,-4.800003c12,-3 22.933319,-7.066666 32.799988,-12.199997c9.800018,-5.199997 19.600006,-11.733337 29.400024,-19.600006c9.866638,-7.800003 18.866638,-16.266663 27,-25.399994c8.200012,-9.199997 15.966675,-19.633331 23.299988,-31.300003c7.333313,-11.666656 13.333313,-23 18,-34c4.666687,-11 8.333313,-22 11,-33c2.666687,-11 4.333313,-23 5,-36c0.666687,-13 0.900024,-21.33333 0.700012,-25l-0.200012,-5.5l102.5,0l102.5,0l0,361.5l0,361.5l-1,-0.200012l-1,-0.299988l-1,-0.5l-1,-0.5l-1.5,-0.5c-1,-0.333313 -6.833313,-3.666687 -17.5,-10c-10.666687,-6.333313 -20.06665,-12.93335 -28.200012,-19.799988c-8.200012,-6.799988 -16.133301,-14.200012 -23.799988,-22.200012c-7.666687,-8 -15,-17.333313 -22,-28c-7,-10.666687 -13,-22 -18,-34c-5,-12 -8.833313,-24.333313 -11.5,-37c-2.666687,-12.666687 -4,-29 -4,-49c0,-20 1.166687,-35.666656 3.5,-47c2.333313,-11.333344 5.666687,-22.5 10,-33.5c4.333313,-11 10,-22 17,-33c7,-11 15,-21.166656 24,-30.5c9,-9.333344 19.400024,-18.399994 31.200012,-27.200012l17.799988,-13.299988l0.200012,-0.299988l0.299988,-0.200012l0,-1l0,-1l-0.299988,-0.200012c-0.133362,-0.199982 -0.600037,-0.866669 -1.400024,-2c-0.866638,-1.199982 -4.966675,-6.133331 -12.299988,-14.799988c-7.333313,-8.666656 -15.5,-16.833344 -24.5,-24.5c-9,-7.666656 -18.733337,-14.566681 -29.200012,-20.700012c-10.533325,-6.199982 -21.799988,-11.633331 -33.799988,-16.299988c-12,-4.666672 -26.333313,-8.666672 -43,-12c-16.666687,-3.333328 -32.5,-5 -47.5,-5c-15,0 -29.166687,1.333328 -42.5,4c-13.333313,2.666672 -37.166656,9.833328 -71.5,21.5c-34.333344,11.666656 -54.5,17.666656 -60.5,18c-6,0.333344 -11.166656,0 -15.5,-1c-4.333344,-1 -18.666656,-5.833344 -43,-14.5c-24.333344,-8.666656 -44.5,-15 -60.5,-19c-16,-4 -31.666656,-6 -47,-6c-15.333328,0 -29.5,1.333328 -42.5,4c-13,2.666672 -26,6.666672 -39,12c-13,5.333344 -25.833328,12 -38.5,20c-12.666656,8 -23.166656,15.833344 -31.5,23.5c-8.333344,7.666656 -16.23333,15.933319 -23.699997,24.799988c-7.533333,8.800018 -14.966675,19.200012 -22.300003,31.200012c-7.333328,12 -13.833328,24.5 -19.5,37.5c-5.66667,13 -10.5,27.166656 -14.5,42.5c-4,15.333344 -7,31.666656 -9,49l-3,26l-0.3,0l-0.2,0l0,-256z" stroke-width="0.5px" stroke="#FFFFFF" fill-rule="evenodd" fill="none" id="svg_2"/>
  <path d="m0,771l0,-214l4.2,35c2.86667,23.333313 6.96667,46 12.3,68c5.33333,22 11.83333,43.666687 19.5,65c7.666672,21.333313 16.066669,41.599976 25.200001,60.799988c9.200001,19.133362 18.733326,36.600037 28.600002,52.400024c9.799995,15.866638 21.599998,33.06665 35.399994,51.599976c13.866669,18.466675 24.966675,32.200012 33.300003,41.200012c8.333328,9 17.333328,17.333313 27,25c9.666672,7.666687 18.666672,13.5 27,17.5c8.333328,4 14.166672,6.5 17.5,7.5c3.333328,1 5.666672,1.666687 7,2l2,0.5l3.5,0.5l3.5,0.5l0,0.299988l0,0.200012l-123,0l-123,0l0,-214z" stroke-width="0.5px" stroke="#FFFFFF" fill-rule="evenodd" fill="none" id="svg_3"/>
  <path d="m591,0.2l0,-0.2l3.5,0l3.5,0l0.200012,5.5c0.200012,3.66667 -0.033325,12 -0.700012,25c-0.666687,13 -2.333313,25 -5,36c-2.666687,11 -6.333313,22 -11,33c-4.666687,11 -10.666687,22.333344 -18,34c-7.333313,11.666672 -15.099976,22.100006 -23.299988,31.300003c-8.133362,9.133331 -17.133362,17.599991 -27,25.399994c-9.800018,7.866669 -19.600006,14.400009 -29.400024,19.600006c-9.866669,5.133331 -20.799988,9.199997 -32.799988,12.199997c-12,3 -23.5,4.600006 -34.5,4.800003l-16.5,0.199997l0.799988,-23c0.466675,-15.333328 2.200012,-29 5.200012,-41c3,-12 7.066681,-23.399994 12.200012,-34.199997c5.199982,-10.866676 11.133331,-21.133347 17.799988,-30.800003c6.666656,-9.666656 13.833344,-18.833344 21.5,-27.5c7.666656,-8.666672 16.333344,-16.666672 26,-24c9.666656,-7.333328 20,-14 31,-20c11,-6 22.666687,-11.16667 35,-15.5c12.333313,-4.33333 22.333313,-7.16667 30,-8.5c7.666687,-1.33333 11.5,-2.1 11.5,-2.3z" stroke-width="0.5px" stroke="#221E20" fill-rule="evenodd" fill="#ffffff" id="svg_4"/>
  <path d="m789.799988,758l13.200012,-33l0,130l0,130l-106.5,0l-106.5,0l0,-0.5l0,-0.5l1,-0.200012l1,-0.299988l4,-0.5c2.666687,-0.333313 8.5,-1.833313 17.5,-4.5c9,-2.666687 18,-6.666687 27,-12c9,-5.333313 17.766663,-11.900024 26.299988,-19.700012c8.466675,-7.866638 17.799988,-17.866638 28,-30c10.133362,-12.200012 21.533325,-27.466675 34.200012,-45.799988c12.666687,-18.333313 23.733337,-36.266663 33.200012,-53.799988c9.533325,-17.466675 18.733337,-37.200012 27.599976,-59.200012z" stroke-width="0.5px" stroke="#FFFFFF" fill-rule="evenodd" fill="none" id="svg_5"/>
  <path d="m582,983.799988l8,0.200012l0,0.5l0,0.5l-162,0l-162,0l0,-0.200012l0,-0.299988l4,-0.5l4,-0.5l18.5,-5c12.333344,-3.333313 28.333344,-8.5 48,-15.5c19.666656,-7 34.666656,-11.5 45,-13.5c10.333344,-2 22,-3 35,-3c13,0 25.666656,1.333313 38,4c12.333344,2.666687 29.333344,7.833313 51,15.5c21.666687,7.666687 37.833313,12.5 48.5,14.5c10.666687,2 18.666687,3.099976 24,3.299988z" stroke-width="0.5px" stroke="#FEFEFE" fill-rule="evenodd" fill="none" id="svg_6"/>
 </g>
</svg>